<?xml version="1.0" encoding="utf-8"?>
<!-- Generator: Adobe Illustrator 27.0.0, SVG Export Plug-In . SVG Version: 6.00 Build 0)  -->
<svg version="1.0" xmlns="http://www.w3.org/2000/svg" xmlns:xlink="http://www.w3.org/1999/xlink" x="0px" y="0px"
	 viewBox="0 0 50 50" enable-background="new 0 0 50 50" xml:space="preserve">
<g id="Layer_3">
</g>
<g id="Layer_2">
</g>
<g id="Layer_1">
</g>
<g id="Layer_5">
	<g>
		<rect fill="#4E5E89" width="50" height="50"/>
		<path fill="#773F1F" d="M38.3,31.8l-13.2,8.4l-13.5-8.4v-8.7C11.7,13.7,17.6,6,25,6h0c7.4,0,13.3,7.6,13.3,17.1V31.8z"/>
		<path fill="#3A3A3A" d="M25.2,29.9L25.2,29.9c-6.5,0-11.7,5.2-11.7,11.7V50h23.4v-8.4C36.9,35.1,31.7,29.9,25.2,29.9z"/>
		<circle fill="#E3A180" cx="33.4" cy="22.6" r="3.5"/>
		<circle fill="#E3A180" cx="17" cy="22.6" r="3.5"/>
		<path fill="#F2B18D" d="M25.9,32.9h-1.3c-4.9,0-8.9-4-8.9-8.9v-5.2c0,0,10.1,0.3,11.2-5.6c3,4,8,3.5,8,4.8v6
			C34.8,28.9,30.8,32.9,25.9,32.9z"/>
		<g>
			<path fill="#3A3A3A" d="M34.8,18c0,0-5.9-1.2-9.5,0.3c0,1.5,0,2,0,2.5c1.4-0.2,4.8,2.8,7.2,1.8c2.3-0.9,2.3-3.2,2.3-3.2V18z"/>
			<path fill="#3A3A3A" d="M15.6,18c0,0,6.2-1.2,9.8,0.3c0,1.5,0,2,0,2.5c-1.4-0.2-4.8,2.8-7.2,1.8c-2.3-0.9-2.6-3.2-2.6-3.2V18z"/>
		</g>
		<g>
			<g>
				<path fill="#FFFFFF" d="M31.7,21c-1.3,0-1.6,0-3.3,0c0-0.9,0.7-1.6,1.6-1.6C30.9,19.3,31.7,20.1,31.7,21z"/>
				<path fill="#E3A180" d="M26.5,22.1c-0.9,0-1.1,0-2.3,0c0-0.6,0.5-1.2,1.2-1.2S26.5,21.5,26.5,22.1z"/>
				<path fill="#FFFFFF" d="M22.3,21c-1.3,0-1.6,0-3.3,0c0-0.9,0.7-1.6,1.6-1.6C21.6,19.3,22.3,20.1,22.3,21z"/>
			</g>
			<g>
				<path fill="#A30433" d="M21.4,23.3h8c0.7,0,1.2,0.6,1,1.3c-0.6,2.2-2.6,3.9-5,3.9s-4.4-1.7-5-3.9C20.2,23.9,20.7,23.3,21.4,23.3
					z"/>
				<g>
					<defs>
						<path id="SVGID_00000016791200442139490510000018314239809696162207_" d="M21.4,23.3h8c0.7,0,1.2,0.6,1,1.3
							c-0.6,2.2-2.6,3.9-5,3.9s-4.4-1.7-5-3.9C20.2,23.9,20.7,23.3,21.4,23.3z"/>
					</defs>
					<clipPath id="SVGID_00000078760888651682485260000007221170840271181759_">
						<use xlink:href="#SVGID_00000016791200442139490510000018314239809696162207_"  overflow="visible"/>
					</clipPath>
					<path clip-path="url(#SVGID_00000078760888651682485260000007221170840271181759_)" fill="#D12156" d="M20.4,25.7H24
						c2.1,0,3.7,1.7,3.7,3.7v0h-8.9v-2.1C18.8,26.4,19.5,25.7,20.4,25.7z"/>
					<path clip-path="url(#SVGID_00000078760888651682485260000007221170840271181759_)" fill="#FFFFFF" d="M27.5,24.7h-3.7
						c-0.9,0-1.6-0.7-1.6-1.6v-0.7h7v0.7C29.1,24,28.4,24.7,27.5,24.7z"/>
				</g>
			</g>
		</g>
		<circle fill="#3A2114" cx="35.8" cy="25.4" r="0.7"/>
		<circle fill="#3A2114" cx="14.7" cy="25.4" r="0.7"/>
		<path fill="none" stroke="#3A3A3A" stroke-linecap="round" stroke-linejoin="bevel" stroke-miterlimit="10" d="M15.4,13.8
			c0-3.5,5.6-6.8,9.6-6.8c1.4,0,2.9,0.4,4.3,1c2.8,1.2,5.1,3.3,5.1,5.3"/>
		<path fill="#3A3A3A" d="M32.4,3.1c2,0.1,1.7,8.2,1.7,8.2l-5.2-3.7C28.8,7.6,31.7,3.4,32.4,3.1z"/>
		<path fill="#3A3A3A" d="M17,3.1c-2,0.1-1.4,8.7-1.4,8.7L21,7.5C21,7.5,17.7,3.4,17,3.1z"/>
	</g>
</g>
<g id="icons">
</g>
<g id="sport">
</g>
<g id="batman">
</g>
</svg>
