<?xml version="1.0" encoding="utf-8"?>
<!-- Generator: Adobe Illustrator 27.0.0, SVG Export Plug-In . SVG Version: 6.00 Build 0)  -->
<svg version="1.0" xmlns="http://www.w3.org/2000/svg" xmlns:xlink="http://www.w3.org/1999/xlink" x="0px" y="0px"
	 viewBox="0 0 50 50" enable-background="new 0 0 50 50" xml:space="preserve">
<g id="Layer_3">
</g>
<g id="Layer_2">
</g>
<g id="Layer_1">
</g>
<g id="Layer_5">
	<g>
		<rect fill="#F4B821" width="50" height="50"/>
		<path fill="#3A2114" d="M17.9,37h7.3c-5.5,0-9.9,1.3-9.9-3.8l1-11.5c0-5.1,3.5-7.4,9-7.4h0c5.5,0,9,2.3,9,7.4l1,11.5
			C35.3,38.3,23.4,37,17.9,37z"/>
		<path fill="#6A4C94" d="M25.4,33.6L25.4,33.6c-5.3,0-9.6,4.3-9.6,9.6V50H35v-6.9C35,37.8,30.7,33.6,25.4,33.6z"/>
		<path fill="#F4B821" d="M25.6,41.2L25.6,41.2c-2.5,0-4.6-2-4.6-4.6v-2.9c0-2,1.6-3.6,3.6-3.6h1.9c2,0,3.6,1.6,3.6,3.6v2.9
			C30.2,39.2,28.2,41.2,25.6,41.2z"/>
		<path fill="#C96F41" d="M25.6,40.1L25.6,40.1c-2,0-3.6-1.6-3.6-3.6v-1.5c0-2,1.6-3.6,3.6-3.6h0c2,0,3.6,1.6,3.6,3.6v1.5
			C29.3,38.4,27.6,40.1,25.6,40.1z"/>
		<path fill="#D88157" d="M26,36.1h-1.1c-4,0-7.3-3.3-7.3-7.3v-4.3c0,0,8.2,0.3,9.2-4.5c2.2,3.3,6.5,2.8,6.5,3.9v4.9
			C33.3,32.8,30,36.1,26,36.1z"/>
		<g>
			<g>
				<path fill="#C96F41" d="M26.5,27.3c-0.8,0-0.9,0-1.9,0c0-0.5,0.4-1,1-1S26.5,26.7,26.5,27.3z"/>
			</g>
			<g>
				<path fill="#A30433" d="M22.3,28.2h6.5c0.5,0,0.9,0.5,0.8,1c-0.5,1.8-2.1,3.2-4.1,3.2s-3.6-1.4-4.1-3.2
					C21.3,28.7,21.7,28.2,22.3,28.2z"/>
				<g>
					<defs>
						<path id="SVGID_00000013884708993355426180000008688142729988331952_" d="M22.3,28.2h6.5c0.5,0,0.9,0.5,0.8,1
							c-0.5,1.8-2.1,3.2-4.1,3.2s-3.6-1.4-4.1-3.2C21.3,28.7,21.7,28.2,22.3,28.2z"/>
					</defs>
					<clipPath id="SVGID_00000162329682477154240860000010626825533734901383_">
						<use xlink:href="#SVGID_00000013884708993355426180000008688142729988331952_"  overflow="visible"/>
					</clipPath>
					<path clip-path="url(#SVGID_00000162329682477154240860000010626825533734901383_)" fill="#D12156" d="M21.8,30.1h2.6
						c1.7,0,3.1,1.4,3.1,3.1v0h-7.3v-1.4C20.2,30.9,20.9,30.1,21.8,30.1z"/>
					<path clip-path="url(#SVGID_00000162329682477154240860000010626825533734901383_)" fill="#FFFFFF" d="M27,29.4h-2.5
						c-0.9,0-1.6-0.7-1.6-1.6v-0.3h5.7v0.3C28.6,28.6,27.9,29.4,27,29.4z"/>
				</g>
			</g>
		</g>
		<g>
			<path fill="#6A4C94" d="M25.4,13.6c0,0,2.6,0,4.6,0.9c1.2-2.1,2-7.3,2-7.3s6.5,20.5-0.5,26.3c0-4.3,2-7-6.2-5.7
				C25.4,22.4,25.4,13.6,25.4,13.6z"/>
			<path fill="#6A4C94" d="M25.5,13.6c0,0-2.6,0-4.6,0.9c-1.2-2.1-2-7.3-2-7.3s-6.5,20.5,0.5,26.3c0-4.3-2-7,6.2-5.7
				C25.5,22.4,25.5,13.6,25.5,13.6z"/>
		</g>
		<path fill="#FFFFFF" d="M31.1,26.3c-1.1,0-1.3,0-2.7,0c0-0.7,0.6-1.3,1.3-1.3C30.5,25,31.1,25.6,31.1,26.3z"/>
		<path fill="#FFFFFF" d="M22.7,26.3c-1.1,0-1.3,0-2.7,0c0-0.7,0.6-1.3,1.3-1.3C22.1,25,22.7,25.6,22.7,26.3z"/>
	</g>
</g>
<g id="icons">
</g>
<g id="sport">
</g>
<g id="batman">
</g>
</svg>
