<svg id="Layer_5" data-name="Layer 5" xmlns="http://www.w3.org/2000/svg" xmlns:xlink="http://www.w3.org/1999/xlink" viewBox="0 0 50 50">
  <defs>
    <clipPath id="clippath">
      <path d="M21.36,23.32h7.99c.66,0,1.16,.62,1,1.26-.56,2.23-2.58,3.89-4.99,3.89s-4.43-1.65-4.99-3.89c-.16-.64,.34-1.26,1-1.26Z" style="fill: none;"/>
    </clipPath>
  </defs>
  <rect width="50" height="50" style="fill: #ff8a3e;"/>
  <path d="M38.35,31.78l-13.16,8.43-13.52-8.43v-8.66c0-9.44,5.97-17.09,13.34-17.09h0c7.37,0,13.34,7.65,13.34,17.09v8.66Z" style="fill: #773f1f;"/>
  <path d="M25.24,29.87h0c6.46,0,11.7,5.24,11.7,11.7v8.43H13.54v-8.43c0-6.46,5.24-11.7,11.7-11.7Z" style="fill: #19b0a8;"/>
  <circle cx="33.43" cy="22.62" r="3.51" style="fill: #e8a685;"/>
  <circle cx="17.05" cy="22.62" r="3.51" style="fill: #e8a685;"/>
  <path d="M24.32,25.66h2.32c2.45,0,4.45,1.99,4.45,4.45v3.52c0,3.09-2.51,5.61-5.61,5.61h0c-3.09,0-5.61-2.51-5.61-5.61v-3.52c0-2.45,1.99-4.45,4.45-4.45Z" style="fill: #4f2e80;"/>
  <rect x="21.03" y="27.06" width="8.89" height="10.77" rx="4.45" ry="4.45" style="fill: #e8a685;"/>
  <path d="M25.91,32.91h-1.34c-4.93,0-8.92-4-8.92-8.92v-5.16s10.06,.27,11.23-5.58c3.04,3.98,7.96,3.48,7.96,4.76v5.97c0,4.93-4,8.92-8.92,8.92Z" style="fill: #f7b692;"/>
  <g>
    <g>
      <path d="M31.68,20.98h-3.28c0-.9,.73-1.64,1.64-1.64s1.64,.73,1.64,1.64Z" style="fill: #3a3a3a;"/>
      <path d="M26.53,22.15h-2.34c0-.65,.52-1.17,1.17-1.17s1.17,.52,1.17,1.17Z" style="fill: #e8a685;"/>
      <path d="M22.32,20.98h-3.28c0-.9,.73-1.64,1.64-1.64s1.64,.73,1.64,1.64Z" style="fill: #3a3a3a;"/>
    </g>
    <g>
      <path d="M21.36,23.32h7.99c.66,0,1.16,.62,1,1.26-.56,2.23-2.58,3.89-4.99,3.89s-4.43-1.65-4.99-3.89c-.16-.64,.34-1.26,1-1.26Z" style="fill: #a80433;"/>
      <g style="clip-path: url(#clippath);">
        <path d="M18.8,25.66h8.89v2.11c0,.9-.73,1.64-1.64,1.64h-3.51c-2.07,0-3.74-1.68-3.74-3.74h0Z" transform="translate(46.5 55.06) rotate(-180)" style="fill: #d62156;"/>
        <path d="M22.08,22.38h7.02v.7c0,.9-.73,1.64-1.64,1.64h-3.75c-.9,0-1.64-.73-1.64-1.64v-.7h0Z" style="fill: #fff;"/>
      </g>
    </g>
  </g>
  <circle cx="35.77" cy="25.43" r=".7" style="fill: #3a2114;"/>
  <circle cx="14.71" cy="25.43" r=".7" style="fill: #3a2114;"/>
</svg>