<?xml version="1.0" encoding="UTF-8"?><svg id="d" xmlns="http://www.w3.org/2000/svg" width="50" height="50" xmlns:xlink="http://www.w3.org/1999/xlink" viewBox="0 0 50 50"><defs><clipPath id="e"><path d="M21.27,28.22h6.53c.54,0,.95,.51,.81,1.03-.46,1.82-2.11,3.17-4.08,3.17s-3.62-1.35-4.08-3.17c-.13-.52,.27-1.03,.81-1.03Z" style="fill:none;"/></clipPath></defs><rect width="50" height="50" style="fill:#356d00;"/><path d="M32.85,25.93s-16.08-.38-16.81-.38c0-1.53-.27-2.19-.27-2.19h-1.54c0-1.53,.77-2.29,.77-2.29h-1.74c0-12.61,14.73-6.11,14.73-6.11v-1.91s3.25,.38,3.25,4.01l.96-1.34s1.53,1.53,.38,3.06c.38,.76,.27,7.15,.27,7.15Z" style="fill:#773f1f;"/><path d="M24.44,33.57h0c5.27,0,9.55,4.28,9.55,9.55v6.88H14.89v-6.88c0-5.27,4.28-9.55,9.55-9.55Z" style="fill:#69a82d;"/><circle cx="31.13" cy="27.65" r="2.87" style="fill:#e3a180;"/><circle cx="17.75" cy="27.65" r="2.87" style="fill:#e3a180;"/><path d="M23.68,30.13h1.89c2,0,3.63,1.63,3.63,3.63v2.87c0,2.53-2.05,4.58-4.58,4.58h0c-2.53,0-4.58-2.05-4.58-4.58v-2.87c0-2,1.63-3.63,3.63-3.63Z" style="fill:#459400;"/><rect x="21" y="31.28" width="7.26" height="8.79" rx="3.63" ry="3.63" style="fill:#e3a180;"/><path d="M24.99,36.05h-1.1c-4.02,0-7.28-3.26-7.28-7.28v-3.83s.48-2.89,.96-3.6c1.53-2.29,8.02-1.53,10.32-1.91,2.29,1.91,4.39,3.41,4.39,4.46v4.88c0,4.02-3.26,7.28-7.28,7.28Z" style="fill:#f2b18d;"/><g><g><path d="M30.08,26.31h-2.67c0-.74,.6-1.34,1.34-1.34s1.34,.6,1.34,1.34Z" style="fill:#3a3a3a;"/><path d="M25.49,27.26c-.77,0-.93,0-1.91,0,0-.53,.43-.96,.96-.96s.96,.43,.96,.96Z" style="fill:#e3a180;"/><path d="M21.67,26.31h-2.67c0-.74,.6-1.34,1.34-1.34s1.34,.6,1.34,1.34Z" style="fill:#3a3a3a;"/></g><g><path d="M21.27,28.22h6.53c.54,0,.95,.51,.81,1.03-.46,1.82-2.11,3.17-4.08,3.17s-3.62-1.35-4.08-3.17c-.13-.52,.27-1.03,.81-1.03Z" style="fill:#a30433;"/><g style="clip-path:url(#e);"><path d="M19.19,30.13h7.26v1.42c0,.9-.73,1.64-1.64,1.64h-2.57c-1.69,0-3.06-1.37-3.06-3.06h0Z" transform="translate(45.63 63.32) rotate(180)" style="fill:#d12156;"/><path d="M21.86,27.46h5.73v.27c0,.9-.73,1.64-1.64,1.64h-2.46c-.9,0-1.64-.73-1.64-1.64v-.27h0Z" style="fill:#fff;"/></g></g></g></svg>