<svg width="33" height="30" viewBox="0 0 33 30" fill="none" xmlns="http://www.w3.org/2000/svg">
<path d="M18.54 1.04C25.96 1.04 32 7.08 32 14.5C32 21.92 25.96 27.96 18.54 27.96C15.41 27.96 13.18 27.06 11.9 25.3C9.21999 21.59 11.32 15.14 11.34 15.08L11.5 14.58L11.19 14.16C11.07 14 8.47 10.54 6.42 8.62C8.67 3.99 13.35 1.03 18.54 1.03M18.54 0.0299988C12.54 0.0299988 7.40001 3.68 5.21001 8.88C7.23001 10.55 10.39 14.76 10.39 14.76C10.39 14.76 5.65999 28.96 18.54 28.96C26.53 28.96 33 22.48 33 14.5C33 6.52 26.52 0.0399988 18.54 0.0399988V0.0299988Z" fill="#111111"/>
<path d="M20.11 17.34C21.15 17.34 22 18.19 22 19.23C22 20.27 21.15 21.12 20.11 21.12C19.07 21.12 18.22 20.27 18.22 19.23C18.22 18.19 19.07 17.34 20.11 17.34ZM20.11 16.34C18.51 16.34 17.22 17.64 17.22 19.23C17.22 20.82 18.52 22.12 20.11 22.12C21.7 22.12 23 20.82 23 19.23C23 17.64 21.7 16.34 20.11 16.34Z" fill="#111111"/>
<path d="M20.11 19.23H1V28.96H8.09C8.09 28.96 13.54 28.96 13.54 20.02" stroke="#111111" stroke-miterlimit="10" stroke-linecap="round"/>
<path d="M14.01 11.61L8.23 5.82" stroke="#111111" stroke-miterlimit="10" stroke-linecap="round"/>
<path d="M10.29 23.57H1.09" stroke="#111111" stroke-miterlimit="10"/>
</svg>
