<svg width="32" height="33" viewBox="0 0 32 33" fill="none" xmlns="http://www.w3.org/2000/svg">
<path d="M8.32999 26.43V1.80999C13.27 -2.31001 17.44 6.26999 22.77 2.23999V11.53C17.83 15.9 12.88 7.04999 8.32999 11.35" stroke="#111111" stroke-linecap="round" stroke-linejoin="round"/>
<path d="M8.26001 25.77C9.04001 25.77 9.49001 26.09 9.54001 26.18C9.49001 26.31 9.04001 26.63 8.26001 26.63C7.48001 26.63 7.03001 26.31 6.98001 26.22C7.03001 26.09 7.48001 25.77 8.26001 25.77ZM8.26001 24.77C7.00001 24.77 5.98001 25.41 5.98001 26.2C5.98001 26.99 7.00001 27.63 8.26001 27.63C9.52001 27.63 10.54 26.99 10.54 26.2C10.54 25.41 9.52001 24.77 8.26001 24.77Z" fill="#111111"/>
<path d="M22.11 26.94C22.49 26.94 22.8 27.25 22.8 27.63C22.8 28.01 22.49 28.32 22.11 28.32C21.73 28.32 21.42 28.01 21.42 27.63C21.42 27.25 21.73 26.94 22.11 26.94ZM22.11 25.94C21.18 25.94 20.42 26.7 20.42 27.63C20.42 28.56 21.18 29.32 22.11 29.32C23.04 29.32 23.8 28.56 23.8 27.63C23.8 26.7 23.04 25.94 22.11 25.94Z" fill="#111111"/>
<path d="M19.9 20.75C23.47 20.75 25.38 21.11 26.24 21.4C26.17 21.42 26.09 21.45 26.03 21.47C25.11 21.77 23.58 22.27 23.58 23.98C23.58 25.85 25.68 26.68 27.72 27.48C29.1 28.02 30.79 28.69 30.98 29.44C30.16 30.16 25.26 31.34 17.55 31.34C7.80999 31.34 1 29.38 1 26.58C1 23.09 10.77 20.74 19.9 20.74M19.9 19.74C11.71 19.74 0 21.76 0 26.58C0 30.8 9.06999 32.34 17.55 32.34C25 32.34 32 31.16 32 29.57C32 26.71 24.59 26.45 24.59 23.98C24.59 22.16 27.71 22.68 27.71 21.38C27.71 20.33 24.31 19.75 19.9 19.75V19.74Z" fill="#111111"/>
</svg>
