<?xml version="1.0" encoding="UTF-8"?>
<svg id="icons" xmlns="http://www.w3.org/2000/svg" viewBox="0 0 34 34">
  <path d="M.76,24.15c.07,.43,.41,.76,.84,.82,1.38,.19,4.88,.54,11.76,.54h10.28s5.96,.52,9.34-2.6c1.17-1.04,0-2.13,0-2.13,0,0,0-2.41-3.51-2.15s-12.34-3.9-12.99-5.07-2.08-7.15-2.99-7.54-4.55,1.43-5.85,1.69-4.03,.13-4.81,.78-1.04,2.99-1.43,5.98c-.73,1.71-1.23,6.05-.65,9.69Z" style="fill: none; stroke: #111; stroke-linecap: round; stroke-linejoin: round;"/>
  <path d="M1.86,11.66c2.15-1.22,8.64-3.56,9.68-3.95,.9-.34,1.82-.22,2.21,.67,.1,.23,0,.51-.23,.61-1.04,.44-1.14,1.21,.17,1.4,.14,.02,.25,.12,.29,.26,.04,.16,.06,.36-.1,.44-1.43,.74-6.52,2.3-6.27,4.22" style="fill: none; stroke: #111; stroke-linejoin: round;"/>
  <path d="M.63,21.22c7.15,.91,23.91,3.53,32.35-.45" style="fill: none; stroke: #111; stroke-linecap: round; stroke-linejoin: round;"/>
  <path d="M12.45,11.86c0,.78-.39,2.99,1.95,2.86s2.99,1.69,3.64,1.95,6.37,2.86,6.37,2.86l.39-1.69s-1.17,4.16,1.04,2.93,1.95-.85,2.73-.85,2.34-.78,2.6-1.04" style="fill: none; stroke: #111; stroke-linecap: round; stroke-linejoin: round;"/>
  <path d="M24.27,19.53c-.39,.91-1.19,2.19-1.25,3.3" style="fill: none; stroke: #111; stroke-linecap: round; stroke-linejoin: round;"/>
  <path d="M2,14c1.17,.39,5.38,2.8,10.45-.32" style="fill: none; stroke: #111; stroke-linecap: round; stroke-linejoin: round;"/>
  <path d="M1.28,15.89c4.03,1.43,6.21,1.58,7.65,6.31" style="fill: none; stroke: #111; stroke-linecap: round; stroke-linejoin: round;"/>
  <path d="M1.41,14.92c4.16,1.36,9.52,2.91,11.13,3.31s2.42-.52,1.69-2.2c2.39,1.04,2.78,2.6,2.26,3.51s-2.52,.65-4.12,.26S1.01,15.75,1.01,15.75l.4-.83Z" style="fill: #111;"/>
  <line x1="14" y1="13" x2="15.63" y2="11.67" style="fill: none; stroke: #111; stroke-linecap: round; stroke-linejoin: round;"/>
  <line x1="16.48" y1="13.55" x2="15.75" y2="14.66" style="fill: none; stroke: #111; stroke-linecap: round; stroke-linejoin: round;"/>
  <line x1="18.56" y1="15.05" x2="17.57" y2="16.02" style="fill: none; stroke: #111; stroke-linecap: round; stroke-linejoin: round;"/>
  <path d="M21.16,16.58l-1.18,1.13c.26,1.56,.13,2.86-.78,5.07" style="fill: none; stroke: #111; stroke-linecap: round; stroke-linejoin: round;"/>
  <line x1="23.03" y1="17.08" x2="21.93" y2="18.37" style="fill: none; stroke: #111; stroke-linecap: round; stroke-linejoin: round;"/>
</svg>