<?xml version="1.0" encoding="utf-8"?>
<!-- Generator: Adobe Illustrator 27.0.0, SVG Export Plug-In . SVG Version: 6.00 Build 0)  -->
<svg version="1.1" id="Layer_1" xmlns="http://www.w3.org/2000/svg" xmlns:xlink="http://www.w3.org/1999/xlink" x="0px" y="0px"
	 viewBox="0 0 34 34" style="enable-background:new 0 0 34 34;" xml:space="preserve">
<style type="text/css">
	.st0{fill-rule:evenodd;clip-rule:evenodd;fill:#A4A4A4;}
	.st1{fill:#FFFFFF;}
</style>
<g>
	<path class="st0" d="M17,0c9.4,0,17,7.6,17,17s-7.6,17-17,17S0,26.4,0,17S7.6,0,17,0L17,0z"/>
	<path class="st1" d="M27,11.5h-7v-2h7V11.5z M28.7,21.5c-0.4,1.3-2,3-5.1,3c-3.1,0-5.6-1.7-5.6-5.7c0-3.9,2.3-5.9,5.5-5.9
		c3.1,0,5,1.8,5.4,4.4c0.1,0.5,0.1,1.2,0.1,2.1h-8c0.1,3.2,3.5,3.3,4.6,2C25.6,21.5,28.7,21.5,28.7,21.5z M21,17.5h5
		c-0.1-1.5-1.1-2.2-2.5-2.2C22.1,15.3,21.3,16,21,17.5z M11.5,24.5H5v-15h7c5.5,0.1,5.6,5.4,2.7,6.9C18.1,17.7,18.2,24.5,11.5,24.5z
		 M8,15.5h3.6c2.5,0,2.9-3-0.3-3H8C8,12.5,8,15.5,8,15.5z M11.4,18.5H8v3h3.3C14.4,21.5,14.2,18.5,11.4,18.5z"/>
</g>
</svg>
