<?xml version="1.0" encoding="UTF-8"?>
<svg id="Layer_1" data-name="Layer 1" xmlns="http://www.w3.org/2000/svg" viewBox="0 0 34 34">
  <path d="M17,0c9.4,0,17,7.6,17,17s-7.6,17-17,17S0,26.38,0,17,7.62,0,17,0h0Z" style="fill: #a4a4a4; fill-rule: evenodd;"/>
  <path d="M12.16,7.38h9.69c2.18,0,3.96,1.76,3.96,3.95v9.65c0,2.18-1.78,3.95-3.96,3.95H12.16c-2.18,0-3.95-1.76-3.95-3.95V11.33c0-2.18,1.76-3.95,3.95-3.95h0Zm4.82,4.96h.05c2.09,0,3.82,1.73,3.82,3.8h0c0,2.15-1.73,3.87-3.82,3.87h-.05c-2.07,0-3.8-1.73-3.8-3.87h0c0-2.07,1.73-3.8,3.8-3.8h0Zm0-1.98h.05c3.15,0,5.78,2.64,5.78,5.78h0c0,3.2-2.64,5.8-5.78,5.8h-.05c-3.15,0-5.73-2.6-5.73-5.8h0c0-3.15,2.58-5.78,5.73-5.78h0Zm5.75-1.11h0c.65,0,1.22,.56,1.22,1.22h0c0,.65-.56,1.22-1.22,1.22h0c-.71,0-1.22-.56-1.22-1.22h0c0-.65,.51-1.22,1.22-1.22h0Zm-10.6-3.71h9.78c3.15,0,5.73,2.6,5.73,5.75v9.73c0,3.15-2.58,5.75-5.73,5.75H12.13c-3.15,0-5.75-2.6-5.75-5.75V11.29c0-3.16,2.6-5.75,5.75-5.75h0Z" style="fill: #fff; fill-rule: evenodd;"/>
</svg>