<?xml version="1.0" encoding="UTF-8"?>
<svg id="Layer_1" data-name="Layer 1" xmlns="http://www.w3.org/2000/svg" viewBox="0 0 34 34">
  <path d="M17,0c9.38,0,17,7.6,17,17s-7.62,17-17,17S0,26.38,0,17,7.6,0,17,0h0Z" style="fill: #a4a4a4; fill-rule: evenodd;"/>
  <path d="M13.71,12.78h3.71v1.76c.78-1.16,2.09-1.89,3.56-1.89h1.02c2.36,0,4.25,1.95,4.25,4.25v8.47h-3.69v-6.8c-.05-1.44-1.02-2.55-2.45-2.55h0c-1.44,0-2.64,1.11-2.69,2.55h0v6.8h-3.71V12.78Zm-4.11-6.38c1.25,0,2.27,1.02,2.27,2.27s-1.02,2.27-2.27,2.27-2.22-1.02-2.22-2.27,.96-2.27,2.22-2.27h0Zm-1.85,6.38h3.75v12.6h-3.75V12.78Z" style="fill: #fff; fill-rule: evenodd;"/>
</svg>