<?xml version="1.0" encoding="utf-8"?>
<!-- Generator: Adobe Illustrator 27.0.0, SVG Export Plug-In . SVG Version: 6.00 Build 0)  -->
<svg version="1.0" xmlns="http://www.w3.org/2000/svg" xmlns:xlink="http://www.w3.org/1999/xlink" x="0px" y="0px"
	 viewBox="0 0 50 50" enable-background="new 0 0 50 50" xml:space="preserve">
<g id="Layer_3">
</g>
<g id="Layer_2">
</g>
<g id="Layer_1">
</g>
<g id="Layer_5">
	<g>
		<rect fill="#69A82D" width="50" height="50"/>
		<path fill="#773F1F" d="M32.8,25.9c0,0-16.1-0.4-16.8-0.4c0-1.5-0.3-2.2-0.3-2.2s-1.2,0-1.5,0c0-1.5,0.8-2.3,0.8-2.3s-0.4,0-1.7,0
			C13.3,8.5,28,15,28,15V13c0,0,3.2,0.4,3.2,4l1-1.3c0,0,1.5,1.5,0.4,3.1C33,19.5,32.8,25.9,32.8,25.9z"/>
		<path fill="#D12156" d="M24.4,33.6L24.4,33.6c-5.3,0-9.6,4.3-9.6,9.6V50H34v-6.9C34,37.8,29.7,33.6,24.4,33.6z"/>
		<circle fill="#E3A180" cx="31.1" cy="27.6" r="2.9"/>
		<circle fill="#E3A180" cx="17.8" cy="27.6" r="2.9"/>
		<path fill="#F4B821" d="M24.6,41.2L24.6,41.2c-2.5,0-4.6-2-4.6-4.6v-2.9c0-2,1.6-3.6,3.6-3.6h1.9c2,0,3.6,1.6,3.6,3.6v2.9
			C29.2,39.2,27.2,41.2,24.6,41.2z"/>
		<path fill="#E3A180" d="M24.6,40.1L24.6,40.1c-2,0-3.6-1.6-3.6-3.6v-1.5c0-2,1.6-3.6,3.6-3.6h0c2,0,3.6,1.6,3.6,3.6v1.5
			C28.3,38.4,26.6,40.1,24.6,40.1z"/>
		<path fill="#F2B18D" d="M25,36.1h-1.1c-4,0-7.3-3.3-7.3-7.3v-3.8c0,0,0.5-2.9,1-3.6c1.5-2.3,8-1.5,10.3-1.9
			c2.3,1.9,4.4,3.4,4.4,4.5v4.9C32.3,32.8,29,36.1,25,36.1z"/>
		<path fill="#69A82D" d="M30.2,22.5c0.3,0.9,0.5,2.8-1.6,1.4c-0.7,0.3-2.2,1-4.2,0.7c0,0.6,0,0.7,0,1.7c1.3,0.1,3.4,0.6,4.9,1.6
			c1.4-1.1,1.1,0.3,1.1,0.6C30.9,27.9,31.9,24.7,30.2,22.5z"/>
		<path fill="#69A82D" d="M18.6,22.5c-0.3,0.9-0.5,2.8,1.6,1.4c0.7,0.3,2.2,1,4.2,0.7c0,0.6,0,0.7,0,1.7c-1.3,0.1-3.4,0.6-4.9,1.6
			c-1.4-1.1-1.1,0.3-1.1,0.6C18,27.9,16.9,24.7,18.6,22.5z"/>
		<g>
			<g>
				<path fill="#FFFFFF" d="M30.1,26.3c-1.1,0-1.3,0-2.7,0c0-0.7,0.6-1.3,1.3-1.3C29.5,25,30.1,25.6,30.1,26.3z"/>
				<path fill="#E3A180" d="M25.5,27.3c-0.8,0-0.9,0-1.9,0c0-0.5,0.4-1,1-1S25.5,26.7,25.5,27.3z"/>
				<path fill="#FFFFFF" d="M21.7,26.3c-1.1,0-1.3,0-2.7,0c0-0.7,0.6-1.3,1.3-1.3C21.1,25,21.7,25.6,21.7,26.3z"/>
			</g>
			<g>
				<path fill="#A30433" d="M21.3,28.2h6.5c0.5,0,0.9,0.5,0.8,1c-0.5,1.8-2.1,3.2-4.1,3.2s-3.6-1.4-4.1-3.2
					C20.3,28.7,20.7,28.2,21.3,28.2z"/>
				<g>
					<defs>
						<path id="SVGID_00000026868507196528189620000009242667963218541499_" d="M21.3,28.2h6.5c0.5,0,0.9,0.5,0.8,1
							c-0.5,1.8-2.1,3.2-4.1,3.2s-3.6-1.4-4.1-3.2C20.3,28.7,20.7,28.2,21.3,28.2z"/>
					</defs>
					<clipPath id="SVGID_00000103983431472865442260000005438341031626501822_">
						<use xlink:href="#SVGID_00000026868507196528189620000009242667963218541499_"  overflow="visible"/>
					</clipPath>
					<path clip-path="url(#SVGID_00000103983431472865442260000005438341031626501822_)" fill="#D12156" d="M20.8,30.1h2.6
						c1.7,0,3.1,1.4,3.1,3.1v0h-7.3v-1.4C19.2,30.9,19.9,30.1,20.8,30.1z"/>
					<path clip-path="url(#SVGID_00000103983431472865442260000005438341031626501822_)" fill="#FFFFFF" d="M26,29.4h-2.5
						c-0.9,0-1.6-0.7-1.6-1.6v-0.3h5.7v0.3C27.6,28.6,26.9,29.4,26,29.4z"/>
				</g>
			</g>
		</g>
	</g>
</g>
<g id="icons">
</g>
<g id="sport">
</g>
<g id="batman">
</g>
</svg>
