<svg id="Layer_5" data-name="Layer 5" xmlns="http://www.w3.org/2000/svg" xmlns:xlink="http://www.w3.org/1999/xlink" viewBox="0 0 50 50">
  <defs>
    <clipPath id="clippath">
      <path d="M22.27,28.22h6.53c.54,0,.95,.51,.81,1.03-.46,1.82-2.11,3.17-4.08,3.17s-3.62-1.35-4.08-3.17c-.13-.52,.27-1.03,.81-1.03Z" style="fill: none;"/>
    </clipPath>
  </defs>
  <rect width="50" height="50" style="fill: #19b0a8;"/>
  <path d="M17.87,37h7.34c-5.52,0-9.88,1.25-9.88-3.81v-11.46c0-5.06,4.48-9.17,10-9.17h0c5.52,0,10,4.11,10,9.17v11.46c0,5.06-11.94,3.81-17.46,3.81Z" style="fill: #3a2114;"/>
  <path d="M25.44,33.57h0c5.27,0,9.55,4.28,9.55,9.55v6.88H15.89v-6.88c0-5.27,4.28-9.55,9.55-9.55Z" style="fill: #6a4c99;"/>
  <circle cx="32.13" cy="27.65" r="2.87" style="fill: #ce6f41;"/>
  <circle cx="18.75" cy="27.65" r="2.87" style="fill: #ce6f41;"/>
  <path d="M24.68,30.13h1.89c2,0,3.63,1.63,3.63,3.63v2.87c0,2.53-2.05,4.58-4.58,4.58h0c-2.53,0-4.58-2.05-4.58-4.58v-2.87c0-2,1.63-3.63,3.63-3.63Z" style="fill: #c60f3d;"/>
  <rect x="22" y="31.28" width="7.26" height="8.79" rx="3.63" ry="3.63" style="fill: #ce6f41;"/>
  <path d="M25.99,36.05h-1.1c-4.02,0-7.28-3.26-7.28-7.28v-4.3s8.22,.31,9.17-4.47c2.22,3.31,6.5,2.84,6.5,3.89v4.88c0,4.02-3.26,7.28-7.28,7.28Z" style="fill: #dd8657;"/>
  <g>
    <g>
      <path d="M31.08,26.31h-2.67c0-.74,.6-1.34,1.34-1.34s1.34,.6,1.34,1.34Z" style="fill: #3a3a3a;"/>
      <path d="M26.49,27.26h-1.91c0-.53,.43-.96,.96-.96s.96,.43,.96,.96Z" style="fill: #ce6f41;"/>
      <path d="M22.67,26.31h-2.67c0-.74,.6-1.34,1.34-1.34s1.34,.6,1.34,1.34Z" style="fill: #3a3a3a;"/>
    </g>
    <g>
      <path d="M22.27,28.22h6.53c.54,0,.95,.51,.81,1.03-.46,1.82-2.11,3.17-4.08,3.17s-3.62-1.35-4.08-3.17c-.13-.52,.27-1.03,.81-1.03Z" style="fill: #a80433;"/>
      <g style="clip-path: url(#clippath);">
        <path d="M20.19,30.13h7.26v1.42c0,.9-.73,1.64-1.64,1.64h-2.57c-1.69,0-3.06-1.37-3.06-3.06h0Z" transform="translate(47.63 63.32) rotate(-180)" style="fill: #d62156;"/>
        <path d="M22.86,27.46h5.73v.27c0,.9-.73,1.64-1.64,1.64h-2.46c-.9,0-1.64-.73-1.64-1.64v-.27h0Z" style="fill: #fff;"/>
      </g>
    </g>
  </g>
</svg>