<svg width="34" height="33" viewBox="0 0 34 33" fill="none" xmlns="http://www.w3.org/2000/svg">
<path d="M17 32.5C25.8366 32.5 33 25.3366 33 16.5C33 7.66344 25.8366 0.5 17 0.5C8.16344 0.5 1 7.66344 1 16.5C1 25.3366 8.16344 32.5 17 32.5Z" stroke="#111111" stroke-miterlimit="10"/>
<path d="M17 0.870001V32.22" stroke="#111111" stroke-miterlimit="10"/>
<path d="M8.2 3.33C12.47 4.4 18.17 7.44 9.8 15.98C2.52 23.41 7.09 27.73 7.87 29.47" stroke="#111111" stroke-miterlimit="10"/>
<path d="M25.77 3.33C21.5 4.4 15.8 7.44 24.17 15.98C31.45 23.41 26.88 27.73 26.1 29.47" stroke="#111111" stroke-miterlimit="10"/>
<path d="M1.21 17.22C1.21 17.22 4.47 6.1 17 6.1C29.53 6.1 32.82 17.22 32.82 17.22" stroke="#111111" stroke-miterlimit="10"/>
</svg>
