<svg width="34" height="33" viewBox="0 0 34 33" fill="none" xmlns="http://www.w3.org/2000/svg">
<path d="M2.76998 10.78C2.83998 10.78 2.96998 10.8 3.07998 10.91L5.81998 13.65C5.92998 13.76 5.94998 13.89 5.94998 13.96C5.94998 14.03 5.92998 14.16 5.81998 14.27L5.46998 14.62C5.35998 14.73 5.22998 14.75 5.15998 14.75C5.08998 14.75 4.95998 14.73 4.84998 14.62L2.10998 11.88C1.99998 11.77 1.97998 11.64 1.97998 11.57C1.97998 11.5 1.99998 11.37 2.10998 11.26L2.45998 10.91C2.56998 10.8 2.69998 10.78 2.76998 10.78ZM2.76998 9.78001C2.39998 9.78001 2.02998 9.92001 1.74998 10.2L1.39998 10.55C0.83998 11.11 0.83998 12.02 1.39998 12.58L4.13998 15.32C4.41998 15.6 4.78998 15.74 5.15998 15.74C5.52998 15.74 5.89998 15.6 6.17998 15.32L6.52998 14.97C7.08998 14.41 7.08998 13.5 6.52998 12.94L3.78998 10.2C3.50998 9.92001 3.13998 9.78001 2.76998 9.78001Z" fill="#111111"/>
<path d="M12.16 10.73L31.63 28.16C31.63 28.16 31.66 28.23 31.66 28.26C31.66 28.29 31.66 28.33 31.62 28.37L29.36 30.63C29.36 30.63 29.28 30.67 29.25 30.67C29.22 30.67 29.18 30.67 29.16 30.64L11.13 11.76L12.15 10.74M12.11 9.36001L9.72998 11.74L28.43 31.33C28.65 31.55 28.95 31.67 29.24 31.67C29.53 31.67 29.83 31.56 30.05 31.33L32.31 29.07C32.76 28.62 32.76 27.89 32.31 27.44L12.11 9.36001V9.36001Z" fill="#111111"/>
<path d="M13.45 2.20001C13.85 2.20001 14.24 2.26001 14.61 2.39001C14.07 2.66001 13.49 3.05001 12.92 3.62001C11.53 5.01001 11.95 6.41001 12.19 7.25001C12.24 7.41001 12.3 7.63001 12.32 7.75001L8.52997 11.54C8.52997 11.54 8.44997 11.58 8.41997 11.58C8.38997 11.58 8.34997 11.58 8.30997 11.54L5.16997 8.40001C5.10997 8.34001 5.10997 8.25001 5.16997 8.19001L9.01997 4.34001C9.23997 4.12001 11.23 2.20001 13.45 2.20001M13.45 1.20001C10.83 1.20001 8.61997 3.33001 8.30997 3.64001L4.45997 7.49001C4.00997 7.94001 4.00997 8.67001 4.45997 9.12001L7.59997 12.26C7.81997 12.48 8.11998 12.6 8.40998 12.6C8.69998 12.6 8.99998 12.49 9.21998 12.26L13.07 8.41001C13.97 7.51001 11.94 6.01001 13.62 4.33001C15.01 2.94001 16.45 2.82001 16.91 2.82001C17.01 2.82001 17.06 2.82001 17.06 2.82001C15.86 1.62001 14.61 1.20001 13.44 1.20001H13.45Z" fill="#111111"/>
<path d="M4.04998 10.47L4.84998 9.67001" stroke="#111111" stroke-linecap="round" stroke-linejoin="round"/>
<path d="M6.52998 12.94L7.31998 12.15" stroke="#111111" stroke-linecap="round" stroke-linejoin="round"/>
<path d="M19.58 20.87L21.37 19.07" stroke="#111111" stroke-linecap="round" stroke-linejoin="round"/>
<path d="M21.25 22.55L23.05 20.75" stroke="#111111" stroke-linecap="round" stroke-linejoin="round"/>
<path d="M18.52 14.65L22.83 10.33" stroke="#111111" stroke-linecap="round" stroke-linejoin="round"/>
<path d="M11.01 22.15L15.33 17.84" stroke="#111111" stroke-linecap="round" stroke-linejoin="round"/>
<path d="M6.04998 25.19L7.78998 25.66L8.25998 27.4L6.98997 28.67L5.24998 28.2L4.77998 26.46L6.04998 25.19ZM5.74998 24.07L3.65998 26.16L4.42998 29.02L7.28998 29.79L9.37997 27.7L8.60998 24.84L5.74998 24.07Z" fill="#111111"/>
<path d="M12.5 17.33L8.13997 21.69C6.25997 21.11 4.11997 21.56 2.62997 23.05C0.479971 25.2 0.479971 28.68 2.62997 30.82C4.77997 32.96 8.25998 32.97 10.4 30.82C11.89 29.33 12.35 27.19 11.76 25.31L16.12 20.95" stroke="#111111" stroke-linecap="round" stroke-linejoin="round"/>
<path d="M17.78 12.05L22.14 7.69001C21.56 5.81001 22.01 3.67001 23.5 2.18001C24.99 0.690011 27.13 0.230011 29.01 0.820011C27.69 2.14001 25.26 4.57001 25.26 4.57001L25.09 6.40001L26.93 8.23001L29.19 8.11001C29.19 8.11001 31.05 6.37001 32.81 4.61001C33.39 6.49001 32.76 8.45001 31.27 9.95001C29.78 11.45 27.64 11.9 25.76 11.31L21.4 15.67" stroke="#111111" stroke-linecap="round" stroke-linejoin="round"/>
</svg>
