<svg id="eNIoc3jTHUV1" xmlns="http://www.w3.org/2000/svg" xmlns:xlink="http://www.w3.org/1999/xlink" viewBox="0 0 454 518" shape-rendering="geometricPrecision" text-rendering="geometricPrecision"><g><g><circle r="5" transform="translate(282 197)" fill="#293347"/><path d="M450,59L4,59v435c0,5.53,2.24,10.52,5.86,14.14s8.62,5.86,14.15,5.86h405.98c5.53,0,10.53-2.24,14.15-5.86s5.86-8.62,5.86-14.14v-435Z" fill="#111" fill-rule="evenodd" stroke="#111" stroke-width="8"/><path d="M429.99,4L24.01,4C18.48,4,13.48,6.24,9.86,9.86s-5.86,8.62-5.86,14.15v27h446L450,24c0-5.52-2.24-10.52-5.86-14.14s-8.62-5.86-14.15-5.86Z" fill="#fff" fill-rule="evenodd" stroke="#111" stroke-width="8"/><circle r="9" transform="translate(39 28)" fill="#111"/><circle r="9" transform="translate(69 28)" fill="#4f2e80"/><circle r="9" transform="translate(99 28)" fill="#009691"/></g></g><g mask="url(#eNIoc3jTHUV67)"><g id="eNIoc3jTHUV11"><path style="isolation:isolate" d="M56,343h10c2.21,0,4,1.79,4,4v0c0,2.21-1.79,4-4,4h-10c-2.21,0-4-1.79-4-4v0c0-2.21,1.79-4,4-4Z" opacity="0.54" fill="#535b6b" fill-rule="evenodd"/><path style="isolation:isolate" d="M56,143h10c2.21,0,4,1.79,4,4v0c0,2.21-1.79,4-4,4h-10c-2.21,0-4-1.79-4-4v0c0-2.21,1.79-4,4-4Z" opacity="0.54" fill="#535b6b" fill-rule="evenodd"/><path d="M86,143h27c2.21,0,4,1.79,4,4s-1.79,4-4,4h-27c-2.21,0-4-1.79-4-4s1.79-4,4-4Z" fill="#ff6e00" fill-rule="evenodd"/><path d="M131,143h27c2.21,0,4,1.79,4,4s-1.79,4-4,4h-27c-2.21,0-4-1.79-4-4s1.79-4,4-4Z" fill="#009691" fill-rule="evenodd"/><path d="M176,143h50c2.21,0,4,1.79,4,4s-1.79,4-4,4h-50c-2.21,0-4-1.79-4-4s1.79-4,4-4Z" fill="#4f2e80" fill-rule="evenodd"/><path d="M244,143h74c2.21,0,4,1.79,4,4s-1.79,4-4,4h-74c-2.21,0-4-1.79-4-4s1.79-4,4-4Z" fill="#4f2e80" fill-rule="evenodd"/><path style="isolation:isolate" d="M56,183h10c2.21,0,4,1.79,4,4v0c0,2.21-1.79,4-4,4h-10c-2.21,0-4-1.79-4-4v0c0-2.21,1.79-4,4-4Z" opacity="0.54" fill="#535b6b" fill-rule="evenodd"/><path style="isolation:isolate" d="M56,223h10c2.21,0,4,1.79,4,4v0c0,2.21-1.79,4-4,4h-10c-2.21,0-4-1.79-4-4v0c0-2.21,1.79-4,4-4Z" opacity="0.54" fill="#535b6b" fill-rule="evenodd"/><path style="isolation:isolate" d="M56,263h10c2.21,0,4,1.79,4,4v0c0,2.21-1.79,4-4,4h-10c-2.21,0-4-1.79-4-4v0c0-2.21,1.79-4,4-4Z" opacity="0.54" fill="#535b6b" fill-rule="evenodd"/><path style="isolation:isolate" d="M56,303h10c2.21,0,4,1.79,4,4v0c0,2.21-1.79,4-4,4h-10c-2.21,0-4-1.79-4-4v0c0-2.21,1.79-4,4-4Z" opacity="0.54" fill="#535b6b" fill-rule="evenodd"/><path style="isolation:isolate" d="M56,383h10c2.21,0,4,1.79,4,4v0c0,2.21-1.79,4-4,4h-10c-2.21,0-4-1.79-4-4v0c0-2.21,1.79-4,4-4Z" opacity="0.54" fill="#535b6b" fill-rule="evenodd"/><path style="isolation:isolate" d="M56,423h10c2.21,0,4,1.79,4,4v0c0,2.21-1.79,4-4,4h-10c-2.21,0-4-1.79-4-4v0c0-2.21,1.79-4,4-4Z" opacity="0.54" fill="#535b6b" fill-rule="evenodd"/><path d="M86,183h62c2.21,0,4,1.79,4,4v0c0,2.21-1.79,4-4,4h-62c-2.21,0-4-1.79-4-4v0c0-2.21,1.79-4,4-4Z" fill="#4f2e80" fill-rule="evenodd"/><path d="M166,183h112c2.21,0,4,1.79,4,4v0c0,2.21-1.79,4-4,4h-112c-2.21,0-4-1.79-4-4v0c0-2.21,1.79-4,4-4Z" fill="#009691" fill-rule="evenodd"/><path d="M296,183h42c2.21,0,4,1.79,4,4v0c0,2.21-1.79,4-4,4h-42c-2.21,0-4-1.79-4-4v0c0-2.21,1.79-4,4-4Z" fill="#ff6e00" fill-rule="evenodd"/><path d="M86,223h42c2.21,0,4,1.79,4,4v0c0,2.21-1.79,4-4,4h-42c-2.21,0-4-1.79-4-4v0c0-2.21,1.79-4,4-4Z" fill="#009691" fill-rule="evenodd"/><path d="M146,223h42c2.21,0,4,1.79,4,4v0c0,2.21-1.79,4-4,4h-42c-2.21,0-4-1.79-4-4v0c0-2.21,1.79-4,4-4Z" fill="#ff6e00" fill-rule="evenodd"/><path d="M206,223h22c2.21,0,4,1.79,4,4v0c0,2.21-1.79,4-4,4h-22c-2.21,0-4-1.79-4-4v0c0-2.21,1.79-4,4-4Z" fill="#4f2e80" fill-rule="evenodd"/><path d="M86,263h92c2.21,0,4,1.79,4,4v0c0,2.21-1.79,4-4,4h-92c-2.21,0-4-1.79-4-4v0c0-2.21,1.79-4,4-4Z" fill="#4f2e80" fill-rule="evenodd"/><path d="M196,263h62c2.21,0,4,1.79,4,4v0c0,2.21-1.79,4-4,4h-62c-2.21,0-4-1.79-4-4v0c0-2.21,1.79-4,4-4Z" fill="#ff6e00" fill-rule="evenodd"/><path d="M86,303h92c2.21,0,4,1.79,4,4v0c0,2.21-1.79,4-4,4h-92c-2.21,0-4-1.79-4-4v0c0-2.21,1.79-4,4-4Z" fill="#4f2e80" fill-rule="evenodd"/><path d="M196,303h122c2.21,0,4,1.79,4,4v0c0,2.21-1.79,4-4,4h-122c-2.21,0-4-1.79-4-4v0c0-2.21,1.79-4,4-4Z" fill="#009691" fill-rule="evenodd"/><path d="M86,343h62c2.21,0,4,1.79,4,4v0c0,2.21-1.79,4-4,4h-62c-2.21,0-4-1.79-4-4v0c0-2.21,1.79-4,4-4Z" fill="#ff6e00" fill-rule="evenodd"/><path d="M166,343h62c2.21,0,4,1.79,4,4v0c0,2.21-1.79,4-4,4h-62c-2.21,0-4-1.79-4-4v0c0-2.21,1.79-4,4-4Z" fill="#009691" fill-rule="evenodd"/><path d="M246,343h32c2.21,0,4,1.79,4,4v0c0,2.21-1.79,4-4,4h-32c-2.21,0-4-1.79-4-4v0c0-2.21,1.79-4,4-4Z" fill="#4f2e80" fill-rule="evenodd"/><path d="M86,383h122c2.21,0,4,1.79,4,4v0c0,2.21-1.79,4-4,4h-122c-2.21,0-4-1.79-4-4v0c0-2.21,1.79-4,4-4Z" fill="#4f2e80" fill-rule="evenodd"/><path d="M86,423h52c2.21,0,4,1.79,4,4v0c0,2.21-1.79,4-4,4h-52c-2.21,0-4-1.79-4-4v0c0-2.21,1.79-4,4-4Z" fill="#009691" fill-rule="evenodd"/></g><g id="eNIoc3jTHUV39" transform="translate(0 375)"><path style="isolation:isolate" d="M56,343h10c2.21,0,4,1.79,4,4v0c0,2.21-1.79,4-4,4h-10c-2.21,0-4-1.79-4-4v0c0-2.21,1.79-4,4-4Z" opacity="0.54" fill="#535b6b" fill-rule="evenodd"/><path style="isolation:isolate" d="M56,143h10c2.21,0,4,1.79,4,4v0c0,2.21-1.79,4-4,4h-10c-2.21,0-4-1.79-4-4v0c0-2.21,1.79-4,4-4Z" opacity="0.54" fill="#535b6b" fill-rule="evenodd"/><path d="M86,143h27c2.21,0,4,1.79,4,4s-1.79,4-4,4h-27c-2.21,0-4-1.79-4-4s1.79-4,4-4Z" fill="#ff6e00" fill-rule="evenodd"/><path d="M131,143h27c2.21,0,4,1.79,4,4s-1.79,4-4,4h-27c-2.21,0-4-1.79-4-4s1.79-4,4-4Z" fill="#009691" fill-rule="evenodd"/><path d="M176,143h50c2.21,0,4,1.79,4,4s-1.79,4-4,4h-50c-2.21,0-4-1.79-4-4s1.79-4,4-4Z" fill="#4f2e80" fill-rule="evenodd"/><path d="M244,143h74c2.21,0,4,1.79,4,4s-1.79,4-4,4h-74c-2.21,0-4-1.79-4-4s1.79-4,4-4Z" fill="#4f2e80" fill-rule="evenodd"/><path style="isolation:isolate" d="M56,183h10c2.21,0,4,1.79,4,4v0c0,2.21-1.79,4-4,4h-10c-2.21,0-4-1.79-4-4v0c0-2.21,1.79-4,4-4Z" opacity="0.54" fill="#535b6b" fill-rule="evenodd"/><path style="isolation:isolate" d="M56,223h10c2.21,0,4,1.79,4,4v0c0,2.21-1.79,4-4,4h-10c-2.21,0-4-1.79-4-4v0c0-2.21,1.79-4,4-4Z" opacity="0.54" fill="#535b6b" fill-rule="evenodd"/><path style="isolation:isolate" d="M56,263h10c2.21,0,4,1.79,4,4v0c0,2.21-1.79,4-4,4h-10c-2.21,0-4-1.79-4-4v0c0-2.21,1.79-4,4-4Z" opacity="0.54" fill="#535b6b" fill-rule="evenodd"/><path style="isolation:isolate" d="M56,303h10c2.21,0,4,1.79,4,4v0c0,2.21-1.79,4-4,4h-10c-2.21,0-4-1.79-4-4v0c0-2.21,1.79-4,4-4Z" opacity="0.54" fill="#535b6b" fill-rule="evenodd"/><path style="isolation:isolate" d="M56,383h10c2.21,0,4,1.79,4,4v0c0,2.21-1.79,4-4,4h-10c-2.21,0-4-1.79-4-4v0c0-2.21,1.79-4,4-4Z" opacity="0.54" fill="#535b6b" fill-rule="evenodd"/><path style="isolation:isolate" d="M56,423h10c2.21,0,4,1.79,4,4v0c0,2.21-1.79,4-4,4h-10c-2.21,0-4-1.79-4-4v0c0-2.21,1.79-4,4-4Z" opacity="0.54" fill="#535b6b" fill-rule="evenodd"/><path d="M86,183h62c2.21,0,4,1.79,4,4v0c0,2.21-1.79,4-4,4h-62c-2.21,0-4-1.79-4-4v0c0-2.21,1.79-4,4-4Z" fill="#4f2e80" fill-rule="evenodd"/><path d="M166,183h112c2.21,0,4,1.79,4,4v0c0,2.21-1.79,4-4,4h-112c-2.21,0-4-1.79-4-4v0c0-2.21,1.79-4,4-4Z" fill="#009691" fill-rule="evenodd"/><path d="M296,183h42c2.21,0,4,1.79,4,4v0c0,2.21-1.79,4-4,4h-42c-2.21,0-4-1.79-4-4v0c0-2.21,1.79-4,4-4Z" fill="#ff6e00" fill-rule="evenodd"/><path d="M86,223h42c2.21,0,4,1.79,4,4v0c0,2.21-1.79,4-4,4h-42c-2.21,0-4-1.79-4-4v0c0-2.21,1.79-4,4-4Z" fill="#009691" fill-rule="evenodd"/><path d="M146,223h42c2.21,0,4,1.79,4,4v0c0,2.21-1.79,4-4,4h-42c-2.21,0-4-1.79-4-4v0c0-2.21,1.79-4,4-4Z" fill="#ff6e00" fill-rule="evenodd"/><path d="M206,223h22c2.21,0,4,1.79,4,4v0c0,2.21-1.79,4-4,4h-22c-2.21,0-4-1.79-4-4v0c0-2.21,1.79-4,4-4Z" fill="#4f2e80" fill-rule="evenodd"/><path d="M86,263h92c2.21,0,4,1.79,4,4v0c0,2.21-1.79,4-4,4h-92c-2.21,0-4-1.79-4-4v0c0-2.21,1.79-4,4-4Z" fill="#4f2e80" fill-rule="evenodd"/><path d="M196,263h62c2.21,0,4,1.79,4,4v0c0,2.21-1.79,4-4,4h-62c-2.21,0-4-1.79-4-4v0c0-2.21,1.79-4,4-4Z" fill="#ff6e00" fill-rule="evenodd"/><path d="M86,303h92c2.21,0,4,1.79,4,4v0c0,2.21-1.79,4-4,4h-92c-2.21,0-4-1.79-4-4v0c0-2.21,1.79-4,4-4Z" fill="#4f2e80" fill-rule="evenodd"/><path d="M196,303h122c2.21,0,4,1.79,4,4v0c0,2.21-1.79,4-4,4h-122c-2.21,0-4-1.79-4-4v0c0-2.21,1.79-4,4-4Z" fill="#009691" fill-rule="evenodd"/><path d="M86,343h62c2.21,0,4,1.79,4,4v0c0,2.21-1.79,4-4,4h-62c-2.21,0-4-1.79-4-4v0c0-2.21,1.79-4,4-4Z" fill="#ff6e00" fill-rule="evenodd"/><path d="M166,343h62c2.21,0,4,1.79,4,4v0c0,2.21-1.79,4-4,4h-62c-2.21,0-4-1.79-4-4v0c0-2.21,1.79-4,4-4Z" fill="#009691" fill-rule="evenodd"/><path d="M246,343h32c2.21,0,4,1.79,4,4v0c0,2.21-1.79,4-4,4h-32c-2.21,0-4-1.79-4-4v0c0-2.21,1.79-4,4-4Z" fill="#4f2e80" fill-rule="evenodd"/><path d="M86,383h122c2.21,0,4,1.79,4,4v0c0,2.21-1.79,4-4,4h-122c-2.21,0-4-1.79-4-4v0c0-2.21,1.79-4,4-4Z" fill="#4f2e80" fill-rule="evenodd"/><path d="M86,423h52c2.21,0,4,1.79,4,4v0c0,2.21-1.79,4-4,4h-52c-2.21,0-4-1.79-4-4v0c0-2.21,1.79-4,4-4Z" fill="#009691" fill-rule="evenodd"/></g><mask id="eNIoc3jTHUV67" mask-type="luminance" x="-150%" y="-150%" height="400%" width="400%"><rect width="364.616981" height="461.313208" rx="0" ry="0" transform="translate(30.000001 56.686792)" fill="#d2dbed" stroke-width="0"/></mask></g>
</svg>
