<svg width="1256" height="170" viewBox="0 0 1256 170" fill="none" xmlns="http://www.w3.org/2000/svg">
<path d="M55.109 27.5933C52.8762 27.605 50.9357 28.1428 49.3108 28.9378C48.7147 27.757 48.1185 26.7048 48.0133 25.9332C47.8964 25.033 47.7561 24.4836 47.8964 23.408C48.0366 22.3325 48.6679 20.801 48.6562 20.6841C48.6445 20.5672 48.5159 20.0177 47.23 20.006C45.9442 19.9943 44.8336 20.2515 44.705 20.5905C44.5765 20.9296 44.331 21.7012 44.1673 22.4961C43.9452 23.6652 41.5955 27.8388 40.2512 30.025C39.8187 29.1716 39.4446 28.4234 39.3628 27.8271C39.2459 26.927 39.1056 26.3775 39.2459 25.3019C39.3862 24.2264 40.0174 22.6949 40.0057 22.578C39.994 22.4611 39.8654 21.9116 38.5796 21.8999C37.2937 21.8882 36.1831 22.1454 36.0546 22.4845C35.926 22.8235 35.7857 23.6185 35.5168 24.3901C35.248 25.1616 32.1268 32.1293 31.3085 33.9297C30.8876 34.8533 30.5253 35.5898 30.2681 36.0925C30.2681 36.0925 30.2564 36.1276 30.2213 36.186C29.9992 36.6186 29.8706 36.8524 29.8706 36.8524C29.8706 36.8524 29.8706 36.8524 29.8706 36.8641C29.6953 37.1798 29.5082 37.472 29.4147 37.472C29.3446 37.472 29.216 36.6303 29.4381 35.4846C29.9057 33.0646 31.0162 29.3002 31.0045 29.1716C31.0045 29.1014 31.215 28.4468 30.2798 28.1077C29.368 27.7687 29.0406 28.3298 28.9588 28.3298C28.877 28.3298 28.8185 28.5286 28.8185 28.5286C28.8185 28.5286 29.8356 24.2965 26.878 24.2965C25.031 24.2965 22.4826 26.319 21.2201 28.1428C20.4252 28.5754 18.7302 29.4989 16.9183 30.4926C16.2286 30.8784 15.5155 31.2642 14.8492 31.6266C14.8024 31.5799 14.7557 31.5214 14.7089 31.4747C11.1318 27.6518 4.51535 24.9512 4.7959 19.819C4.90111 17.9484 5.54405 13.0383 17.5028 7.07601C27.3456 2.22433 35.1778 3.56877 36.5338 6.54992C38.4744 10.8054 32.3372 18.7083 22.167 19.854C18.286 20.2866 16.252 18.7902 15.7376 18.229C15.1999 17.6445 15.118 17.6094 14.9193 17.7263C14.592 17.9017 14.8024 18.4278 14.9193 18.7317C15.2232 19.5267 16.4741 20.9296 18.5899 21.6193C20.4603 22.2273 25.0076 22.5663 30.5136 20.4386C36.6741 18.0536 41.4903 11.425 40.0759 5.87186C38.6614 0.236899 29.3095 -1.62193 20.4603 1.52289C15.1999 3.39341 9.49522 6.33949 5.39208 10.1741C0.517418 14.7335 -0.254112 18.6966 0.0615142 20.3567C1.19543 26.2489 9.31987 30.0835 12.5697 32.9243C12.406 33.0178 12.254 33.0997 12.1254 33.1698C10.5005 33.9765 4.30493 37.2148 2.76187 40.6402C1.00839 44.5216 3.04243 47.304 4.38676 47.6781C8.56003 48.8355 12.8502 46.7545 15.1531 43.3174C17.456 39.8803 17.1755 35.4145 16.1117 33.3686C16.1 33.3452 16.0883 33.3218 16.0649 33.2984C16.4857 33.0529 16.9183 32.7957 17.3391 32.5502C18.1691 32.0592 18.9874 31.6033 19.6888 31.2292C19.2913 32.3164 18.9991 33.6141 18.8588 35.4846C18.6834 37.6825 19.5836 40.535 20.7642 41.6573C21.2903 42.1483 21.9098 42.16 22.3073 42.16C23.6867 42.16 24.3063 41.0143 24.996 39.6582C25.8376 37.9981 26.5975 36.0691 26.5975 36.0691C26.5975 36.0691 25.6506 41.2832 28.2224 41.2832C29.1575 41.2832 30.1044 40.0674 30.5253 39.4478C30.5253 39.4595 30.5253 39.4595 30.5253 39.4595C30.5253 39.4595 30.5486 39.4244 30.5954 39.3426C30.6889 39.1906 30.7474 39.0971 30.7474 39.0971C30.7474 39.0971 30.7474 39.0854 30.7474 39.0737C31.1214 38.419 31.9631 36.9343 33.2139 34.4675C34.8271 31.2876 36.3819 27.3127 36.3819 27.3127C36.3819 27.3127 36.5221 28.2831 37.0014 29.8964C37.282 30.8434 37.8665 31.8838 38.3341 32.8892C37.96 33.4153 37.7262 33.7076 37.7262 33.7076C37.7262 33.7076 37.7262 33.7076 37.7379 33.7193C37.434 34.1168 37.1066 34.5493 36.7443 34.9702C35.4701 36.49 33.9504 38.2319 33.74 38.7346C33.4945 39.3309 33.5529 39.7634 34.0205 40.1142C34.3595 40.3713 34.9674 40.4064 35.587 40.3713C36.7326 40.2895 37.5392 40.0089 37.9366 39.8336C38.5562 39.6114 39.281 39.2724 39.959 38.7697C41.2098 37.8461 41.9696 36.5251 41.8995 34.7832C41.8644 33.8245 41.5488 32.8659 41.163 31.9657C41.2799 31.802 41.3851 31.6383 41.502 31.4747C43.4776 28.587 45.009 25.4188 45.009 25.4188C45.009 25.4188 45.1493 26.3892 45.6285 28.0025C45.8623 28.8209 46.3416 29.7094 46.7625 30.5745C44.9038 32.0826 43.7582 33.8362 43.349 34.9819C42.6126 37.1096 43.1854 38.0683 44.2725 38.2904C44.7635 38.3956 45.4649 38.1618 45.9792 37.9397C46.6339 37.7292 47.4054 37.3668 48.1419 36.829C49.3927 35.9055 50.5967 34.6195 50.5266 32.8776C50.4915 32.0826 50.2811 31.2993 49.9889 30.5394C51.567 29.8847 53.601 29.5223 56.1962 29.8263C61.7605 30.481 62.8594 33.9531 62.649 35.4145C62.4385 36.8758 61.2696 37.6708 60.8838 37.9163C60.498 38.1618 60.3694 38.2436 60.4045 38.419C60.4513 38.6762 60.6383 38.6645 60.9656 38.6177C61.4215 38.5359 63.8881 37.437 63.9933 34.7481C64.1686 31.311 60.8955 27.5583 55.109 27.5933ZM12.1839 42.0665C10.3369 44.0773 7.76512 44.8372 6.65459 44.1942C5.46222 43.5045 5.92982 40.535 8.19765 38.4073C9.57705 37.1096 11.3539 35.9055 12.5346 35.1689C12.8034 35.0053 13.2009 34.7715 13.6802 34.4792C13.762 34.4324 13.8088 34.409 13.8088 34.409C13.9023 34.3506 13.9958 34.2921 14.0893 34.2337C14.9193 37.2733 14.1244 39.9505 12.1839 42.0665ZM25.6272 32.9243C24.9843 34.4909 23.6399 38.5008 22.8216 38.2787C22.1203 38.0916 21.6877 35.052 22.6814 32.0475C23.184 30.5394 24.2478 28.739 24.8674 28.0376C25.8727 26.9153 26.9832 26.5412 27.2521 26.9971C27.5911 27.5933 26.0247 31.9423 25.6272 32.9243ZM36.7209 38.2319C36.452 38.3722 36.1948 38.4657 36.0779 38.3956C35.9961 38.3488 36.1948 38.1618 36.1948 38.1618C36.1948 38.1618 37.5859 36.6654 38.1353 35.9873C38.451 35.5898 38.825 35.1222 39.2225 34.5961C39.2225 34.6429 39.2225 34.7013 39.2225 34.7481C39.2225 36.5368 37.4924 37.7409 36.7209 38.2319ZM45.2778 36.2796C45.0791 36.1393 45.1142 35.6717 45.7805 34.2103C46.0377 33.6375 46.6456 32.6788 47.686 31.7552C47.8028 32.1293 47.8847 32.4918 47.873 32.8308C47.8613 35.0871 46.2481 35.9289 45.2778 36.2796Z" fill="#CD6799"/>
<path d="M136 40C136 35.5818 139.582 32 144 32H152V40C152 44.4183 148.418 48 144 48C139.582 48 136 44.4183 136 40Z" fill="#24CB71"/>
<path d="M152 0V16H160C164.418 16 168 12.4183 168 8.00001C168 3.58177 164.418 0 160 0H152Z" fill="#FF7237"/>
<path d="M159.933 32C164.351 32 167.933 28.4183 167.933 24C167.933 19.5817 164.351 16 159.933 16C155.515 16 151.933 19.5817 151.933 24C151.933 28.4183 155.515 32 159.933 32Z" fill="#00B6FF"/>
<path d="M136 8.00001C136 12.4183 139.582 16 144 16H152V0H144C139.582 0 136 3.58177 136 8.00001Z" fill="#FF3737"/>
<path d="M136 24C136 28.4183 139.582 32 144 32H152V16H144C139.582 16 136 19.5818 136 24Z" fill="#874FFF"/>
<path d="M260 18.6667C261.6 12.2222 265.6 9 272 9C281.6 9 282.8 16.25 287.6 17.4583C290.8 18.2639 293.6 17.0556 296 13.8333C294.4 20.2778 290.4 23.5 284 23.5C274.4 23.5 273.2 16.25 268.4 15.0417C265.2 14.2361 262.4 15.4444 260 18.6667ZM248 33.1667C249.6 26.7222 253.6 23.5 260 23.5C269.6 23.5 270.8 30.75 275.6 31.9583C278.8 32.7639 281.6 31.5556 284 28.3333C282.4 34.7778 278.4 38 272 38C262.4 38 261.2 30.75 256.4 29.5417C253.2 28.7361 250.4 29.9444 248 33.1667Z" fill="#44A8B3"/>
<path d="M411.312 0H372.688C370.099 0 368 2.09867 368 4.6875V43.3125C368 45.9013 370.099 48 372.688 48H411.312C413.901 48 416 45.9013 416 43.3125V4.6875C416 2.09867 413.901 0 411.312 0Z" fill="#3178C6"/>
<path fill-rule="evenodd" clip-rule="evenodd" d="M397.713 38.196V42.8892C398.476 43.2803 399.378 43.5736 400.42 43.7692C401.462 43.9647 402.56 44.0625 403.714 44.0625C404.839 44.0625 405.907 43.955 406.92 43.7398C407.932 43.5248 408.82 43.1703 409.583 42.6765C410.346 42.1828 410.95 41.5374 411.395 40.7406C411.84 39.9437 412.062 38.9587 412.062 37.7854C412.062 36.9347 411.935 36.1892 411.681 35.5488C411.427 34.9084 411.06 34.3388 410.581 33.8402C410.101 33.3415 409.527 32.8942 408.857 32.4982C408.187 32.1022 407.431 31.7282 406.59 31.3762C405.974 31.122 405.421 30.8752 404.932 30.6356C404.443 30.396 404.027 30.1516 403.685 29.9023C403.342 29.6529 403.078 29.3889 402.892 29.1103C402.707 28.8316 402.614 28.5163 402.614 28.1643C402.614 27.8417 402.697 27.5508 402.863 27.2917C403.029 27.0325 403.264 26.8102 403.567 26.6243C403.871 26.4386 404.242 26.2943 404.682 26.1917C405.123 26.089 405.612 26.0377 406.15 26.0377C406.541 26.0377 406.954 26.0671 407.389 26.1257C407.825 26.1844 408.262 26.2748 408.703 26.397C409.143 26.5192 409.571 26.6733 409.986 26.859C410.402 27.0448 410.786 27.2599 411.138 27.5044V23.1191C410.424 22.8454 409.644 22.6425 408.798 22.5105C407.952 22.3785 406.981 22.3125 405.885 22.3125C404.77 22.3125 403.714 22.4323 402.716 22.6718C401.719 22.9114 400.841 23.2853 400.083 23.7938C399.324 24.3023 398.725 24.95 398.285 25.7371C397.845 26.5241 397.625 27.4652 397.625 28.5603C397.625 29.9585 398.028 31.1513 398.835 32.1389C399.642 33.1264 400.868 33.9623 402.511 34.6468C403.156 34.9108 403.758 35.1698 404.316 35.4241C404.873 35.6783 405.355 35.9423 405.761 36.2161C406.167 36.4898 406.487 36.7881 406.722 37.1107C406.957 37.4333 407.074 37.8 407.074 38.2107C407.074 38.5138 407.001 38.7949 406.854 39.054C406.707 39.3131 406.485 39.5379 406.186 39.7286C405.888 39.9193 405.516 40.0684 405.071 40.1759C404.626 40.2835 404.105 40.3372 403.509 40.3372C402.491 40.3372 401.484 40.1588 400.486 39.8019C399.488 39.4451 398.564 38.9098 397.713 38.196ZM389.823 26.6327H395.844V22.7812H379.062V26.6327H385.054V43.7812H389.823V26.6327Z" fill="white"/>
<path d="M534.85 0H503.302V15.8179H518.825C519.378 15.8179 519.827 16.2665 519.827 16.8195V32.1283H535.852V1.0035C535.852 0.73752 535.747 0.482273 535.559 0.294028C535.371 0.105783 535.116 0 534.85 0Z" fill="#8E75FF"/>
<path opacity="0.405" d="M503.301 0V15.8179H488.501C488.298 15.8175 488.114 15.6944 488.037 15.5062C487.96 15.318 488.005 15.1019 488.149 14.959L503.301 0ZM520.68 47.1039C520.536 47.2454 520.322 47.2867 520.135 47.2088C519.949 47.1308 519.827 46.9487 519.827 46.7468V32.1283H535.852L520.68 47.102V47.1039Z" fill="#8E75FF"/>
<path opacity="0.405" d="M503.301 15.8179H519.327C519.602 15.8179 519.827 16.0413 519.827 16.3178V32.1283H504.304C503.751 32.1283 503.302 31.6799 503.302 31.1267V15.8179H503.301Z" fill="#8E75FF"/>
<mask id="mask0_46_12895" style="mask-type:alpha" maskUnits="userSpaceOnUse" x="608" y="0" width="48" height="48">
<path d="M632 48C645.255 48 656 37.2548 656 24C656 10.7452 645.255 0 632 0C618.745 0 608 10.7452 608 24C608 37.2548 618.745 48 632 48Z" fill="black"/>
</mask>
<g mask="url(#mask0_46_12895)">
<path d="M632 48C645.255 48 656 37.2548 656 24C656 10.7452 645.255 0 632 0C618.745 0 608 10.7452 608 24C608 37.2548 618.745 48 632 48Z" fill="black"/>
<path d="M647.869 42.0052L626.438 14.3999H622.4V33.5919H625.63V18.5022L645.333 43.9586C646.222 43.3636 647.069 42.7106 647.869 42.0052Z" fill="url(#paint0_linear_46_12895)"/>
</g>
<path d="M641.867 14.3999H638.667V33.5999H641.867V14.3999Z" fill="url(#paint1_linear_46_12895)"/>
<path d="M756.638 23.9554C756.638 21.3072 754.424 19.1602 751.692 19.1602C748.961 19.1602 746.747 21.3072 746.747 23.9554C746.747 26.6038 748.961 28.7507 751.692 28.7507C754.424 28.7507 756.638 26.6038 756.638 23.9554Z" fill="#53C1DE"/>
<path fill-rule="evenodd" clip-rule="evenodd" d="M767.755 15.053C768.799 10.9381 770.112 3.30735 765.484 0.720293C760.877 -1.85548 754.883 3.08018 751.718 6.04279C748.562 3.1097 742.399 -1.80486 737.775 0.79041C733.171 3.37482 734.591 10.879 735.658 15.0198C731.363 16.2026 724 18.7503 724 23.9555C724 29.146 731.355 31.9178 735.625 33.0995C734.554 37.2631 733.205 44.6601 737.815 47.2388C742.457 49.8336 748.6 45.036 751.795 42.041C754.98 45.021 760.917 49.85 765.524 47.2641C770.146 44.6701 768.942 37.1417 767.874 32.9769C772.013 31.7926 779.385 29.0812 779.385 23.9555C779.385 18.8003 771.982 16.2319 767.755 15.053ZM767.23 30.7698C766.529 28.6183 765.583 26.3304 764.425 23.9669C765.53 21.6593 766.44 19.4009 767.121 17.2632C770.22 18.1344 777.019 20.1255 777.019 23.9555C777.019 27.8215 770.495 29.8314 767.23 30.7698ZM764.338 45.2788C760.901 47.208 755.795 42.59 753.442 40.3955C755.003 38.7404 756.562 36.8164 758.085 34.6798C760.762 34.4496 763.292 34.073 765.586 33.5588C766.337 36.5047 767.791 43.3409 764.338 45.2788ZM738.997 45.2513C735.56 43.3292 737.131 36.7285 737.919 33.6615C740.188 34.1481 742.699 34.4982 745.383 34.7092C746.915 36.7998 748.52 38.7214 750.137 40.4044C748.139 42.2784 742.451 47.1821 738.997 45.2513ZM726.366 23.9555C726.366 20.0751 733.124 18.0984 736.294 17.2294C736.987 19.4151 737.896 21.7004 738.993 24.0114C737.882 26.3568 736.96 28.6783 736.26 30.8898C733.238 30.0509 726.366 27.8383 726.366 23.9555ZM738.961 2.77576C742.413 0.838447 747.769 5.55661 750.06 7.68024C748.451 9.35546 746.861 11.2626 745.342 13.3412C742.737 13.5753 740.244 13.9512 737.952 14.4548C737.092 11.1152 735.512 4.71099 738.961 2.77576ZM759.777 15.8346C761.544 16.0508 763.237 16.3385 764.827 16.6903C764.35 18.1735 763.755 19.7245 763.054 21.3144C762.039 19.4461 760.949 17.6153 759.777 15.8346ZM751.719 9.31957C752.81 10.4658 753.903 11.7458 754.978 13.1345C752.797 13.0344 750.613 13.034 748.432 13.133C749.508 11.7572 750.61 10.4791 751.719 9.31957ZM740.35 21.3127C739.661 19.7284 739.072 18.1706 738.591 16.6662C740.171 16.3233 741.856 16.0431 743.612 15.8304C742.437 17.6071 741.348 19.4372 740.35 21.3127ZM743.662 32.2444C741.848 32.0481 740.138 31.7821 738.558 31.4487C739.047 29.9178 739.649 28.3265 740.353 26.7079C741.365 28.603 742.47 30.4508 743.662 32.2444ZM751.784 38.7535C750.663 37.5803 749.544 36.2826 748.452 34.8869C750.645 34.9704 752.843 34.9706 755.036 34.8757C753.957 36.2969 752.868 37.5964 751.784 38.7535ZM763.077 26.6256C763.817 28.2617 764.441 29.8444 764.937 31.3493C763.331 31.7047 761.597 31.9909 759.771 32.2034C760.951 30.389 762.058 28.5297 763.077 26.6256ZM756.764 32.4814C753.409 32.7138 750.034 32.7113 746.678 32.5004C744.771 29.7997 743.073 26.9594 741.608 24.0107C743.066 21.0681 744.752 18.2334 746.649 15.5369C750.008 15.2908 753.387 15.29 756.745 15.5383C758.627 18.2346 760.309 21.062 761.801 23.978C760.327 26.9191 758.633 29.7596 756.764 32.4814ZM764.302 2.70757C767.755 4.63853 766.218 11.4965 765.464 14.4786C763.166 13.9645 760.671 13.582 758.058 13.3442C756.536 11.2431 754.96 9.33264 753.377 7.67906C755.698 5.50968 760.883 0.795487 764.302 2.70757Z" fill="#53C1DE"/>
<path fill-rule="evenodd" clip-rule="evenodd" d="M884.526 3.0083H894L870.079 44.2305L846 3.0083H855.689L870.079 27.8248L884.526 3.0083Z" fill="#41B883"/>
<path fill-rule="evenodd" clip-rule="evenodd" d="M875.573 3H884.583L870.066 27.8683L855.665 3H864.534L870.066 12.5739L875.573 3Z" fill="#35495E"/>
<path fill-rule="evenodd" clip-rule="evenodd" d="M968 3H985.819L968 46V3ZM997.958 3H1016V45.4475L997.958 3ZM992.093 19.442L1001.93 45.2275H995.842L991.647 37.062H984.965L992.093 19.442Z" fill="#CC2229"/>
<path d="M1136.09 21.8617L1115.14 0.90522C1113.93 -0.30174 1111.97 -0.30174 1110.77 0.90522L1106.41 5.25718L1111.93 10.7778C1113.22 10.3443 1114.69 10.6352 1115.71 11.6578C1116.74 12.687 1117.03 14.1707 1116.58 15.4577L1121.9 20.7783C1123.19 20.3349 1124.68 20.6218 1125.7 21.6515C1127.14 23.0878 1127.14 25.4157 1125.7 26.8529C1124.27 28.2903 1121.94 28.2903 1120.5 26.8529C1119.42 25.771 1119.15 24.1838 1119.7 22.8523L1114.74 17.8906L1114.74 30.9478C1115.1 31.1256 1115.43 31.3605 1115.71 31.6434C1117.15 33.0797 1117.15 35.4077 1115.71 36.8461C1114.27 38.2827 1111.95 38.2827 1110.51 36.8461C1109.07 35.4077 1109.07 33.0799 1110.51 31.6436C1110.85 31.2991 1111.26 31.0263 1111.71 30.8409V17.662C1111.26 17.4779 1110.85 17.2049 1110.51 16.8593C1109.42 15.7722 1109.16 14.1748 1109.72 12.8381L1104.28 7.39547L1089.91 21.7648C1088.7 22.9729 1088.7 24.9306 1089.91 26.1378L1110.86 47.0946C1112.07 48.3018 1114.03 48.3018 1115.24 47.0946L1136.09 26.2351C1137.3 25.0275 1137.3 23.0687 1136.09 21.8617Z" fill="#DE4C36"/>
<path d="M1255.93 33.94L1255.98 33.3079C1255.99 33.0566 1240.87 18.7063 1240.87 18.7063H1240.51C1240.51 18.7063 1255.84 34.8769 1255.93 33.94H1255.93Z" fill="url(#paint2_linear_46_12895)"/>
<path d="M1223.66 28.9619L1223.6 29.094L1223.53 29.2316C1223.05 30.237 1230.28 37.3067 1230.86 36.4479L1230.94 36.3319L1231.03 36.2007C1231.49 35.4945 1223.86 28.5046 1223.66 28.9638L1223.66 28.9619Z" fill="url(#paint3_linear_46_12895)"/>
<path d="M1233.88 38.9043C1233.86 38.9493 1233.71 39.1954 1233.58 39.3254C1233.55 39.3704 1240.64 46.3942 1240.64 46.3942H1241.27C1241.28 46.3942 1234.63 39.2012 1233.88 38.9043Z" fill="url(#paint4_linear_46_12895)"/>
<path d="M1255.99 33.1807C1255.66 40.5234 1249.58 46.3944 1242.16 46.3944H1241.16L1233.74 39.0928C1234.35 38.233 1234.92 37.3422 1235.42 36.4134H1242.16C1244.29 36.4134 1246.02 34.6812 1246.02 32.5504C1246.02 30.4206 1244.29 28.6875 1242.16 28.6875H1238.17C1238.48 27.0825 1238.64 25.4275 1238.64 23.7342C1238.64 22.0151 1238.47 20.3366 1238.16 18.7059H1240.64L1255.94 33.7889C1255.96 33.5865 1255.97 33.3837 1255.98 33.1807H1255.99ZM1212.03 1H1208V10.9811H1212.03C1219.06 10.9811 1224.78 16.7019 1224.78 23.7342C1224.78 25.5859 1224.38 27.4154 1223.6 29.0941L1230.94 36.3342C1233.44 32.6072 1234.77 28.2217 1234.76 23.7361C1234.76 11.1986 1224.56 1 1212.03 1Z" fill="url(#paint5_linear_46_12895)"/>
<path d="M1242.16 1H1225.85C1229.84 3.43144 1233.13 6.87913 1235.38 10.9811H1242.16C1244.29 10.9811 1246.02 12.7132 1246.02 14.844C1246.02 16.9748 1244.29 18.7064 1242.16 18.7064H1240.64L1255.94 33.7893C1255.98 33.3804 1256 32.9685 1256 32.5504C1256 29.1855 1254.79 26.099 1252.79 23.6967C1254.79 21.2954 1256 18.2084 1256 14.844C1256 7.21075 1249.79 1 1242.16 1Z" fill="url(#paint6_linear_46_12895)"/>
<path d="M1241.16 46.3945H1225.97C1229.03 44.5068 1231.67 42.0148 1233.74 39.0928L1241.16 46.3945ZM1230.94 36.3324L1223.6 29.0923C1221.57 33.4532 1217.15 36.4866 1212.03 36.4866H1208V46.4665H1212.03C1219.9 46.4665 1226.86 42.4361 1230.94 36.3303V36.3324Z" fill="url(#paint7_linear_46_12895)"/>
<path d="M8 120H56V168H8V120Z" fill="#34BDB2"/>
<path d="M39.5865 136.32C37.0522 134.85 34.8026 133.694 31.8596 133.745C30.1758 133.774 28.7302 134.689 28.4263 136.364C28.1433 137.922 29.5286 138.787 30.9697 139.317C33.3598 140.197 35.4405 141.127 37.7889 142.105C42.0581 143.884 44.2472 146.766 43.9884 150.463C43.6592 155.166 40.8283 158.54 36.3292 159.652C30.4503 161.106 24.7415 158.892 19.9181 155.801C21.1355 153.947 22.548 152.681 23.7581 150.837C26.5447 152.023 28.734 153.626 31.6492 153.876C33.7048 154.052 36.0339 153.954 36.4957 151.54C36.912 149.363 35.0171 148.195 33.1689 147.543C30.9686 146.767 28.7724 145.818 26.6147 144.937C22.626 143.308 21.003 140.121 21.2762 136.367C21.2762 134.166 23.1024 129.717 27.5801 128.333C34.4598 126.207 38.2503 128.384 43.2392 131.591C41.9141 133.343 40.8954 134.589 39.5865 136.32" fill="white"/>
<path d="M176 120H128V168H176V120Z" fill="#F7DF1E"/>
<path d="M160.244 157.5C161.211 159.079 162.469 160.239 164.693 160.239C166.562 160.239 167.756 159.305 167.756 158.015C167.756 156.468 166.529 155.92 164.472 155.02L163.345 154.537C160.09 153.15 157.928 151.413 157.928 147.74C157.928 144.357 160.505 141.782 164.533 141.782C167.401 141.782 169.463 142.78 170.949 145.394L167.436 147.649C166.663 146.262 165.829 145.716 164.533 145.716C163.212 145.716 162.375 146.554 162.375 147.649C162.375 149.002 163.213 149.55 165.148 150.388L166.276 150.871C170.108 152.514 172.272 154.19 172.272 157.957C172.272 162.018 169.082 164.242 164.798 164.242C160.609 164.242 157.902 162.246 156.578 159.63L160.244 157.5ZM144.31 157.891C145.019 159.148 145.663 160.211 147.213 160.211C148.695 160.211 149.63 159.631 149.63 157.377V142.04H154.14V157.438C154.14 162.108 151.402 164.234 147.405 164.234C143.793 164.234 141.702 162.365 140.638 160.114L144.31 157.891Z" fill="black"/>
<path d="M262.224 140.184C262.004 139.896 261.679 139.708 261.32 139.659C260.961 139.611 260.597 139.707 260.309 139.926C260.139 140.06 260.002 140.231 259.909 140.426L248.148 163.964C247.982 164.298 247.954 164.684 248.072 165.037C248.19 165.391 248.443 165.684 248.777 165.851C248.972 165.949 249.187 166 249.405 165.999H265.79C266.053 166.006 266.311 165.936 266.535 165.798C266.758 165.66 266.936 165.46 267.047 165.222C270.584 157.914 268.44 146.803 262.224 140.184Z" fill="url(#paint8_linear_46_12895)"/>
<path d="M270.868 118.764C267.937 123.277 266.228 128.476 265.91 133.849C265.592 139.223 266.676 144.587 269.055 149.415L276.955 165.222C277.072 165.455 277.251 165.652 277.473 165.789C277.695 165.927 277.951 165.999 278.212 165.999H294.594C294.779 166 294.962 165.964 295.133 165.893C295.303 165.823 295.459 165.719 295.589 165.588C295.72 165.458 295.823 165.303 295.894 165.132C295.964 164.961 296 164.778 296 164.593C296 164.375 295.95 164.16 295.854 163.964L273.26 118.757C273.153 118.531 272.983 118.339 272.772 118.205C272.56 118.071 272.315 118 272.064 118C271.814 118 271.568 118.071 271.357 118.205C271.145 118.339 270.976 118.531 270.868 118.757V118.764Z" fill="#2684FF"/>
<path d="M395 120C381.747 120 371 130.787 371 144.095C371 154.741 377.877 163.773 387.413 166.959C388.612 167.182 389.053 166.436 389.053 165.799C389.053 165.225 389.03 163.327 389.02 161.313C382.343 162.771 380.934 158.471 380.934 158.471C379.842 155.685 378.269 154.945 378.269 154.945C376.092 153.45 378.434 153.48 378.434 153.48C380.844 153.65 382.113 155.963 382.113 155.963C384.253 159.647 387.727 158.582 389.097 157.966C389.312 156.409 389.934 155.346 390.62 154.744C385.29 154.135 379.686 152.069 379.686 142.837C379.686 140.206 380.623 138.056 382.159 136.369C381.91 135.762 381.088 133.312 382.391 129.993C382.391 129.993 384.407 129.345 388.993 132.463C390.907 131.928 392.96 131.661 395 131.652C397.04 131.661 399.094 131.928 401.012 132.463C405.593 129.345 407.606 129.993 407.606 129.993C408.912 133.312 408.09 135.762 407.841 136.369C409.38 138.056 410.311 140.206 410.311 142.837C410.311 152.091 404.697 154.129 399.353 154.725C400.213 155.473 400.98 156.939 400.98 159.187C400.98 162.411 400.952 165.006 400.952 165.799C400.952 166.441 401.384 167.192 402.601 166.955C412.132 163.766 419 154.737 419 144.095C419 130.787 408.255 120 395 120Z" fill="#161614"/>
<path d="M379.989 154.324C379.936 154.443 379.748 154.479 379.577 154.397C379.403 154.319 379.305 154.155 379.362 154.035C379.414 153.912 379.602 153.878 379.775 153.96C379.95 154.039 380.049 154.204 379.989 154.324V154.324ZM381.169 155.381C381.055 155.488 380.831 155.438 380.679 155.27C380.522 155.102 380.493 154.878 380.609 154.769C380.727 154.663 380.944 154.713 381.101 154.881C381.258 155.051 381.289 155.274 381.169 155.382L381.169 155.381ZM381.979 156.734C381.832 156.837 381.592 156.741 381.443 156.527C381.296 156.312 381.296 156.055 381.446 155.952C381.595 155.849 381.832 155.942 381.983 156.155C382.129 156.373 382.129 156.63 381.979 156.735L381.979 156.734ZM383.349 158.302C383.217 158.447 382.937 158.408 382.732 158.209C382.522 158.015 382.464 157.739 382.596 157.594C382.729 157.448 383.011 157.489 383.217 157.686C383.426 157.88 383.489 158.158 383.349 158.302H383.349ZM385.119 158.831C385.061 159.019 384.791 159.105 384.519 159.025C384.248 158.942 384.07 158.721 384.125 158.531C384.182 158.341 384.453 158.251 384.726 158.337C384.998 158.419 385.176 158.639 385.119 158.831H385.119ZM387.134 159.055C387.141 159.254 386.91 159.419 386.625 159.422C386.338 159.428 386.105 159.268 386.102 159.072C386.102 158.871 386.328 158.708 386.615 158.703C386.9 158.698 387.134 158.857 387.134 159.055V159.055ZM389.113 158.979C389.147 159.173 388.949 159.372 388.665 159.425C388.387 159.476 388.129 159.356 388.093 159.164C388.059 158.965 388.261 158.766 388.539 158.715C388.823 158.665 389.077 158.782 389.113 158.979" fill="#161614"/>
<path d="M497.638 119L501.154 126.486H494.125L497.638 119ZM494.125 127.669H501.154V161.162H494.125V127.669ZM494.125 162.345H501.154V166.417H494.125V162.345ZM511.499 121.606L533.875 143.986L511.386 167L506.527 162.386L524.191 144.018L506.631 126.469L511.499 121.606Z" fill="url(#paint9_linear_46_12895)"/>
<path d="M613.82 164.216L610 121H652L648.18 164.193L630.965 169" fill="#E44D26"/>
<path d="M631 165.325V124.547H648.168L644.892 161.417" fill="#F16529"/>
<path d="M617.803 129.833H631V135.13H623.568L624.054 140.555H631V145.84H619.238L617.803 129.833ZM619.47 148.5H624.749L625.119 152.736L631 154.323V159.853L620.211 156.819" fill="#EBEBEB"/>
<path d="M644.151 129.833H630.977V135.13H643.665L644.151 129.833ZM643.19 140.555H630.977V145.852H637.459L636.846 152.736L630.977 154.323V159.83L641.743 156.819" fill="white"/>
<path d="M732.508 165.232L731.002 125.608C730.979 124.979 731.206 124.366 731.634 123.899C732.063 123.433 732.659 123.151 733.295 123.112L767.403 121.005C767.736 120.984 768.07 121.031 768.385 121.142C768.699 121.254 768.987 121.428 769.23 121.654C769.473 121.88 769.667 122.152 769.8 122.455C769.932 122.758 770 123.085 770 123.414V166.588C770 166.914 769.933 167.236 769.803 167.536C769.673 167.836 769.483 168.106 769.244 168.331C769.006 168.557 768.723 168.732 768.414 168.846C768.106 168.961 767.776 169.012 767.447 168.998L734.84 167.55C734.227 167.523 733.648 167.269 733.216 166.839C732.784 166.41 732.531 165.837 732.508 165.232Z" fill="#FF4785"/>
<path fill-rule="evenodd" clip-rule="evenodd" d="M764.721 121.17L760.028 121.458L759.799 126.899C759.797 126.967 759.813 127.035 759.848 127.094C759.882 127.153 759.933 127.201 759.994 127.233C760.055 127.264 760.124 127.278 760.193 127.273C760.262 127.267 760.327 127.243 760.382 127.202L762.52 125.598L764.328 127.005C764.382 127.047 764.448 127.074 764.517 127.081C764.587 127.088 764.656 127.075 764.718 127.044C764.781 127.013 764.832 126.965 764.868 126.905C764.903 126.846 764.921 126.778 764.918 126.71L764.721 121.17ZM761.068 139.386C760.21 140.046 753.806 140.495 753.806 139.557C753.942 135.974 752.319 135.818 751.416 135.818C750.561 135.818 749.118 136.072 749.118 137.992C749.118 139.948 751.226 141.052 753.702 142.348C757.217 144.189 761.476 146.418 761.476 152.025C761.476 157.401 757.054 160.367 751.418 160.367C745.6 160.367 740.515 158.042 741.088 149.98C741.314 149.034 748.712 149.26 748.712 149.98C748.619 153.306 749.387 154.286 751.326 154.286C752.815 154.286 753.49 153.474 753.49 152.111C753.49 150.045 751.294 148.826 748.765 147.424C745.342 145.526 741.314 143.291 741.314 138.162C741.314 133.046 744.876 129.633 751.236 129.633C757.596 129.633 761.068 132.993 761.068 139.386Z" fill="white"/>
<g clip-path="url(#clip0_46_12895)">
<path d="M884.825 152.958C882.923 154.877 880.262 155.961 877.38 155.965C874.496 155.971 871.833 154.894 869.931 152.981C869.001 152.048 868.319 150.979 867.896 149.835C867.482 148.712 867.324 147.511 867.43 146.321C867.532 145.16 867.878 144.031 868.45 143.011C869.007 142.014 869.771 141.114 870.714 140.352C872.563 138.862 874.915 138.057 877.38 138.053C879.844 138.049 882.195 138.85 884.045 140.333C884.986 141.093 885.751 141.989 886.305 142.985C886.877 144.005 887.226 145.131 887.328 146.293C887.433 147.484 887.274 148.683 886.86 149.808C886.436 150.95 885.753 152.022 884.825 152.958Z" fill="white"/>
<path d="M871.23 146.443C871.317 144.892 872.087 143.523 873.246 142.554C874.384 141.601 875.916 141.02 877.586 141.02C879.257 141.022 880.787 141.603 881.925 142.554C883.084 143.525 883.854 144.892 883.943 146.443C884.032 148.038 883.383 149.521 882.245 150.619C881.086 151.736 879.434 152.438 877.586 152.438C875.737 152.438 874.084 151.736 872.925 150.619C871.789 149.521 871.142 148.038 871.23 146.443Z" fill="#005385"/>
<path d="M861.105 149.583C861.117 150.189 861.313 151.369 861.606 152.292C862.224 154.243 863.271 156.049 864.73 157.64C866.228 159.275 868.069 160.588 870.198 161.519C872.437 162.499 874.861 163 877.378 162.994C879.894 162.99 882.318 162.482 884.555 161.494C886.683 160.552 888.523 159.235 890.019 157.596C891.477 155.998 892.522 154.189 893.14 152.239C893.448 151.266 893.646 150.263 893.727 149.248C893.804 148.259 893.772 147.261 893.631 146.277C893.354 144.347 892.678 142.537 891.638 140.887C890.685 139.372 889.461 138.043 888.003 136.924L888.005 136.922L873.3 125.761C873.288 125.752 873.275 125.74 873.263 125.731C872.295 125 870.674 125.002 869.613 125.737C868.539 126.479 868.417 127.706 869.37 128.481L869.367 128.483L875.501 133.416L856.8 133.436H856.775C855.231 133.437 853.745 134.44 853.45 135.706C853.15 136.997 854.199 138.066 855.807 138.074L855.805 138.08L865.283 138.061L848.369 150.895C848.348 150.912 848.325 150.927 848.306 150.942C846.712 152.149 846.196 154.159 847.199 155.43C848.219 156.723 850.387 156.725 852 155.436L861.23 147.969C861.23 147.969 861.096 148.978 861.105 149.583ZM884.825 152.958C882.923 154.877 880.262 155.961 877.38 155.965C874.496 155.971 871.833 154.894 869.931 152.981C869.001 152.048 868.319 150.978 867.896 149.835C867.482 148.712 867.324 147.511 867.43 146.321C867.532 145.16 867.878 144.031 868.45 143.011C869.007 142.014 869.771 141.114 870.714 140.352C872.563 138.862 874.915 138.057 877.38 138.053C879.844 138.049 882.195 138.85 884.045 140.333C884.986 141.093 885.751 141.989 886.305 142.985C886.877 144.005 887.226 145.131 887.328 146.293C887.433 147.484 887.274 148.683 886.86 149.808C886.436 150.95 885.753 152.022 884.825 152.958Z" fill="#FF7021"/>
</g>
<path fill-rule="evenodd" clip-rule="evenodd" d="M967.616 120.605C967.758 120.469 967.963 120.418 968.153 120.473L1016.15 134.157C1016.34 134.211 1016.49 134.362 1016.54 134.552C1016.59 134.743 1016.53 134.944 1016.38 135.08L980.358 169.395C980.215 169.531 980.01 169.582 979.82 169.527C979.63 169.473 979.483 169.322 979.436 169.132L967.462 121.132C967.415 120.941 967.473 120.74 967.616 120.605ZM968.768 121.79L980.282 167.945L1014.92 134.948L968.768 121.79Z" fill="black"/>
<path fill-rule="evenodd" clip-rule="evenodd" d="M992.145 127.316C992.335 127.371 992.482 127.522 992.529 127.712L998.512 151.719C998.559 151.91 998.501 152.11 998.358 152.246C998.215 152.382 998.01 152.432 997.82 152.378L973.834 145.534C973.643 145.479 973.497 145.329 973.449 145.138C973.402 144.948 973.46 144.747 973.603 144.611L991.607 127.448C991.749 127.312 991.955 127.262 992.145 127.316ZM975.063 144.742L997.206 151.061L991.683 128.899L975.063 144.742Z" fill="black"/>
<path fill-rule="evenodd" clip-rule="evenodd" d="M982.683 135.941C982.826 135.805 983.031 135.755 983.221 135.809L995.138 139.196C995.328 139.251 995.475 139.401 995.523 139.591C995.57 139.782 995.512 139.983 995.369 140.119L986.424 148.657C986.281 148.794 986.076 148.844 985.886 148.79C985.695 148.735 985.549 148.584 985.501 148.394L982.53 136.468C982.482 136.278 982.541 136.077 982.683 135.941ZM983.835 137.125L986.347 147.206L993.909 139.989L983.835 137.125Z" fill="black"/>
<path fill-rule="evenodd" clip-rule="evenodd" d="M980.249 123.898C980.439 123.952 980.586 124.103 980.633 124.294L983.605 136.219C983.652 136.41 983.594 136.61 983.451 136.746C983.309 136.882 983.104 136.932 982.914 136.878L970.997 133.491C970.806 133.437 970.66 133.286 970.612 133.096C970.564 132.906 970.622 132.704 970.765 132.568L979.711 124.03C979.853 123.894 980.058 123.843 980.249 123.898ZM972.226 132.698L982.299 135.562L979.787 125.481L972.226 132.698Z" fill="black"/>
<path fill-rule="evenodd" clip-rule="evenodd" d="M1004.08 130.696C1004.27 130.75 1004.42 130.901 1004.47 131.092L1007.44 143.018C1007.49 143.208 1007.43 143.409 1007.28 143.545C1007.14 143.68 1006.94 143.731 1006.75 143.677L994.83 140.289C994.639 140.235 994.493 140.085 994.445 139.894C994.397 139.704 994.455 139.503 994.598 139.367L1003.54 130.828C1003.69 130.692 1003.89 130.642 1004.08 130.696ZM996.059 139.497L1006.13 142.36L1003.62 132.279L996.059 139.497Z" fill="black"/>
<path fill-rule="evenodd" clip-rule="evenodd" d="M986.194 147.743C986.385 147.798 986.531 147.949 986.579 148.139L989.55 160.065C989.598 160.255 989.539 160.456 989.397 160.592C989.254 160.728 989.049 160.778 988.859 160.724L976.942 157.337C976.752 157.282 976.605 157.132 976.557 156.942C976.51 156.751 976.568 156.55 976.711 156.414L985.656 147.876C985.799 147.739 986.004 147.689 986.194 147.743ZM978.171 156.544L988.245 159.408L985.733 149.327L978.171 156.544Z" fill="black"/>
<path d="M1130.31 143.633C1130.31 141.166 1128.33 139.166 1125.89 139.166C1125.73 139.166 1125.58 139.174 1125.42 139.19L1131.49 121.091H1105.69L1111.76 139.175C1111.67 139.169 1111.58 139.166 1111.49 139.166C1109.05 139.166 1107.07 141.166 1107.07 143.633C1107.07 145.628 1108.36 147.317 1110.15 147.891C1109.2 149.541 1108.02 151.028 1106.67 152.312C1104.84 154.059 1102.74 155.383 1100.48 156.199C1097.78 154.797 1096.5 151.681 1097.65 148.948C1097.78 148.639 1097.91 148.327 1098.04 148.015C1100 147.554 1101.45 145.782 1101.45 143.665C1101.45 141.198 1099.47 139.198 1097.03 139.198C1094.59 139.198 1092.61 141.198 1092.61 143.665C1092.61 145.179 1093.36 146.515 1094.5 147.323C1093.4 149.841 1091.79 152.476 1091.29 155.53C1090.69 159.19 1091.29 163.075 1094.42 165.269C1101.72 170.379 1109.63 162.102 1117.98 160.021C1121.01 159.267 1124.33 159.388 1126.99 157.828C1129 156.656 1130.32 154.714 1130.69 152.534C1131.06 150.38 1130.52 148.236 1129.28 146.497C1129.95 145.695 1130.31 144.68 1130.31 143.633" fill="#99425B"/>
<path d="M1129.63 152.347C1129.3 154.24 1128.14 155.893 1126.45 156.884C1124.88 157.807 1122.99 158.082 1120.99 158.374C1119.91 158.53 1118.81 158.692 1117.72 158.961C1114.86 159.675 1112.09 161.067 1109.41 162.413C1104.04 165.107 1099.41 167.433 1095.04 164.372C1091.84 162.13 1091.99 157.982 1092.36 155.709C1092.7 153.602 1093.64 151.663 1094.54 149.787C1094.7 149.468 1094.85 149.149 1095 148.829C1095.45 149.013 1095.93 149.134 1096.42 149.189C1095.5 152.257 1096.95 155.593 1099.98 157.169L1100.4 157.385L1100.84 157.226C1103.24 156.363 1105.45 154.976 1107.41 153.106C1108.68 151.897 1109.77 150.559 1110.66 149.13C1110.94 149.171 1111.21 149.192 1111.49 149.192C1114.27 149.192 1116.58 147.087 1116.94 144.368C1118.08 144.326 1119.29 144.325 1120.44 144.368C1120.79 147.087 1123.1 149.192 1125.89 149.192C1127.05 149.192 1128.13 148.823 1129.02 148.197C1129.64 149.475 1129.87 150.914 1129.63 152.347V152.347ZM1097.03 140.289C1098.88 140.289 1100.37 141.804 1100.37 143.665C1100.37 144.334 1100.18 144.958 1099.85 145.483C1099.29 146.358 1098.35 146.958 1097.26 147.033C1097.19 147.038 1097.11 147.042 1097.03 147.042C1096.62 147.042 1096.23 146.966 1095.87 146.829C1095.13 146.551 1094.52 146.023 1094.13 145.336C1093.84 144.828 1093.69 144.252 1093.69 143.665C1093.69 141.804 1095.19 140.289 1097.03 140.289V140.289ZM1108.15 143.633C1108.15 141.942 1109.38 140.537 1110.99 140.294C1111.15 140.269 1111.32 140.257 1111.49 140.257C1112.56 140.257 1113.51 140.769 1114.12 141.564C1114.28 141.762 1114.41 141.977 1114.51 142.204C1114.72 142.651 1114.83 143.139 1114.83 143.633C1114.83 143.903 1114.8 144.166 1114.74 144.417C1114.41 145.795 1113.25 146.848 1111.82 146.993C1111.71 147.004 1111.6 147.01 1111.49 147.01C1110.85 147.01 1110.22 146.823 1109.68 146.469C1108.76 145.867 1108.15 144.821 1108.15 143.633V143.633ZM1122.09 139.618C1121.36 140.319 1120.84 141.208 1120.58 142.189C1119.32 142.142 1118.06 142.142 1116.8 142.189C1116.52 141.129 1115.93 140.194 1115.14 139.484L1118.6 132.419L1122.09 139.618ZM1107.2 122.183H1129.99L1124.61 138.228C1124.37 138.284 1124.15 138.355 1123.92 138.442L1118.61 127.478L1113.27 138.376C1113.04 138.295 1112.8 138.231 1112.56 138.182L1107.2 122.183ZM1129.23 143.633C1129.23 143.972 1129.18 144.299 1129.09 144.607C1128.87 145.334 1128.41 145.966 1127.8 146.401C1127.24 146.798 1126.57 147.011 1125.89 147.01C1124.34 147.01 1123.04 145.948 1122.66 144.509C1122.59 144.223 1122.55 143.929 1122.55 143.633C1122.55 143.172 1122.64 142.732 1122.81 142.331C1122.89 142.126 1123 141.929 1123.12 141.745C1123.72 140.848 1124.74 140.257 1125.89 140.257C1125.99 140.257 1126.1 140.262 1126.2 140.272C1127.9 140.432 1129.23 141.878 1129.23 143.633H1129.23ZM1131.39 143.633C1131.39 140.919 1129.45 138.655 1126.9 138.171L1133 120H1104.19L1110.29 138.208C1107.83 138.761 1105.99 140.983 1105.99 143.633C1105.99 145.624 1107.03 147.371 1108.59 148.354C1107.84 149.483 1106.95 150.546 1105.93 151.519C1104.31 153.06 1102.51 154.229 1100.57 154.998C1098.61 153.756 1097.79 151.415 1098.65 149.375L1098.71 149.215L1098.84 148.915C1100.99 148.158 1102.53 146.091 1102.53 143.665C1102.53 140.6 1100.07 138.106 1097.03 138.106C1094 138.106 1091.53 140.6 1091.53 143.665C1091.53 145.213 1092.16 146.614 1093.18 147.623C1092.99 148.027 1092.79 148.43 1092.6 148.832C1091.67 150.754 1090.62 152.932 1090.23 155.351C1089.44 160.156 1090.71 163.997 1093.81 166.166C1095.69 167.482 1097.6 168 1099.52 168C1103.13 168 1106.79 166.164 1110.37 164.367C1112.94 163.074 1115.61 161.736 1118.24 161.08C1119.22 160.836 1120.23 160.689 1121.29 160.534C1123.41 160.225 1125.6 159.906 1127.53 158.772C1129.78 157.457 1131.32 155.251 1131.75 152.721C1132.13 150.548 1131.68 148.372 1130.58 146.526C1131.11 145.656 1131.39 144.654 1131.39 143.633V143.633Z" fill="white"/>
<path d="M1209.85 150.359C1209.29 148.298 1209 146.157 1209 144.001C1209 134.159 1215.12 125.16 1224.24 121.611L1225.43 124.733C1217.59 127.789 1212.32 135.531 1212.32 144.001C1212.32 145.859 1212.56 147.699 1213.04 149.472L1209.85 150.359Z" fill="#69D3A7"/>
<path d="M1251.06 134.493C1247.51 127.619 1240.53 123.348 1232.84 123.348C1230.11 123.348 1227.47 123.878 1224.97 124.918L1223.7 121.827C1226.6 120.617 1229.67 120 1232.84 120C1241.77 120 1249.88 124.96 1254 132.946L1251.06 134.493Z" fill="url(#paint10_linear_46_12895)"/>
<path d="M1225.72 139.05C1227.64 139.05 1229.21 140.085 1230.02 141.892L1230.08 142.033L1233.31 140.925L1233.24 140.758C1231.99 137.682 1229.11 135.771 1225.72 135.771C1223.34 135.771 1221.4 136.542 1219.8 138.124C1218.21 139.697 1217.4 141.676 1217.4 144.007C1217.4 146.317 1218.21 148.285 1219.8 149.858C1221.4 151.441 1223.34 152.212 1225.72 152.212C1229.11 152.212 1231.99 150.3 1233.24 147.226L1233.31 147.059L1230.08 145.949L1230.01 146.096C1229.29 147.871 1227.69 148.933 1225.72 148.933C1224.38 148.933 1223.25 148.46 1222.35 147.53C1221.44 146.587 1220.99 145.402 1220.99 144.009C1220.99 142.606 1221.43 141.445 1222.35 140.458C1223.25 139.522 1224.38 139.05 1225.72 139.05Z" fill="#1B1E2E"/>
<path d="M1245.96 136.074L1241.35 147.835L1236.72 136.074H1232.93L1239.43 152.127L1234.8 163.449L1238.12 164.115L1249.54 136.074H1245.96Z" fill="#1B1E2E"/>
<path d="M1235.4 161.989L1234.59 163.963C1234.43 164.354 1234.06 164.618 1233.65 164.636C1233.38 164.647 1233.1 164.654 1232.82 164.654C1223.31 164.649 1214.9 157.883 1212.82 148.56L1209.58 149.298C1210.75 154.527 1213.69 159.273 1217.85 162.665C1222.06 166.096 1227.36 167.99 1232.79 168C1232.79 168 1232.83 168 1232.83 168C1233.15 168 1233.47 167.992 1233.79 167.98C1235.49 167.908 1237.01 166.831 1237.66 165.235L1238.71 162.655L1235.4 161.989Z" fill="url(#paint11_linear_46_12895)"/>
<defs>
<linearGradient id="paint0_linear_46_12895" x1="637.067" y1="31.0666" x2="646.533" y2="42.7999" gradientUnits="userSpaceOnUse">
<stop stop-color="white"/>
<stop offset="1" stop-color="white" stop-opacity="0"/>
</linearGradient>
<linearGradient id="paint1_linear_46_12895" x1="640.267" y1="14.3999" x2="640.213" y2="28.4999" gradientUnits="userSpaceOnUse">
<stop stop-color="white"/>
<stop offset="1" stop-color="white" stop-opacity="0"/>
</linearGradient>
<linearGradient id="paint2_linear_46_12895" x1="2866.78" y1="306.082" x2="5213.46" y2="2809.3" gradientUnits="userSpaceOnUse">
<stop stop-color="#F9A03C"/>
<stop offset="1" stop-color="#F7974E"/>
</linearGradient>
<linearGradient id="paint3_linear_46_12895" x1="1061.82" y1="395.31" x2="2148.14" y2="1455.07" gradientUnits="userSpaceOnUse">
<stop stop-color="#F9A03C"/>
<stop offset="1" stop-color="#F7974E"/>
</linearGradient>
<linearGradient id="paint4_linear_46_12895" x1="1578.24" y1="768.951" x2="2549.99" y2="1883.06" gradientUnits="userSpaceOnUse">
<stop stop-color="#F9A03C"/>
<stop offset="1" stop-color="#F7974E"/>
</linearGradient>
<linearGradient id="paint5_linear_46_12895" x1="2600.04" y1="-199.189" x2="10752.3" y2="10562" gradientUnits="userSpaceOnUse">
<stop stop-color="#F26D58"/>
<stop offset="1" stop-color="#F9A03C"/>
</linearGradient>
<linearGradient id="paint6_linear_46_12895" x1="4863.05" y1="222.131" x2="10194.8" y2="3725.34" gradientUnits="userSpaceOnUse">
<stop stop-color="#B84E51"/>
<stop offset="1" stop-color="#F68E48"/>
</linearGradient>
<linearGradient id="paint7_linear_46_12895" x1="3961.6" y1="3009.09" x2="4040.73" y2="5011.71" gradientUnits="userSpaceOnUse">
<stop stop-color="#F9A03C"/>
<stop offset="1" stop-color="#F7974E"/>
</linearGradient>
<linearGradient id="paint8_linear_46_12895" x1="268.698" y1="143.782" x2="256.271" y2="165.296" gradientUnits="userSpaceOnUse">
<stop stop-color="#0052CC"/>
<stop offset="0.92" stop-color="#2684FF"/>
</linearGradient>
<linearGradient id="paint9_linear_46_12895" x1="500.341" y1="167" x2="535.071" y2="125.151" gradientUnits="userSpaceOnUse">
<stop stop-color="#EC407A"/>
<stop offset="1" stop-color="#FFA000"/>
</linearGradient>
<linearGradient id="paint10_linear_46_12895" x1="1230.36" y1="118.451" x2="1248.63" y2="137.802" gradientUnits="userSpaceOnUse">
<stop offset="0.0939" stop-color="#58D09E"/>
<stop offset="0.9883" stop-color="#58D09E" stop-opacity="0"/>
</linearGradient>
<linearGradient id="paint11_linear_46_12895" x1="1208.75" y1="154.922" x2="1243.36" y2="164.049" gradientUnits="userSpaceOnUse">
<stop offset="0.0774" stop-color="#58D09E"/>
<stop offset="0.7617" stop-color="#1B1E2E"/>
</linearGradient>
<clipPath id="clip0_46_12895">
<rect width="48" height="38" fill="white" transform="translate(846 125)"/>
</clipPath>
</defs>
</svg>
