<svg width="1440" height="36" viewBox="0 0 1440 36" fill="none" xmlns="http://www.w3.org/2000/svg">
<rect width="1440" height="36" fill="#469400"/>
<path d="M14.35 22.6181L7.35956 22.6443C7.35956 22.6443 7.27973 22.4711 7.21251 22.385C9.81566 19.7569 12.4188 17.1288 15.0324 14.4786C15.0093 14.4136 14.9642 14.338 14.9515 14.2508L7.09808 14.2719C7.40665 13.8509 7.54412 13.6188 7.73726 13.4403C11.24 9.88826 14.7542 6.36871 18.279 2.82712C18.6432 2.45963 18.9003 2.20345 19.4128 2.71779C22.9783 6.3077 26.5868 9.864 30.1627 13.4319C30.3076 13.582 30.42 13.7436 30.7005 14.1205L22.869 14.1521C22.869 14.1521 22.8072 14.3389 22.7872 14.4376C25.3938 17.0303 28.0119 19.6556 30.6185 22.2483L30.5031 22.4908C28.166 22.5142 25.8394 22.5156 23.4802 22.5286C23.4382 22.6168 23.3857 22.727 23.3437 22.8152C27.4542 26.9079 31.5647 31.0006 35.8306 35.2214C24.504 35.266 13.4062 35.2844 2.07959 35.3291C6.28976 31.0861 10.3603 26.966 14.4529 22.8564C14.4403 22.7692 14.4056 22.6716 14.393 22.5845L14.35 22.6181Z" fill="black"/>
<path d="M156.942 22.6181L149.952 22.6443C149.952 22.6443 149.872 22.4711 149.805 22.385C152.408 19.7569 155.011 17.1288 157.625 14.4786C157.602 14.4136 157.557 14.338 157.544 14.2508L149.691 14.2719C149.999 13.8509 150.137 13.6188 150.33 13.4403C153.832 9.88826 157.347 6.36871 160.871 2.82712C161.236 2.45963 161.493 2.20345 162.005 2.71779C165.571 6.3077 169.179 9.864 172.755 13.4319C172.9 13.582 173.012 13.7436 173.293 14.1205L165.461 14.1521C165.461 14.1521 165.4 14.3389 165.38 14.4376C167.986 17.0303 170.604 19.6556 173.211 22.2483L173.096 22.4908C170.758 22.5142 168.432 22.5156 166.073 22.5286C166.031 22.6168 165.978 22.727 165.936 22.8152C170.047 26.9079 174.157 31.0006 178.423 35.2214C167.096 35.266 155.999 35.2844 144.672 35.3291C148.882 31.0861 152.953 26.966 157.045 22.8564C157.033 22.7692 156.998 22.6716 156.985 22.5845L156.942 22.6181Z" fill="black"/>
<path d="M85.6462 22.6181L78.6558 22.6443C78.6558 22.6443 78.576 22.4711 78.5087 22.385C81.1119 19.7569 83.715 17.1288 86.3287 14.4786C86.3056 14.4136 86.2604 14.338 86.2478 14.2508L78.3943 14.2719C78.7029 13.8509 78.8403 13.6188 79.0335 13.4403C82.5362 9.88826 86.0504 6.36871 89.5752 2.82712C89.9394 2.45963 90.1966 2.20345 90.7091 2.71779C94.2745 6.3077 97.883 9.864 101.459 13.4319C101.604 13.582 101.716 13.7436 101.997 14.1205L94.1653 14.1521C94.1653 14.1521 94.1034 14.3389 94.0835 14.4376C96.6901 17.0303 99.3082 19.6556 101.915 22.2483L101.799 22.4908C99.4622 22.5142 97.1356 22.5156 94.7764 22.5286C94.7344 22.6168 94.6819 22.727 94.64 22.8152C98.7505 26.9079 102.861 31.0006 107.127 35.2214C95.8002 35.266 84.7025 35.2844 73.3758 35.3291C77.586 31.0861 81.6566 26.966 85.7492 22.8564C85.7365 22.7692 85.7019 22.6716 85.6892 22.5845L85.6462 22.6181Z" fill="black"/>
<path d="M228.239 22.6181L221.248 22.6443C221.248 22.6443 221.168 22.4711 221.101 22.385C223.704 19.7569 226.307 17.1288 228.921 14.4786C228.898 14.4136 228.853 14.338 228.84 14.2508L220.987 14.2719C221.295 13.8509 221.433 13.6188 221.626 13.4403C225.129 9.88826 228.643 6.36871 232.168 2.82712C232.532 2.45963 232.789 2.20345 233.301 2.71779C236.867 6.3077 240.475 9.864 244.051 13.4319C244.196 13.582 244.309 13.7436 244.589 14.1205L236.758 14.1521C236.758 14.1521 236.696 14.3389 236.676 14.4376C239.283 17.0303 241.901 19.6556 244.507 22.2483L244.392 22.4908C242.055 22.5142 239.728 22.5156 237.369 22.5286C237.327 22.6168 237.274 22.727 237.232 22.8152C241.343 26.9079 245.453 31.0006 249.719 35.2214C238.393 35.266 227.295 35.2844 215.968 35.3291C220.178 31.0861 224.249 26.966 228.342 22.8564C228.329 22.7692 228.294 22.6716 228.282 22.5845L228.239 22.6181Z" fill="black"/>
<path d="M50.4734 22.6181L43.483 22.6443C43.483 22.6443 43.4031 22.4711 43.3359 22.385C45.9391 19.7569 48.5422 17.1288 51.1559 14.4786C51.1328 14.4136 51.0876 14.338 51.075 14.2508L43.2215 14.2719C43.5301 13.8509 43.6675 13.6188 43.8607 13.4403C47.3634 9.88826 50.8776 6.36871 54.4024 2.82712C54.7666 2.45963 55.0238 2.20345 55.5363 2.71779C59.1017 6.3077 62.7102 9.864 66.2861 13.4319C66.431 13.582 66.5434 13.7436 66.8239 14.1205L58.9925 14.1521C58.9925 14.1521 58.9306 14.3389 58.9106 14.4376C61.5172 17.0303 64.1354 19.6556 66.742 22.2483L66.6265 22.4908C64.2894 22.5142 61.9628 22.5156 59.6036 22.5286C59.5616 22.6168 59.5091 22.727 59.4672 22.8152C63.5776 26.9079 67.6881 31.0006 71.954 35.2214C60.6274 35.266 49.5296 35.2844 38.203 35.3291C42.4132 31.0861 46.4838 26.966 50.5764 22.8564C50.5637 22.7692 50.5291 22.6716 50.5164 22.5845L50.4734 22.6181Z" fill="black"/>
<path d="M193.066 22.6181L186.075 22.6443C186.075 22.6443 185.996 22.4711 185.928 22.385C188.532 19.7569 191.135 17.1288 193.748 14.4786C193.725 14.4136 193.68 14.338 193.667 14.2508L185.814 14.2719C186.123 13.8509 186.26 13.6188 186.453 13.4403C189.956 9.88826 193.47 6.36871 196.995 2.82712C197.359 2.45963 197.616 2.20345 198.129 2.71779C201.694 6.3077 205.303 9.864 208.879 13.4319C209.023 13.582 209.136 13.7436 209.416 14.1205L201.585 14.1521C201.585 14.1521 201.523 14.3389 201.503 14.4376C204.11 17.0303 206.728 19.6556 209.334 22.2483L209.219 22.4908C206.882 22.5142 204.555 22.5156 202.196 22.5286C202.154 22.6168 202.102 22.727 202.06 22.8152C206.17 26.9079 210.281 31.0006 214.546 35.2214C203.22 35.266 192.122 35.2844 180.795 35.3291C185.006 31.0861 189.076 26.966 193.169 22.8564C193.156 22.7692 193.121 22.6716 193.109 22.5845L193.066 22.6181Z" fill="black"/>
<path d="M121.77 22.6181L114.779 22.6443C114.779 22.6443 114.699 22.4711 114.632 22.385C117.235 19.7569 119.838 17.1288 122.452 14.4786C122.429 14.4136 122.384 14.338 122.371 14.2508L114.518 14.2719C114.826 13.8509 114.964 13.6188 115.157 13.4403C118.66 9.88826 122.174 6.36871 125.699 2.82712C126.063 2.45963 126.32 2.20345 126.832 2.71779C130.398 6.3077 134.006 9.864 137.582 13.4319C137.727 13.582 137.84 13.7436 138.12 14.1205L130.289 14.1521C130.289 14.1521 130.227 14.3389 130.207 14.4376C132.813 17.0303 135.432 19.6556 138.038 22.2483L137.923 22.4908C135.586 22.5142 133.259 22.5156 130.9 22.5286C130.858 22.6168 130.805 22.727 130.763 22.8152C134.874 26.9079 138.984 31.0006 143.25 35.2214C131.924 35.266 120.826 35.2844 109.499 35.3291C113.709 31.0861 117.78 26.966 121.873 22.8564C121.86 22.7692 121.825 22.6716 121.813 22.5845L121.77 22.6181Z" fill="black"/>
<path d="M264.362 22.6181L257.372 22.6443C257.372 22.6443 257.292 22.4711 257.225 22.385C259.828 19.7569 262.431 17.1288 265.045 14.4786C265.021 14.4136 264.976 14.338 264.964 14.2508L257.11 14.2719C257.419 13.8509 257.556 13.6188 257.749 13.4403C261.252 9.88826 264.766 6.36871 268.291 2.82712C268.655 2.45963 268.912 2.20345 269.425 2.71779C272.99 6.3077 276.599 9.864 280.175 13.4319C280.32 13.582 280.432 13.7436 280.713 14.1205L272.881 14.1521C272.881 14.1521 272.819 14.3389 272.799 14.4376C275.406 17.0303 278.024 19.6556 280.631 22.2483L280.515 22.4908C278.178 22.5142 275.851 22.5156 273.492 22.5286C273.45 22.6168 273.398 22.727 273.356 22.8152C277.466 26.9079 281.577 31.0006 285.843 35.2214C274.516 35.266 263.418 35.2844 252.092 35.3291C256.302 31.0861 260.372 26.966 264.465 22.8564C264.452 22.7692 264.418 22.6716 264.405 22.5845L264.362 22.6181Z" fill="black"/>
<path d="M586.621 22.6181L579.631 22.6443C579.631 22.6443 579.551 22.4711 579.484 22.385C582.087 19.7569 584.69 17.1288 587.303 14.4786C587.28 14.4136 587.235 14.338 587.223 14.2508L579.369 14.2719C579.678 13.8509 579.815 13.6188 580.008 13.4403C583.511 9.88826 587.025 6.36871 590.55 2.82712C590.914 2.45963 591.171 2.20345 591.684 2.71779C595.249 6.3077 598.858 9.864 602.434 13.4319C602.579 13.582 602.691 13.7436 602.971 14.1205L595.14 14.1521C595.14 14.1521 595.078 14.3389 595.058 14.4376C597.665 17.0303 600.283 19.6556 602.89 22.2483L602.774 22.4908C600.437 22.5142 598.11 22.5156 595.751 22.5286C595.709 22.6168 595.657 22.727 595.615 22.8152C599.725 26.9079 603.836 31.0006 608.102 35.2214C596.775 35.266 585.677 35.2844 574.351 35.3291C578.561 31.0861 582.631 26.966 586.724 22.8564C586.711 22.7692 586.677 22.6716 586.664 22.5845L586.621 22.6181Z" fill="black"/>
<path d="M729.213 22.6181L722.223 22.6443C722.223 22.6443 722.143 22.4711 722.076 22.385C724.679 19.7569 727.282 17.1288 729.896 14.4786C729.873 14.4136 729.828 14.338 729.815 14.2508L721.961 14.2719C722.27 13.8509 722.408 13.6188 722.601 13.4403C726.103 9.88826 729.618 6.36871 733.142 2.82712C733.507 2.45963 733.764 2.20345 734.276 2.71779C737.842 6.3077 741.45 9.864 745.026 13.4319C745.171 13.582 745.283 13.7436 745.564 14.1205L737.732 14.1521C737.732 14.1521 737.671 14.3389 737.651 14.4376C740.257 17.0303 742.875 19.6556 745.482 22.2483L745.367 22.4908C743.029 22.5142 740.703 22.5156 738.344 22.5286C738.302 22.6168 738.249 22.727 738.207 22.8152C742.318 26.9079 746.428 31.0006 750.694 35.2214C739.367 35.266 728.27 35.2844 716.943 35.3291C721.153 31.0861 725.224 26.966 729.316 22.8564C729.304 22.7692 729.269 22.6716 729.256 22.5845L729.213 22.6181Z" fill="black"/>
<path d="M657.917 22.6181L650.927 22.6443C650.927 22.6443 650.847 22.4711 650.78 22.385C653.383 19.7569 655.986 17.1288 658.6 14.4786C658.577 14.4136 658.531 14.338 658.519 14.2508L650.665 14.2719C650.974 13.8509 651.111 13.6188 651.304 13.4403C654.807 9.88826 658.321 6.36871 661.846 2.82712C662.21 2.45963 662.468 2.20345 662.98 2.71779C666.545 6.3077 670.154 9.864 673.73 13.4319C673.875 13.582 673.987 13.7436 674.268 14.1205L666.436 14.1521C666.436 14.1521 666.374 14.3389 666.354 14.4376C668.961 17.0303 671.579 19.6556 674.186 22.2483L674.07 22.4908C671.733 22.5142 669.407 22.5156 667.047 22.5286C667.005 22.6168 666.953 22.727 666.911 22.8152C671.021 26.9079 675.132 31.0006 679.398 35.2214C668.071 35.266 656.973 35.2844 645.647 35.3291C649.857 31.0861 653.928 26.966 658.02 22.8564C658.008 22.7692 657.973 22.6716 657.96 22.5845L657.917 22.6181Z" fill="black"/>
<path d="M800.51 22.6181L793.519 22.6443C793.519 22.6443 793.439 22.4711 793.372 22.385C795.975 19.7569 798.578 17.1288 801.192 14.4786C801.169 14.4136 801.124 14.338 801.111 14.2508L793.258 14.2719C793.566 13.8509 793.704 13.6188 793.897 13.4403C797.4 9.88826 800.914 6.36871 804.439 2.82712C804.803 2.45963 805.06 2.20345 805.573 2.71779C809.138 6.3077 812.746 9.864 816.322 13.4319C816.467 13.582 816.58 13.7436 816.86 14.1205L809.029 14.1521C809.029 14.1521 808.967 14.3389 808.947 14.4376C811.553 17.0303 814.172 19.6556 816.778 22.2483L816.663 22.4908C814.326 22.5142 811.999 22.5156 809.64 22.5286C809.598 22.6168 809.545 22.727 809.503 22.8152C813.614 26.9079 817.724 31.0006 821.99 35.2214C810.664 35.266 799.566 35.2844 788.239 35.3291C792.449 31.0861 796.52 26.966 800.613 22.8564C800.6 22.7692 800.565 22.6716 800.553 22.5845L800.51 22.6181Z" fill="black"/>
<path d="M622.744 22.6181L615.754 22.6443C615.754 22.6443 615.674 22.4711 615.607 22.385C618.21 19.7569 620.813 17.1288 623.427 14.4786C623.404 14.4136 623.359 14.338 623.346 14.2508L615.492 14.2719C615.801 13.8509 615.939 13.6188 616.132 13.4403C619.634 9.88826 623.149 6.36871 626.673 2.82712C627.038 2.45963 627.295 2.20345 627.807 2.71779C631.373 6.3077 634.981 9.864 638.557 13.4319C638.702 13.582 638.814 13.7436 639.095 14.1205L631.263 14.1521C631.263 14.1521 631.202 14.3389 631.182 14.4376C633.788 17.0303 636.406 19.6556 639.013 22.2483L638.898 22.4908C636.56 22.5142 634.234 22.5156 631.875 22.5286C631.833 22.6168 631.78 22.727 631.738 22.8152C635.849 26.9079 639.959 31.0006 644.225 35.2214C632.898 35.266 621.801 35.2844 610.474 35.3291C614.684 31.0861 618.755 26.966 622.847 22.8564C622.835 22.7692 622.8 22.6716 622.787 22.5845L622.744 22.6181Z" fill="black"/>
<path d="M765.337 22.6181L758.346 22.6443C758.346 22.6443 758.267 22.4711 758.199 22.385C760.802 19.7569 763.406 17.1288 766.019 14.4786C765.996 14.4136 765.951 14.338 765.938 14.2508L758.085 14.2719C758.393 13.8509 758.531 13.6188 758.724 13.4403C762.227 9.88826 765.741 6.36871 769.266 2.82712C769.63 2.45963 769.887 2.20345 770.4 2.71779C773.965 6.3077 777.574 9.864 781.15 13.4319C781.294 13.582 781.407 13.7436 781.687 14.1205L773.856 14.1521C773.856 14.1521 773.794 14.3389 773.774 14.4376C776.381 17.0303 778.999 19.6556 781.605 22.2483L781.49 22.4908C779.153 22.5142 776.826 22.5156 774.467 22.5286C774.425 22.6168 774.373 22.727 774.331 22.8152C778.441 26.9079 782.552 31.0006 786.818 35.2214C775.491 35.266 764.393 35.2844 753.066 35.3291C757.277 31.0861 761.347 26.966 765.44 22.8564C765.427 22.7692 765.393 22.6716 765.38 22.5845L765.337 22.6181Z" fill="black"/>
<path d="M694.041 22.6181L687.05 22.6443C687.05 22.6443 686.97 22.4711 686.903 22.385C689.506 19.7569 692.109 17.1288 694.723 14.4786C694.7 14.4136 694.655 14.338 694.642 14.2508L686.789 14.2719C687.097 13.8509 687.235 13.6188 687.428 13.4403C690.931 9.88826 694.445 6.36871 697.97 2.82712C698.334 2.45963 698.591 2.20345 699.103 2.71779C702.669 6.3077 706.277 9.864 709.853 13.4319C709.998 13.582 710.111 13.7436 710.391 14.1205L702.56 14.1521C702.56 14.1521 702.498 14.3389 702.478 14.4376C705.084 17.0303 707.703 19.6556 710.309 22.2483L710.194 22.4908C707.857 22.5142 705.53 22.5156 703.171 22.5286C703.129 22.6168 703.076 22.727 703.034 22.8152C707.145 26.9079 711.255 31.0006 715.521 35.2214C704.195 35.266 693.097 35.2844 681.77 35.3291C685.98 31.0861 690.051 26.966 694.144 22.8564C694.131 22.7692 694.096 22.6716 694.084 22.5845L694.041 22.6181Z" fill="black"/>
<path d="M836.633 22.6181L829.643 22.6443C829.643 22.6443 829.563 22.4711 829.496 22.385C832.099 19.7569 834.702 17.1288 837.316 14.4786C837.292 14.4136 837.247 14.338 837.235 14.2508L829.381 14.2719C829.69 13.8509 829.827 13.6188 830.02 13.4403C833.523 9.88826 837.037 6.36871 840.562 2.82712C840.926 2.45963 841.183 2.20345 841.696 2.71779C845.261 6.3077 848.87 9.864 852.446 13.4319C852.591 13.582 852.703 13.7436 852.984 14.1205L845.152 14.1521C845.152 14.1521 845.09 14.3389 845.07 14.4376C847.677 17.0303 850.295 19.6556 852.902 22.2483L852.786 22.4908C850.449 22.5142 848.122 22.5156 845.763 22.5286C845.721 22.6168 845.669 22.727 845.627 22.8152C849.737 26.9079 853.848 31.0006 858.114 35.2214C846.787 35.266 835.689 35.2844 824.363 35.3291C828.573 31.0861 832.643 26.966 836.736 22.8564C836.723 22.7692 836.689 22.6716 836.676 22.5845L836.633 22.6181Z" fill="black"/>
<path d="M299.535 22.6181L292.544 22.6443C292.544 22.6443 292.465 22.4711 292.397 22.385C295 19.7569 297.604 17.1288 300.217 14.4786C300.194 14.4136 300.149 14.338 300.136 14.2508L292.283 14.2719C292.591 13.8509 292.729 13.6188 292.922 13.4403C296.425 9.88826 299.939 6.36871 303.464 2.82712C303.828 2.45963 304.085 2.20345 304.598 2.71779C308.163 6.3077 311.772 9.864 315.348 13.4319C315.492 13.582 315.605 13.7436 315.885 14.1205L308.054 14.1521C308.054 14.1521 307.992 14.3389 307.972 14.4376C310.579 17.0303 313.197 19.6556 315.803 22.2483L315.688 22.4908C313.351 22.5142 311.024 22.5156 308.665 22.5286C308.623 22.6168 308.571 22.727 308.529 22.8152C312.639 26.9079 316.75 31.0006 321.015 35.2214C309.689 35.266 298.591 35.2844 287.264 35.3291C291.475 31.0861 295.545 26.966 299.638 22.8564C299.625 22.7692 299.59 22.6716 299.578 22.5845L299.535 22.6181Z" fill="black"/>
<path d="M442.127 22.6181L435.137 22.6443C435.137 22.6443 435.057 22.4711 434.99 22.385C437.593 19.7569 440.196 17.1288 442.81 14.4786C442.787 14.4136 442.741 14.338 442.729 14.2508L434.875 14.2719C435.184 13.8509 435.321 13.6188 435.515 13.4403C439.017 9.88826 442.531 6.36871 446.056 2.82712C446.42 2.45963 446.678 2.20345 447.19 2.71779C450.756 6.3077 454.364 9.864 457.94 13.4319C458.085 13.582 458.197 13.7436 458.478 14.1205L450.646 14.1521C450.646 14.1521 450.584 14.3389 450.564 14.4376C453.171 17.0303 455.789 19.6556 458.396 22.2483L458.28 22.4908C455.943 22.5142 453.617 22.5156 451.257 22.5286C451.215 22.6168 451.163 22.727 451.121 22.8152C455.231 26.9079 459.342 31.0006 463.608 35.2214C452.281 35.266 441.183 35.2844 429.857 35.3291C434.067 31.0861 438.138 26.966 442.23 22.8564C442.218 22.7692 442.183 22.6716 442.17 22.5845L442.127 22.6181Z" fill="black"/>
<path d="M370.831 22.6181L363.841 22.6443C363.841 22.6443 363.761 22.4711 363.694 22.385C366.297 19.7569 368.9 17.1288 371.513 14.4786C371.49 14.4136 371.445 14.338 371.433 14.2508L363.579 14.2719C363.888 13.8509 364.025 13.6188 364.218 13.4403C367.721 9.88826 371.235 6.36871 374.76 2.82712C375.124 2.45963 375.381 2.20345 375.894 2.71779C379.459 6.3077 383.068 9.864 386.644 13.4319C386.789 13.582 386.901 13.7436 387.181 14.1205L379.35 14.1521C379.35 14.1521 379.288 14.3389 379.268 14.4376C381.875 17.0303 384.493 19.6556 387.1 22.2483L386.984 22.4908C384.647 22.5142 382.32 22.5156 379.961 22.5286C379.919 22.6168 379.867 22.727 379.825 22.8152C383.935 26.9079 388.046 31.0006 392.312 35.2214C380.985 35.266 369.887 35.2844 358.561 35.3291C362.771 31.0861 366.841 26.966 370.934 22.8564C370.921 22.7692 370.887 22.6716 370.874 22.5845L370.831 22.6181Z" fill="black"/>
<path d="M513.423 22.6181L506.433 22.6443C506.433 22.6443 506.353 22.4711 506.286 22.385C508.889 19.7569 511.492 17.1288 514.106 14.4786C514.083 14.4136 514.038 14.338 514.025 14.2508L506.172 14.2719C506.48 13.8509 506.618 13.6188 506.811 13.4403C510.313 9.88826 513.828 6.36871 517.352 2.82712C517.717 2.45963 517.974 2.20345 518.486 2.71779C522.052 6.3077 525.66 9.864 529.236 13.4319C529.381 13.582 529.493 13.7436 529.774 14.1205L521.943 14.1521C521.943 14.1521 521.881 14.3389 521.861 14.4376C524.467 17.0303 527.085 19.6556 529.692 22.2483L529.577 22.4908C527.239 22.5142 524.913 22.5156 522.554 22.5286C522.512 22.6168 522.459 22.727 522.417 22.8152C526.528 26.9079 530.638 31.0006 534.904 35.2214C523.577 35.266 512.48 35.2844 501.153 35.3291C505.363 31.0861 509.434 26.966 513.526 22.8564C513.514 22.7692 513.479 22.6716 513.466 22.5845L513.423 22.6181Z" fill="black"/>
<path d="M335.658 22.6181L328.668 22.6443C328.668 22.6443 328.588 22.4711 328.521 22.385C331.124 19.7569 333.727 17.1288 336.341 14.4786C336.318 14.4136 336.272 14.338 336.26 14.2508L328.406 14.2719C328.715 13.8509 328.852 13.6188 329.045 13.4403C332.548 9.88826 336.062 6.36871 339.587 2.82712C339.951 2.45963 340.209 2.20345 340.721 2.71779C344.287 6.3077 347.895 9.864 351.471 13.4319C351.616 13.582 351.728 13.7436 352.009 14.1205L344.177 14.1521C344.177 14.1521 344.115 14.3389 344.095 14.4376C346.702 17.0303 349.32 19.6556 351.927 22.2483L351.811 22.4908C349.474 22.5142 347.148 22.5156 344.788 22.5286C344.746 22.6168 344.694 22.727 344.652 22.8152C348.762 26.9079 352.873 31.0006 357.139 35.2214C345.812 35.266 334.714 35.2844 323.388 35.3291C327.598 31.0861 331.669 26.966 335.761 22.8564C335.749 22.7692 335.714 22.6716 335.701 22.5845L335.658 22.6181Z" fill="black"/>
<path d="M478.251 22.6181L471.26 22.6443C471.26 22.6443 471.18 22.4711 471.113 22.385C473.716 19.7569 476.319 17.1288 478.933 14.4786C478.91 14.4136 478.865 14.338 478.852 14.2508L470.999 14.2719C471.307 13.8509 471.445 13.6188 471.638 13.4403C475.141 9.88826 478.655 6.36871 482.18 2.82712C482.544 2.45963 482.801 2.20345 483.314 2.71779C486.879 6.3077 490.487 9.864 494.063 13.4319C494.208 13.582 494.321 13.7436 494.601 14.1205L486.77 14.1521C486.77 14.1521 486.708 14.3389 486.688 14.4376C489.294 17.0303 491.913 19.6556 494.519 22.2483L494.404 22.4908C492.067 22.5142 489.74 22.5156 487.381 22.5286C487.339 22.6168 487.286 22.727 487.244 22.8152C491.355 26.9079 495.465 31.0006 499.731 35.2214C488.405 35.266 477.307 35.2844 465.98 35.3291C470.19 31.0861 474.261 26.966 478.354 22.8564C478.341 22.7692 478.306 22.6716 478.294 22.5845L478.251 22.6181Z" fill="black"/>
<path d="M406.954 22.6181L399.964 22.6443C399.964 22.6443 399.884 22.4711 399.817 22.385C402.42 19.7569 405.023 17.1288 407.637 14.4786C407.614 14.4136 407.569 14.338 407.556 14.2508L399.703 14.2719C400.011 13.8509 400.149 13.6188 400.342 13.4403C403.844 9.88826 407.359 6.36871 410.883 2.82712C411.248 2.45963 411.505 2.20345 412.017 2.71779C415.583 6.3077 419.191 9.864 422.767 13.4319C422.912 13.582 423.024 13.7436 423.305 14.1205L415.473 14.1521C415.473 14.1521 415.412 14.3389 415.392 14.4376C417.998 17.0303 420.616 19.6556 423.223 22.2483L423.108 22.4908C420.77 22.5142 418.444 22.5156 416.085 22.5286C416.043 22.6168 415.99 22.727 415.948 22.8152C420.059 26.9079 424.169 31.0006 428.435 35.2214C417.108 35.266 406.011 35.2844 394.684 35.3291C398.894 31.0861 402.965 26.966 407.057 22.8564C407.045 22.7692 407.01 22.6716 406.997 22.5845L406.954 22.6181Z" fill="black"/>
<path d="M549.547 22.6181L542.556 22.6443C542.556 22.6443 542.477 22.4711 542.409 22.385C545.013 19.7569 547.616 17.1288 550.229 14.4786C550.206 14.4136 550.161 14.338 550.148 14.2508L542.295 14.2719C542.604 13.8509 542.741 13.6188 542.934 13.4403C546.437 9.88826 549.951 6.36871 553.476 2.82712C553.84 2.45963 554.097 2.20345 554.61 2.71779C558.175 6.3077 561.784 9.864 565.36 13.4319C565.505 13.582 565.617 13.7436 565.897 14.1205L558.066 14.1521C558.066 14.1521 558.004 14.3389 557.984 14.4376C560.591 17.0303 563.209 19.6556 565.815 22.2483L565.7 22.4908C563.363 22.5142 561.036 22.5156 558.677 22.5286C558.635 22.6168 558.583 22.727 558.541 22.8152C562.651 26.9079 566.762 31.0006 571.028 35.2214C559.701 35.266 548.603 35.2844 537.276 35.3291C541.487 31.0861 545.557 26.966 549.65 22.8564C549.637 22.7692 549.603 22.6716 549.59 22.5845L549.547 22.6181Z" fill="black"/>
<path d="M871.806 22.6181L864.816 22.6443C864.816 22.6443 864.736 22.4711 864.669 22.385C867.272 19.7569 869.875 17.1288 872.488 14.4786C872.465 14.4136 872.42 14.338 872.408 14.2508L864.554 14.2719C864.863 13.8509 865 13.6188 865.193 13.4403C868.696 9.88826 872.21 6.36871 875.735 2.82712C876.099 2.45963 876.356 2.20345 876.869 2.71779C880.434 6.3077 884.043 9.864 887.619 13.4319C887.764 13.582 887.876 13.7436 888.156 14.1205L880.325 14.1521C880.325 14.1521 880.263 14.3389 880.243 14.4376C882.85 17.0303 885.468 19.6556 888.075 22.2483L887.959 22.4908C885.622 22.5142 883.295 22.5156 880.936 22.5286C880.894 22.6168 880.842 22.727 880.8 22.8152C884.91 26.9079 889.021 31.0006 893.287 35.2214C881.96 35.266 870.862 35.2844 859.536 35.3291C863.746 31.0861 867.816 26.966 871.909 22.8564C871.896 22.7692 871.862 22.6716 871.849 22.5845L871.806 22.6181Z" fill="black"/>
<path d="M1014.4 22.6181L1007.41 22.6443C1007.41 22.6443 1007.33 22.4711 1007.26 22.385C1009.86 19.7569 1012.47 17.1288 1015.08 14.4786C1015.06 14.4136 1015.01 14.338 1015 14.2508L1007.15 14.2719C1007.46 13.8509 1007.59 13.6188 1007.79 13.4403C1011.29 9.88826 1014.8 6.36871 1018.33 2.82712C1018.69 2.45963 1018.95 2.20345 1019.46 2.71779C1023.03 6.3077 1026.64 9.864 1030.21 13.4319C1030.36 13.582 1030.47 13.7436 1030.75 14.1205L1022.92 14.1521C1022.92 14.1521 1022.86 14.3389 1022.84 14.4376C1025.44 17.0303 1028.06 19.6556 1030.67 22.2483L1030.55 22.4908C1028.21 22.5142 1025.89 22.5156 1023.53 22.5286C1023.49 22.6168 1023.43 22.727 1023.39 22.8152C1027.5 26.9079 1031.61 31.0006 1035.88 35.2214C1024.55 35.266 1013.45 35.2844 1002.13 35.3291C1006.34 31.0861 1010.41 26.966 1014.5 22.8564C1014.49 22.7692 1014.45 22.6716 1014.44 22.5845L1014.4 22.6181Z" fill="black"/>
<path d="M943.102 22.6181L936.112 22.6443C936.112 22.6443 936.032 22.4711 935.965 22.385C938.568 19.7569 941.171 17.1288 943.785 14.4786C943.762 14.4136 943.716 14.338 943.704 14.2508L935.85 14.2719C936.159 13.8509 936.296 13.6188 936.49 13.4403C939.992 9.88826 943.507 6.36871 947.031 2.82712C947.395 2.45963 947.653 2.20345 948.165 2.71779C951.731 6.3077 955.339 9.864 958.915 13.4319C959.06 13.582 959.172 13.7436 959.453 14.1205L951.621 14.1521C951.621 14.1521 951.559 14.3389 951.539 14.4376C954.146 17.0303 956.764 19.6556 959.371 22.2483L959.255 22.4908C956.918 22.5142 954.592 22.5156 952.232 22.5286C952.19 22.6168 952.138 22.727 952.096 22.8152C956.206 26.9079 960.317 31.0006 964.583 35.2214C953.256 35.266 942.158 35.2844 930.832 35.3291C935.042 31.0861 939.113 26.966 943.205 22.8564C943.193 22.7692 943.158 22.6716 943.145 22.5845L943.102 22.6181Z" fill="black"/>
<path d="M1085.69 22.6181L1078.7 22.6443C1078.7 22.6443 1078.62 22.4711 1078.56 22.385C1081.16 19.7569 1083.76 17.1288 1086.38 14.4786C1086.35 14.4136 1086.31 14.338 1086.3 14.2508L1078.44 14.2719C1078.75 13.8509 1078.89 13.6188 1079.08 13.4403C1082.58 9.88826 1086.1 6.36871 1089.62 2.82712C1089.99 2.45963 1090.25 2.20345 1090.76 2.71779C1094.32 6.3077 1097.93 9.864 1101.51 13.4319C1101.65 13.582 1101.76 13.7436 1102.05 14.1205L1094.21 14.1521C1094.21 14.1521 1094.15 14.3389 1094.13 14.4376C1096.74 17.0303 1099.36 19.6556 1101.96 22.2483L1101.85 22.4908C1099.51 22.5142 1097.18 22.5156 1094.82 22.5286C1094.78 22.6168 1094.73 22.727 1094.69 22.8152C1098.8 26.9079 1102.91 31.0006 1107.18 35.2214C1095.85 35.266 1084.75 35.2844 1073.42 35.3291C1077.63 31.0861 1081.7 26.966 1085.8 22.8564C1085.78 22.7692 1085.75 22.6716 1085.74 22.5845L1085.69 22.6181Z" fill="black"/>
<path d="M907.929 22.6181L900.939 22.6443C900.939 22.6443 900.859 22.4711 900.792 22.385C903.395 19.7569 905.998 17.1288 908.612 14.4786C908.589 14.4136 908.544 14.338 908.531 14.2508L900.678 14.2719C900.986 13.8509 901.124 13.6188 901.317 13.4403C904.819 9.88826 908.334 6.36871 911.858 2.82712C912.223 2.45963 912.48 2.20345 912.992 2.71779C916.558 6.3077 920.166 9.864 923.742 13.4319C923.887 13.582 923.999 13.7436 924.28 14.1205L916.448 14.1521C916.448 14.1521 916.387 14.3389 916.367 14.4376C918.973 17.0303 921.591 19.6556 924.198 22.2483L924.083 22.4908C921.745 22.5142 919.419 22.5156 917.06 22.5286C917.018 22.6168 916.965 22.727 916.923 22.8152C921.034 26.9079 925.144 31.0006 929.41 35.2214C918.083 35.266 906.986 35.2844 895.659 35.3291C899.869 31.0861 903.94 26.966 908.032 22.8564C908.02 22.7692 907.985 22.6716 907.972 22.5845L907.929 22.6181Z" fill="black"/>
<path d="M1050.52 22.6181L1043.53 22.6443C1043.53 22.6443 1043.45 22.4711 1043.38 22.385C1045.99 19.7569 1048.59 17.1288 1051.2 14.4786C1051.18 14.4136 1051.14 14.338 1051.12 14.2508L1043.27 14.2719C1043.58 13.8509 1043.72 13.6188 1043.91 13.4403C1047.41 9.88826 1050.93 6.36871 1054.45 2.82712C1054.82 2.45963 1055.07 2.20345 1055.58 2.71779C1059.15 6.3077 1062.76 9.864 1066.33 13.4319C1066.48 13.582 1066.59 13.7436 1066.87 14.1205L1059.04 14.1521C1059.04 14.1521 1058.98 14.3389 1058.96 14.4376C1061.57 17.0303 1064.18 19.6556 1066.79 22.2483L1066.68 22.4908C1064.34 22.5142 1062.01 22.5156 1059.65 22.5286C1059.61 22.6168 1059.56 22.727 1059.52 22.8152C1063.63 26.9079 1067.74 31.0006 1072 35.2214C1060.68 35.266 1049.58 35.2844 1038.25 35.3291C1042.46 31.0861 1046.53 26.966 1050.62 22.8564C1050.61 22.7692 1050.58 22.6716 1050.56 22.5845L1050.52 22.6181Z" fill="black"/>
<path d="M979.226 22.6181L972.235 22.6443C972.235 22.6443 972.155 22.4711 972.088 22.385C974.691 19.7569 977.295 17.1288 979.908 14.4786C979.885 14.4136 979.84 14.338 979.827 14.2508L971.974 14.2719C972.282 13.8509 972.42 13.6188 972.613 13.4403C976.116 9.88826 979.63 6.36871 983.155 2.82712C983.519 2.45963 983.776 2.20345 984.289 2.71779C987.854 6.3077 991.462 9.864 995.038 13.4319C995.183 13.582 995.296 13.7436 995.576 14.1205L987.745 14.1521C987.745 14.1521 987.683 14.3389 987.663 14.4376C990.269 17.0303 992.888 19.6556 995.494 22.2483L995.379 22.4908C993.042 22.5142 990.715 22.5156 988.356 22.5286C988.314 22.6168 988.261 22.727 988.219 22.8152C992.33 26.9079 996.44 31.0006 1000.71 35.2214C989.38 35.266 978.282 35.2844 966.955 35.3291C971.165 31.0861 975.236 26.966 979.329 22.8564C979.316 22.7692 979.281 22.6716 979.269 22.5845L979.226 22.6181Z" fill="black"/>
<path d="M1121.82 22.6181L1114.83 22.6443C1114.83 22.6443 1114.75 22.4711 1114.68 22.385C1117.28 19.7569 1119.89 17.1288 1122.5 14.4786C1122.48 14.4136 1122.43 14.338 1122.42 14.2508L1114.57 14.2719C1114.87 13.8509 1115.01 13.6188 1115.21 13.4403C1118.71 9.88826 1122.22 6.36871 1125.75 2.82712C1126.11 2.45963 1126.37 2.20345 1126.88 2.71779C1130.45 6.3077 1134.05 9.864 1137.63 13.4319C1137.78 13.582 1137.89 13.7436 1138.17 14.1205L1130.34 14.1521C1130.34 14.1521 1130.28 14.3389 1130.26 14.4376C1132.86 17.0303 1135.48 19.6556 1138.09 22.2483L1137.97 22.4908C1135.63 22.5142 1133.31 22.5156 1130.95 22.5286C1130.91 22.6168 1130.85 22.727 1130.81 22.8152C1134.92 26.9079 1139.03 31.0006 1143.3 35.2214C1131.97 35.266 1120.87 35.2844 1109.55 35.3291C1113.76 31.0861 1117.83 26.966 1121.92 22.8564C1121.91 22.7692 1121.87 22.6716 1121.86 22.5845L1121.82 22.6181Z" fill="black"/>
<path d="M1158.89 22.6181L1151.9 22.6443C1151.9 22.6443 1151.82 22.4711 1151.75 22.385C1154.36 19.7569 1156.96 17.1288 1159.57 14.4786C1159.55 14.4136 1159.51 14.338 1159.49 14.2508L1151.64 14.2719C1151.95 13.8509 1152.09 13.6188 1152.28 13.4403C1155.78 9.88826 1159.3 6.36871 1162.82 2.82712C1163.19 2.45963 1163.44 2.20345 1163.95 2.71779C1167.52 6.3077 1171.13 9.864 1174.7 13.4319C1174.85 13.582 1174.96 13.7436 1175.24 14.1205L1167.41 14.1521C1167.41 14.1521 1167.35 14.3389 1167.33 14.4376C1169.94 17.0303 1172.55 19.6556 1175.16 22.2483L1175.05 22.4908C1172.71 22.5142 1170.38 22.5156 1168.02 22.5286C1167.98 22.6168 1167.93 22.727 1167.89 22.8152C1172 26.9079 1176.11 31.0006 1180.37 35.2214C1169.05 35.266 1157.95 35.2844 1146.62 35.3291C1150.83 31.0861 1154.9 26.966 1158.99 22.8564C1158.98 22.7692 1158.95 22.6716 1158.93 22.5845L1158.89 22.6181Z" fill="black"/>
<path d="M1301.48 22.6181L1294.49 22.6443C1294.49 22.6443 1294.41 22.4711 1294.35 22.385C1296.95 19.7569 1299.55 17.1288 1302.17 14.4786C1302.14 14.4136 1302.1 14.338 1302.09 14.2508L1294.23 14.2719C1294.54 13.8509 1294.68 13.6188 1294.87 13.4403C1298.37 9.88826 1301.89 6.36871 1305.41 2.82712C1305.78 2.45963 1306.03 2.20345 1306.55 2.71779C1310.11 6.3077 1313.72 9.864 1317.3 13.4319C1317.44 13.582 1317.55 13.7436 1317.83 14.1205L1310 14.1521C1310 14.1521 1309.94 14.3389 1309.92 14.4376C1312.53 17.0303 1315.15 19.6556 1317.75 22.2483L1317.64 22.4908C1315.3 22.5142 1312.97 22.5156 1310.61 22.5286C1310.57 22.6168 1310.52 22.727 1310.48 22.8152C1314.59 26.9079 1318.7 31.0006 1322.97 35.2214C1311.64 35.266 1300.54 35.2844 1289.21 35.3291C1293.42 31.0861 1297.49 26.966 1301.59 22.8564C1301.57 22.7692 1301.54 22.6716 1301.53 22.5845L1301.48 22.6181Z" fill="black"/>
<path d="M1230.19 22.6181L1223.2 22.6443C1223.2 22.6443 1223.12 22.4711 1223.05 22.385C1225.65 19.7569 1228.26 17.1288 1230.87 14.4786C1230.85 14.4136 1230.8 14.338 1230.79 14.2508L1222.94 14.2719C1223.24 13.8509 1223.38 13.6188 1223.58 13.4403C1227.08 9.88826 1230.59 6.36871 1234.12 2.82712C1234.48 2.45963 1234.74 2.20345 1235.25 2.71779C1238.82 6.3077 1242.42 9.864 1246 13.4319C1246.15 13.582 1246.26 13.7436 1246.54 14.1205L1238.71 14.1521C1238.71 14.1521 1238.65 14.3389 1238.63 14.4376C1241.23 17.0303 1243.85 19.6556 1246.46 22.2483L1246.34 22.4908C1244 22.5142 1241.68 22.5156 1239.32 22.5286C1239.28 22.6168 1239.22 22.727 1239.18 22.8152C1243.29 26.9079 1247.4 31.0006 1251.67 35.2214C1240.34 35.266 1229.24 35.2844 1217.92 35.3291C1222.13 31.0861 1226.2 26.966 1230.29 22.8564C1230.28 22.7692 1230.24 22.6716 1230.23 22.5845L1230.19 22.6181Z" fill="black"/>
<path d="M1372.78 22.6181L1365.79 22.6443C1365.79 22.6443 1365.71 22.4711 1365.64 22.385C1368.25 19.7569 1370.85 17.1288 1373.46 14.4786C1373.44 14.4136 1373.39 14.338 1373.38 14.2508L1365.53 14.2719C1365.84 13.8509 1365.97 13.6188 1366.17 13.4403C1369.67 9.88826 1373.18 6.36871 1376.71 2.82712C1377.07 2.45963 1377.33 2.20345 1377.84 2.71779C1381.41 6.3077 1385.02 9.864 1388.59 13.4319C1388.74 13.582 1388.85 13.7436 1389.13 14.1205L1381.3 14.1521C1381.3 14.1521 1381.24 14.3389 1381.22 14.4376C1383.82 17.0303 1386.44 19.6556 1389.05 22.2483L1388.93 22.4908C1386.6 22.5142 1384.27 22.5156 1381.91 22.5286C1381.87 22.6168 1381.82 22.727 1381.77 22.8152C1385.88 26.9079 1390 31.0006 1394.26 35.2214C1382.93 35.266 1371.84 35.2844 1360.51 35.3291C1364.72 31.0861 1368.79 26.966 1372.88 22.8564C1372.87 22.7692 1372.84 22.6716 1372.82 22.5845L1372.78 22.6181Z" fill="black"/>
<path d="M1195.02 22.6181L1188.02 22.6443C1188.02 22.6443 1187.95 22.4711 1187.88 22.385C1190.48 19.7569 1193.08 17.1288 1195.7 14.4786C1195.67 14.4136 1195.63 14.338 1195.62 14.2508L1187.76 14.2719C1188.07 13.8509 1188.21 13.6188 1188.4 13.4403C1191.91 9.88826 1195.42 6.36871 1198.94 2.82712C1199.31 2.45963 1199.57 2.20345 1200.08 2.71779C1203.64 6.3077 1207.25 9.864 1210.83 13.4319C1210.97 13.582 1211.09 13.7436 1211.37 14.1205L1203.53 14.1521C1203.53 14.1521 1203.47 14.3389 1203.45 14.4376C1206.06 17.0303 1208.68 19.6556 1211.28 22.2483L1211.17 22.4908C1208.83 22.5142 1206.5 22.5156 1204.15 22.5286C1204.1 22.6168 1204.05 22.727 1204.01 22.8152C1208.12 26.9079 1212.23 31.0006 1216.5 35.2214C1205.17 35.266 1194.07 35.2844 1182.74 35.3291C1186.96 31.0861 1191.03 26.966 1195.12 22.8564C1195.11 22.7692 1195.07 22.6716 1195.06 22.5845L1195.02 22.6181Z" fill="black"/>
<path d="M1337.61 22.6181L1330.62 22.6443C1330.62 22.6443 1330.54 22.4711 1330.47 22.385C1333.07 19.7569 1335.68 17.1288 1338.29 14.4786C1338.27 14.4136 1338.22 14.338 1338.21 14.2508L1330.36 14.2719C1330.66 13.8509 1330.8 13.6188 1331 13.4403C1334.5 9.88826 1338.01 6.36871 1341.54 2.82712C1341.9 2.45963 1342.16 2.20345 1342.67 2.71779C1346.24 6.3077 1349.84 9.864 1353.42 13.4319C1353.57 13.582 1353.68 13.7436 1353.96 14.1205L1346.13 14.1521C1346.13 14.1521 1346.06 14.3389 1346.05 14.4376C1348.65 17.0303 1351.27 19.6556 1353.88 22.2483L1353.76 22.4908C1351.42 22.5142 1349.1 22.5156 1346.74 22.5286C1346.7 22.6168 1346.64 22.727 1346.6 22.8152C1350.71 26.9079 1354.82 31.0006 1359.09 35.2214C1347.76 35.266 1336.66 35.2844 1325.34 35.3291C1329.55 31.0861 1333.62 26.966 1337.71 22.8564C1337.7 22.7692 1337.66 22.6716 1337.65 22.5845L1337.61 22.6181Z" fill="black"/>
<path d="M1266.31 22.6181L1259.32 22.6443C1259.32 22.6443 1259.24 22.4711 1259.17 22.385C1261.78 19.7569 1264.38 17.1288 1266.99 14.4786C1266.97 14.4136 1266.93 14.338 1266.91 14.2508L1259.06 14.2719C1259.37 13.8509 1259.51 13.6188 1259.7 13.4403C1263.2 9.88826 1266.72 6.36871 1270.24 2.82712C1270.6 2.45963 1270.86 2.20345 1271.37 2.71779C1274.94 6.3077 1278.55 9.864 1282.12 13.4319C1282.27 13.582 1282.38 13.7436 1282.66 14.1205L1274.83 14.1521C1274.83 14.1521 1274.77 14.3389 1274.75 14.4376C1277.36 17.0303 1279.97 19.6556 1282.58 22.2483L1282.46 22.4908C1280.13 22.5142 1277.8 22.5156 1275.44 22.5286C1275.4 22.6168 1275.35 22.727 1275.31 22.8152C1279.42 26.9079 1283.53 31.0006 1287.79 35.2214C1276.47 35.266 1265.37 35.2844 1254.04 35.3291C1258.25 31.0861 1262.32 26.966 1266.41 22.8564C1266.4 22.7692 1266.37 22.6716 1266.35 22.5845L1266.31 22.6181Z" fill="black"/>
<path d="M1408.9 22.6181L1401.91 22.6443C1401.91 22.6443 1401.83 22.4711 1401.77 22.385C1404.37 19.7569 1406.97 17.1288 1409.59 14.4786C1409.56 14.4136 1409.52 14.338 1409.51 14.2508L1401.65 14.2719C1401.96 13.8509 1402.1 13.6188 1402.29 13.4403C1405.79 9.88826 1409.31 6.36871 1412.83 2.82712C1413.2 2.45963 1413.45 2.20345 1413.97 2.71779C1417.53 6.3077 1421.14 9.864 1424.72 13.4319C1424.86 13.582 1424.97 13.7436 1425.25 14.1205L1417.42 14.1521C1417.42 14.1521 1417.36 14.3389 1417.34 14.4376C1419.95 17.0303 1422.57 19.6556 1425.17 22.2483L1425.06 22.4908C1422.72 22.5142 1420.39 22.5156 1418.03 22.5286C1417.99 22.6168 1417.94 22.727 1417.9 22.8152C1422.01 26.9079 1426.12 31.0006 1430.38 35.2214C1419.06 35.266 1407.96 35.2844 1396.63 35.3291C1400.84 31.0861 1404.91 26.966 1409.01 22.8564C1408.99 22.7692 1408.96 22.6716 1408.95 22.5845L1408.9 22.6181Z" fill="black"/>
</svg>
