<?xml version="1.0" encoding="UTF-8"?><svg id="b" xmlns="http://www.w3.org/2000/svg" width="182.22" height="359.52" viewBox="0 0 182.22 359.52"><g id="c"><path d="M39.2,359.52c1.7-7.61,3.65-15.17,4.98-22.85,.69-3.98,.75-8.2,.29-12.22-1.25-11.05-2.9-22.05-4.46-33.06-.18-1.26-.73-2.51-1.29-3.67-1.24-2.54-2.4-5.14-3.93-7.51-6.03-9.34-3.43-19.36-2.13-29.11,2.09-15.79,5.2-31.44,7.1-47.25,.91-7.54,.45-15.11,4.16-22.24,.99-1.91-1.08-5.3-1.42-8.06-.35-2.86-1.17-6.08-.25-8.58,2.05-5.56,1.94-10.81,.77-16.49-2.43-11.86-5.16-23.71-3.3-36.04,.43-2.86-.37-5.96-.87-8.9-2.01-11.86-.06-23.17,4.74-34.4-8.2,1.47-13.7-3.38-19.9-7.81-1.11,.89-2.48,2-3.88,3.12-.53-.35-1.09-.51-1.29-.88-2.13-3.89-4.2-7.61-7.04-11.25-5.34-6.84-8.83-15.67-5.39-24.81,1.88-4.98,1.52-8.37-3.02-11.21-.93-.58-1.59-1.61-3.07-3.16,3.81-.85,6.93-1.55,10.81-2.41C7.28,7.98,4.03,5.42,.19,2.4,6.01-.83,11.76-.15,17.08,.73c12.91,2.14,24.88,6.64,35.56,14.72,7.94,6.01,16.71,10.91,25.19,16.19,1.03,.64,2.59,.87,3.81,.69,5.77-.85,10.08,2.08,13.85,5.62,12.3,11.54,21.03,25.49,24.73,41.95,10.76,47.89,20.93,95.91,31.59,143.82,7.18,32.3,14.85,64.49,22.17,96.76,2.94,12.97,5.51,26.02,8.24,39.04H39.2Z" fill="#111111"/></g></svg>