<?xml version="1.0" encoding="UTF-8"?><svg id="b" xmlns="http://www.w3.org/2000/svg" width="1920" height="448.12" viewBox="0 0 1920 448.12"><g id="c"><polygon points="1920 278.4 1885.05 278.4 1885.05 99.7 1875.85 92.03 1862.81 92.03 1862.81 8.44 1844.4 0 1767.71 18.41 1767.71 222.42 1748.53 221.65 1748.53 240.82 1733.2 240.82 1733.2 167.2 1666.47 167.2 1666.47 251.56 1648.06 251.56 1648.06 260.76 1615.08 260.76 1615.08 243.89 1593.61 236.99 1528.42 236.99 1528.42 248.49 1522.05 248.49 1512.15 236.61 1485.2 236.61 1485.2 112.18 1447.16 101.48 1400 101.48 1366.72 109.8 1366.72 264.74 1354.04 264.74 1354.04 258.4 1345.72 258.4 1345.72 249.29 1338.19 249.29 1338.19 234.23 1326.69 234.23 1326.69 216 1320.16 209.46 1309.26 209.46 1309.26 146.26 1286.67 139.2 1270.82 139.2 1270.82 134.37 1191.57 127.24 1165.81 131.2 1165.81 204.9 1136.49 195.39 1136.49 50.36 1034.25 36.49 986.3 44.02 986.3 212.04 960 212.04 960 186.28 921.71 186.28 921.71 116.54 892.39 80.48 892.39 49.57 884.07 55.91 884.07 81.27 855.14 116.14 855.14 217.98 825.03 217.98 818.69 205.3 780.25 205.3 780.25 125.26 767.57 117.73 767.57 62.65 755.68 62.65 755.68 51.15 741.02 23.81 733.09 23.81 719.22 51.15 719.22 62.25 710.11 68.99 710.11 92.37 695.84 91.97 652.65 133.58 652.65 211.64 619.76 211.64 619.76 139.2 608.27 127.63 567.06 127.63 567.06 216 478.69 216 478.69 222.74 462.84 222.74 462.84 232.64 444.22 232.64 444.22 165.28 424.4 165.28 424.4 157.35 415.29 157.35 415.29 152.2 408.95 152.2 408.95 137.54 335.64 137.54 335.64 154.98 329.3 154.98 329.3 161.32 307.11 161.32 307.11 255.63 271.84 255.63 271.84 282.18 255.2 282.18 255.2 301.59 239.35 301.59 239.35 309.12 222.71 309.12 222.71 219.57 211.21 219.57 211.21 197.77 207.25 197.77 207.25 162.5 143.85 162.5 143.85 149.03 128.39 149.03 128.39 154.56 120.07 154.56 115.13 149.62 106.2 149.62 106.2 142.69 50.33 142.69 50.33 150.62 42.01 150.62 42.01 156.16 0 169.24 0 448.12 1920 448.12 1920 278.4" fill="#2d2d2d"/></g></svg>