<svg width="24" height="24" viewBox="0 0 24 24" fill="none" xmlns="http://www.w3.org/2000/svg">
<path d="M14.1431 12.3807C14.1431 11.2331 13.1837 10.3027 12 10.3027C10.8165 10.3027 9.85687 11.2331 9.85687 12.3807C9.85687 13.5283 10.8165 14.4587 12 14.4587C13.1837 14.4587 14.1431 13.5283 14.1431 12.3807Z" fill="#53C1DE"/>
<path fill-rule="evenodd" clip-rule="evenodd" d="M18.9603 8.52296C19.4129 6.73982 19.9818 3.43318 17.9763 2.31213C15.9802 1.19596 13.3827 3.33474 12.0111 4.61854C10.6435 3.34754 7.97304 1.2179 5.9693 2.34251C3.97401 3.46242 4.58931 6.71424 5.05192 8.50856C3.19065 9.02112 0 10.1251 0 12.3807C0 14.6299 3.18733 15.831 5.03758 16.3431C4.57326 18.1474 3.98877 21.3527 5.98662 22.4702C7.99784 23.5946 10.66 21.5156 12.0443 20.2178C13.4247 21.5091 15.9973 23.6017 17.9938 22.4811C19.9965 21.357 19.4749 18.0947 19.0122 16.29C20.8058 15.7768 24 14.6018 24 12.3807C24 10.1468 20.7922 9.03384 18.9603 8.52296ZM18.733 15.3336C18.4292 14.4013 18.0192 13.4098 17.5177 12.3857C17.9964 11.3857 18.3905 10.407 18.6858 9.48072C20.0287 9.85824 22.9748 10.721 22.9748 12.3807C22.9748 14.056 20.1477 14.927 18.733 15.3336ZM17.48 21.6208C15.9904 22.4568 13.7777 20.4557 12.7582 19.5047C13.4346 18.7875 14.1104 17.9538 14.77 17.0279C15.9303 16.9282 17.0264 16.765 18.0205 16.5422C18.3461 17.8187 18.9762 20.781 17.48 21.6208ZM6.4989 21.6089C5.00914 20.776 5.69006 17.9157 6.03166 16.5866C7.01467 16.7975 8.10288 16.9492 9.26592 17.0406C9.92984 17.9466 10.6253 18.7793 11.3261 19.5086C10.4602 20.3206 7.9956 22.4456 6.4989 21.6089ZM1.02519 12.3807C1.02519 10.6992 3.95366 9.84264 5.32723 9.46608C5.62761 10.4132 6.02156 11.4035 6.49698 12.405C6.0154 13.4213 5.61582 14.4273 5.31268 15.3856C4.00295 15.0221 1.02519 14.0633 1.02519 12.3807ZM6.48296 3.20283C7.9788 2.36333 10.2998 4.40786 11.2927 5.3281C10.5955 6.05403 9.90648 6.88048 9.24824 7.7812C8.11952 7.88264 7.039 8.04552 6.04567 8.26376C5.673 6.81657 4.98874 4.04143 6.48296 3.20283ZM15.5034 8.86168C16.2692 8.95536 17.0029 9.08 17.6918 9.23248C17.485 9.8752 17.2272 10.5473 16.9236 11.2362C16.4835 10.4266 16.0111 9.63328 15.5034 8.86168ZM12.0114 6.03848C12.4843 6.53518 12.9579 7.08984 13.4238 7.6916C12.4788 7.64824 11.5322 7.64808 10.5872 7.69096C11.0535 7.09478 11.5312 6.54094 12.0114 6.03848ZM7.0852 11.2355C6.78663 10.549 6.53118 9.87392 6.32258 9.222C7.00734 9.07344 7.7376 8.952 8.4984 8.85984C7.98928 9.62976 7.51768 10.4228 7.0852 11.2355ZM8.52024 15.9726C7.73432 15.8875 6.99301 15.7722 6.30845 15.6278C6.52035 14.9644 6.78142 14.2748 7.08637 13.5734C7.5248 14.3946 8.0036 15.1954 8.52024 15.9726ZM12.0398 18.7932C11.5539 18.2848 11.0692 17.7225 10.5958 17.1177C11.5462 17.1538 12.4985 17.1539 13.4488 17.1128C12.9814 17.7286 12.5095 18.2918 12.0398 18.7932ZM16.9334 13.5378C17.2542 14.2467 17.5246 14.9326 17.7394 15.5847C17.0434 15.7387 16.2922 15.8627 15.5006 15.9548C16.012 15.1686 16.4919 14.3629 16.9334 13.5378ZM14.1978 16.0753C12.7441 16.176 11.2813 16.1749 9.82704 16.0835C9.00072 14.9132 8.26512 13.6824 7.63016 12.4046C8.26208 11.1295 8.99232 9.90112 9.81472 8.73264C11.27 8.626 12.7342 8.62568 14.1895 8.73328C15.0049 9.90168 15.734 11.1269 16.3806 12.3905C15.7417 13.665 15.0076 14.8958 14.1978 16.0753ZM17.4642 3.17328C18.9605 4.01003 18.2945 6.98181 17.9676 8.27408C16.9719 8.05128 15.8906 7.88552 14.7586 7.78248C14.0991 6.87203 13.4158 6.04414 12.7299 5.32759C13.7356 4.38753 15.9825 2.34471 17.4642 3.17328Z" fill="#53C1DE"/>
</svg>
