<svg width="24" height="24" viewBox="0 0 24 24" fill="none" xmlns="http://www.w3.org/2000/svg">
<path d="M20.6659 13.3475C19.8286 13.3519 19.1009 13.5535 18.4916 13.8517C18.268 13.4089 18.0444 13.0143 18.005 12.725C17.9611 12.3874 17.9085 12.1813 17.9611 11.778C18.0137 11.3747 18.2505 10.8004 18.2461 10.7565C18.2417 10.7127 18.1935 10.5066 17.7113 10.5023C17.2291 10.4979 16.8126 10.5943 16.7644 10.7215C16.7162 10.8486 16.6241 11.1379 16.5627 11.4361C16.4795 11.8745 15.5983 13.4396 15.0942 14.2594C14.932 13.9393 14.7917 13.6588 14.761 13.4352C14.7172 13.0976 14.6646 12.8916 14.7172 12.4882C14.7698 12.0849 15.0065 11.5106 15.0021 11.4667C14.9978 11.4229 14.9495 11.2169 14.4673 11.2125C13.9851 11.2081 13.5687 11.3045 13.5205 11.4317C13.4722 11.5588 13.4196 11.8569 13.3188 12.1463C13.218 12.4356 12.0475 15.0485 11.7407 15.7236C11.5829 16.07 11.447 16.3462 11.3505 16.5347C11.3505 16.5347 11.3461 16.5478 11.333 16.5698C11.2497 16.732 11.2015 16.8197 11.2015 16.8197C11.2015 16.8197 11.2015 16.8197 11.2015 16.824C11.1357 16.9424 11.0656 17.052 11.0305 17.052C11.0042 17.052 10.956 16.7364 11.0393 16.3067C11.2146 15.3992 11.6311 13.9876 11.6267 13.9393C11.6267 13.913 11.7056 13.6675 11.3549 13.5404C11.013 13.4133 10.8902 13.6237 10.8596 13.6237C10.8289 13.6237 10.807 13.6982 10.807 13.6982C10.807 13.6982 11.1883 12.1112 10.0793 12.1112C9.38664 12.1112 8.43099 12.8696 7.95755 13.5535C7.65946 13.7158 7.02382 14.0621 6.34435 14.4347C6.08571 14.5794 5.81831 14.7241 5.56844 14.86C5.5509 14.8425 5.53337 14.8205 5.51584 14.803C4.17443 13.3694 1.69325 12.3567 1.79846 10.4321C1.83792 9.73066 2.07902 7.88936 6.56354 5.6535C10.2546 3.83412 13.1917 4.33829 13.7002 5.45622C14.4279 7.05201 12.1264 10.0156 8.31263 10.4453C6.85724 10.6075 6.09448 10.0463 5.9016 9.83588C5.69995 9.61668 5.66926 9.60352 5.59474 9.64737C5.472 9.71313 5.5509 9.91041 5.59474 10.0244C5.70872 10.3225 6.17777 10.8486 6.97122 11.1073C7.67261 11.3352 9.37787 11.4624 11.4426 10.6645C13.7528 9.77012 15.5589 7.28437 15.0284 5.20195C14.498 3.08884 10.9911 2.39177 7.67261 3.57108C5.69995 4.27253 3.56071 5.37731 2.02203 6.81527C0.194032 8.52505 -0.0952919 10.0112 0.0230678 10.6338C0.448286 12.8433 3.49495 14.2813 4.71362 15.3466C4.65225 15.3817 4.59526 15.4124 4.54704 15.4387C3.93771 15.7412 1.61435 16.9556 1.0357 18.2401C0.378147 19.6956 1.14091 20.739 1.64503 20.8793C3.21001 21.3133 4.81883 20.5329 5.68242 19.244C6.546 17.9551 6.44079 16.2804 6.04188 15.5132C6.03749 15.5044 6.03311 15.4957 6.02434 15.4869C6.18216 15.3948 6.34435 15.2984 6.50217 15.2063C6.81341 15.0222 7.12027 14.8512 7.38329 14.7109C7.23424 15.1187 7.12465 15.6053 7.07205 16.3067C7.00629 17.1309 7.34384 18.2006 7.78659 18.6215C7.98385 18.8056 8.21619 18.81 8.36524 18.81C8.88251 18.81 9.11485 18.3804 9.37348 17.8718C9.68911 17.2493 9.97405 16.5259 9.97405 16.5259C9.97405 16.5259 9.61897 18.4812 10.5834 18.4812C10.9341 18.4812 11.2892 18.0253 11.447 17.7929C11.447 17.7973 11.447 17.7973 11.447 17.7973C11.447 17.7973 11.4557 17.7841 11.4733 17.7535C11.5083 17.6965 11.5303 17.6614 11.5303 17.6614C11.5303 17.6614 11.5303 17.657 11.5303 17.6526C11.6705 17.4071 11.9862 16.8503 12.4552 15.9253C13.0602 14.7329 13.6432 13.2423 13.6432 13.2423C13.6432 13.2423 13.6958 13.6062 13.8755 14.2112C13.9807 14.5663 14.1999 14.9564 14.3753 15.3335C14.235 15.5307 14.1473 15.6404 14.1473 15.6404C14.1473 15.6404 14.1473 15.6404 14.1517 15.6447C14.0377 15.7938 13.915 15.956 13.7791 16.1138C13.3013 16.6838 12.7314 17.337 12.6525 17.5255C12.5604 17.7491 12.5823 17.9113 12.7577 18.0428C12.8848 18.1393 13.1128 18.1524 13.3451 18.1393C13.7747 18.1086 14.0772 18.0034 14.2262 17.9376C14.4586 17.8543 14.7304 17.7272 14.9846 17.5386C15.4537 17.1923 15.7386 16.6969 15.7123 16.0437C15.6992 15.6842 15.5808 15.3247 15.4361 14.9871C15.48 14.9258 15.5194 14.8644 15.5633 14.803C16.3041 13.7201 16.8784 12.5321 16.8784 12.5321C16.8784 12.5321 16.931 12.8959 17.1107 13.5009C17.1984 13.8078 17.3781 14.141 17.5359 14.4654C16.8389 15.031 16.4093 15.6886 16.2559 16.1182C15.9797 16.9161 16.1945 17.2756 16.6022 17.3589C16.7863 17.3984 17.0493 17.3107 17.2422 17.2274C17.4877 17.1485 17.777 17.0126 18.0532 16.8109C18.5223 16.4646 18.9738 15.9823 18.9475 15.3291C18.9343 15.031 18.8554 14.7372 18.7458 14.4523C19.3376 14.2068 20.1004 14.0709 21.0736 14.1848C23.1602 14.4304 23.5723 15.7324 23.4934 16.2804C23.4145 16.8284 22.9761 17.1265 22.8314 17.2186C22.6868 17.3107 22.6385 17.3414 22.6517 17.4071C22.6692 17.5036 22.7394 17.4992 22.8621 17.4816C23.0331 17.451 23.958 17.0389 23.9975 16.0305C24.0632 14.7416 22.8358 13.3343 20.6659 13.3475ZM4.56896 18.7749C3.87633 19.529 2.91192 19.814 2.49547 19.5728C2.04833 19.3142 2.22368 18.2006 3.07412 17.4027C3.59139 16.9161 4.25772 16.4645 4.70047 16.1884C4.80129 16.127 4.95034 16.0393 5.13007 15.9297C5.16076 15.9122 5.17829 15.9034 5.17829 15.9034C5.21336 15.8815 5.24843 15.8596 5.2835 15.8376C5.59474 16.9775 5.29665 17.9814 4.56896 18.7749ZM9.6102 15.3466C9.3691 15.9341 8.86498 17.4378 8.55812 17.3545C8.2951 17.2844 8.1329 16.1445 8.50551 15.0178C8.69401 14.4523 9.09293 13.7771 9.32526 13.5141C9.70226 13.0932 10.1187 12.9529 10.2195 13.1239C10.3467 13.3475 9.75925 14.9784 9.6102 15.3466ZM13.7703 17.337C13.6695 17.3896 13.5731 17.4247 13.5292 17.3984C13.4985 17.3808 13.5731 17.3107 13.5731 17.3107C13.5731 17.3107 14.0947 16.7495 14.3008 16.4952C14.4191 16.3462 14.5594 16.1708 14.7084 15.9735C14.7084 15.9911 14.7084 16.013 14.7084 16.0305C14.7084 16.7013 14.0597 17.1528 13.7703 17.337ZM16.9792 16.6048C16.9047 16.5522 16.9178 16.3769 17.1677 15.8289C17.2641 15.614 17.4921 15.2546 17.8822 14.9082C17.9261 15.0485 17.9568 15.1844 17.9524 15.3115C17.948 16.1577 17.343 16.4733 16.9792 16.6048Z" fill="#CD6799"/>
</svg>
