<svg width="24" height="24" viewBox="0 0 24 24" fill="none" xmlns="http://www.w3.org/2000/svg">
<path d="M2.75388 22.116L2.00078 2.30404C1.98941 1.98938 2.10294 1.68278 2.31716 1.44963C2.53137 1.21649 2.82931 1.07525 3.14743 1.05605L20.2015 0.00244798C20.3681 -0.00805625 20.5352 0.0153195 20.6923 0.0711298C20.8494 0.12694 20.9933 0.213998 21.115 0.326921C21.2367 0.439845 21.3336 0.576232 21.3999 0.72765C21.4661 0.879068 21.5002 1.0423 21.5 1.20725V22.794C21.4998 22.957 21.4663 23.1182 21.4013 23.268C21.3364 23.4179 21.2414 23.5531 21.1221 23.6657C21.0028 23.7783 20.8617 23.8658 20.7072 23.9231C20.5528 23.9803 20.3882 24.0061 20.2234 23.9988L3.91997 23.2752C3.61369 23.2616 3.32378 23.1347 3.10778 22.9197C2.89177 22.7048 2.76545 22.4187 2.75388 22.116Z" fill="#FF4785"/>
<path fill-rule="evenodd" clip-rule="evenodd" d="M18.8606 0.0852051L16.5138 0.229205L16.3997 2.9496C16.3983 2.98364 16.4067 3.01737 16.4239 3.04687C16.4411 3.07638 16.4665 3.10045 16.497 3.11628C16.5275 3.13212 16.562 3.13907 16.5964 3.13633C16.6307 3.13358 16.6636 3.12126 16.6912 3.1008L17.7601 2.2992L18.6638 3.0024C18.6911 3.02373 18.724 3.0369 18.7586 3.04035C18.7932 3.0438 18.8281 3.03738 18.8592 3.02186C18.8902 3.00633 18.9161 2.98235 18.9338 2.95275C18.9515 2.92314 18.9602 2.88915 18.959 2.8548L18.8606 0.0852051ZM17.0337 9.19318C16.6049 9.52318 13.4031 9.74758 13.4031 9.27838C13.4711 7.48679 12.6597 7.40879 12.2078 7.40879C11.7802 7.40879 11.0587 7.53599 11.0587 8.49598C11.0587 9.47398 12.1131 10.026 13.3508 10.674C15.1085 11.5944 17.2378 12.7092 17.2378 15.5124C17.2378 18.2004 15.0271 19.6836 12.209 19.6836C9.29987 19.6836 6.75755 18.5208 7.04421 14.49C7.15718 14.0172 10.8559 14.13 10.8559 14.49C10.8097 16.1532 11.1936 16.6428 12.1629 16.6428C12.9075 16.6428 13.2451 16.2372 13.2451 15.5556C13.2451 14.5224 12.1471 13.9128 10.8826 13.212C9.17111 12.2628 7.15718 11.1456 7.15718 8.58118C7.15718 6.02279 8.9379 4.31639 12.1179 4.31639C15.2979 4.31639 17.0337 5.99639 17.0337 9.19318Z" fill="white"/>
</svg>
