<svg width="24" height="24" viewBox="0 0 24 24" fill="none" xmlns="http://www.w3.org/2000/svg">
<path d="M19.4413 16.1575C18.4717 17.1354 17.1154 17.6884 15.6463 17.6904C14.1762 17.6933 12.8189 17.1442 11.8493 16.1691C11.3753 15.6937 11.0279 15.1485 10.8119 14.5654C10.6009 13.9929 10.5205 13.3807 10.5745 12.7744C10.6265 12.1826 10.8031 11.6072 11.0946 11.0872C11.3782 10.5788 11.7678 10.1199 12.2487 9.73182C13.1908 8.97216 14.3901 8.56176 15.6463 8.55982C16.9025 8.55788 18.1008 8.96634 19.0439 9.72212C19.5238 10.1092 19.9134 10.5662 20.196 11.0736C20.4875 11.5936 20.6651 12.168 20.7172 12.7598C20.7711 13.3672 20.6897 13.9784 20.4787 14.5518C20.2628 15.1339 19.9144 15.6801 19.4413 16.1575Z" fill="white"/>
<path d="M12.5117 12.8364C12.5559 12.0457 12.9485 11.3481 13.5393 10.8542C14.1193 10.3682 14.9004 10.0723 15.7513 10.0723C16.6032 10.0732 17.3834 10.3691 17.9634 10.8542C18.5542 11.349 18.9467 12.0457 18.9919 12.8364C19.037 13.6494 18.7063 14.4052 18.1263 14.965C17.5355 15.5345 16.6935 15.8925 15.7513 15.8925C14.8092 15.8925 13.9662 15.5345 13.3754 14.965C12.7963 14.4052 12.4666 13.6494 12.5117 12.8364Z" fill="#005385"/>
<path d="M7.35056 14.4372C7.35645 14.7458 7.45655 15.3473 7.60573 15.8178C7.92075 16.8123 8.45463 17.733 9.19853 18.5441C9.96205 19.3775 10.9003 20.0469 11.9857 20.5214C13.127 21.021 14.3626 21.2762 15.6453 21.2733C16.928 21.2713 18.1636 21.0123 19.3039 20.5088C20.3884 20.0285 21.3266 19.3571 22.0891 18.5218C22.832 17.7068 23.3649 16.7851 23.68 15.7907C23.837 15.2949 23.9381 14.7836 23.9793 14.2665C24.0186 13.762 24.0019 13.2536 23.9302 12.752C23.7889 11.7682 23.4444 10.8456 22.9145 10.0044C22.4287 9.23212 21.8045 8.55492 21.0616 7.98444L21.0626 7.98347L13.5667 2.29422C13.5608 2.28936 13.554 2.28354 13.5481 2.27869C13.0544 1.90613 12.2281 1.90711 11.6873 2.2816C11.1397 2.65998 11.0779 3.28576 11.5637 3.68063L11.5617 3.6816L14.6884 6.19636L5.15617 6.20606H5.14341C4.35633 6.20703 3.59869 6.71833 3.44854 7.36351C3.29544 8.02131 3.8303 8.56656 4.64977 8.57044L4.64879 8.57335L9.48019 8.56365L0.858643 15.1057C0.847848 15.1144 0.836071 15.1222 0.826257 15.13C0.0136629 15.7451 -0.24935 16.7696 0.261956 17.4177C0.782094 18.0765 1.88714 18.0774 2.70955 17.4206L7.41435 13.6145C7.41435 13.6145 7.34566 14.1287 7.35056 14.4372ZM19.4413 16.1574C18.4717 17.1354 17.1154 17.6884 15.6463 17.6903C14.1762 17.6932 12.8189 17.1441 11.8493 16.1691C11.3753 15.6937 11.0278 15.1484 10.8119 14.5653C10.6009 13.9929 10.5205 13.3807 10.5744 12.7743C10.6265 12.1825 10.8031 11.6072 11.0946 11.0871C11.3782 10.5788 11.7678 10.1199 12.2487 9.73177C13.1908 8.97211 14.3901 8.56171 15.6463 8.55977C16.9025 8.55783 18.1007 8.96629 19.0439 9.72207C19.5238 10.1092 19.9134 10.5661 20.196 11.0736C20.4875 11.5936 20.6651 12.1679 20.7171 12.7598C20.7711 13.3671 20.6897 13.9783 20.4787 14.5517C20.2628 15.1339 19.9144 15.6801 19.4413 16.1574Z" fill="#FF7021"/>
</svg>
