<svg width="24" height="24" viewBox="0 0 24 24" fill="none" xmlns="http://www.w3.org/2000/svg">
<g clip-path="url(#clip0_46_12992)">
<path d="M12.2554 0C5.48779 0 0 5.5085 0 12.3038C0 17.74 3.51153 22.3519 8.381 23.9789C8.99345 24.0927 9.21837 23.712 9.21837 23.387C9.21837 23.0936 9.20693 22.1243 9.20174 21.0962C5.79219 21.8405 5.07275 19.6445 5.07275 19.6445C4.51528 18.2224 3.71203 17.8443 3.71203 17.8443C2.60015 17.0806 3.79584 17.0963 3.79584 17.0963C5.02652 17.1831 5.67454 18.3642 5.67454 18.3642C6.76758 20.2452 8.54151 19.7014 9.24086 19.3871C9.35081 18.5918 9.66848 18.0491 10.0189 17.7418C7.2969 17.4306 4.43531 16.3756 4.43531 11.6612C4.43531 10.318 4.91407 9.22033 5.69809 8.35871C5.57083 8.04876 5.15138 6.7974 5.81679 5.10263C5.81679 5.10263 6.84592 4.77194 9.1879 6.36384C10.1654 6.09114 11.2138 5.9545 12.2554 5.94987C13.2969 5.9545 14.3461 6.09114 15.3255 6.36384C17.6647 4.77194 18.6924 5.10263 18.6924 5.10263C19.3595 6.7974 18.9398 8.04876 18.8125 8.35871C19.5983 9.22033 20.0738 10.3179 20.0738 11.6612C20.0738 16.3868 17.2068 17.4274 14.4779 17.732C14.9174 18.1138 15.3091 18.8626 15.3091 20.0105C15.3091 21.6567 15.2949 22.9817 15.2949 23.387C15.2949 23.7144 15.5155 24.098 16.1368 23.9772C21.0035 22.3485 24.5106 17.7382 24.5106 12.3038C24.5106 5.5085 19.0236 0 12.2554 0Z" fill="#161614"/>
<path d="M4.59002 17.527C4.56311 17.5881 4.46719 17.6064 4.38001 17.5645C4.2911 17.5244 4.24112 17.441 4.26995 17.3796C4.29639 17.3167 4.39231 17.2992 4.48103 17.3414C4.57013 17.3815 4.62088 17.4656 4.59002 17.527V17.527ZM5.19287 18.067C5.13443 18.1214 5.02015 18.0961 4.94258 18.0102C4.86242 17.9244 4.84743 17.8097 4.90673 17.7544C4.96699 17.7001 5.07782 17.7255 5.15817 17.8114C5.23833 17.8981 5.2539 18.0121 5.19277 18.0671L5.19287 18.067ZM5.60646 18.7579C5.5313 18.8103 5.40846 18.7612 5.33262 18.6518C5.25756 18.5424 5.25756 18.4112 5.33426 18.3586C5.41038 18.306 5.5313 18.3533 5.60819 18.4619C5.68316 18.5731 5.68316 18.7044 5.60636 18.758L5.60646 18.7579ZM6.30581 19.5582C6.23862 19.6325 6.0956 19.6126 5.99083 19.5111C5.88376 19.4119 5.85387 19.2711 5.92124 19.1967C5.9892 19.1222 6.13309 19.1431 6.23862 19.2438C6.34502 19.3428 6.37751 19.4846 6.3059 19.5582H6.30581ZM7.20969 19.8283C7.18018 19.9246 7.04235 19.9685 6.90356 19.9275C6.76496 19.8854 6.67422 19.7725 6.70219 19.6751C6.73103 19.5781 6.86944 19.5325 7.00929 19.5763C7.1477 19.6183 7.23862 19.7303 7.20979 19.8283H7.20969ZM8.23853 19.9429C8.24199 20.0444 8.12424 20.1285 7.97853 20.1304C7.83195 20.1336 7.71344 20.0514 7.7119 19.9517C7.7119 19.8492 7.82695 19.7658 7.97344 19.7634C8.11915 19.7605 8.23853 19.842 8.23853 19.9429V19.9429ZM9.2491 19.904C9.26659 20.003 9.16529 20.1047 9.02063 20.1317C8.87838 20.1578 8.7467 20.0967 8.72853 19.9986C8.71085 19.897 8.81408 19.7954 8.95604 19.7691C9.10098 19.7438 9.23065 19.8033 9.2491 19.904" fill="#161614"/>
</g>
<defs>
<clipPath id="clip0_46_12992">
<rect width="24" height="24" fill="white"/>
</clipPath>
</defs>
</svg>
