<svg width="24" height="24" viewBox="0 0 24 24" fill="none" xmlns="http://www.w3.org/2000/svg">
<path d="M21.1539 11.8166C21.1539 10.5829 20.1644 9.58275 18.9438 9.58275C18.8652 9.58275 18.7878 9.587 18.7114 9.59517L21.7471 0.545654H8.84672L11.8781 9.58726C11.8334 9.58441 11.7886 9.58294 11.7438 9.58284C10.5232 9.58284 9.53365 10.5829 9.53365 11.8167C9.53365 12.8139 10.1803 13.6583 11.0727 13.9455C10.6014 14.7707 10.0082 15.514 9.33485 16.1562C8.41916 17.0293 7.37123 17.6913 6.23781 18.0993C4.88835 17.3986 4.25114 15.8403 4.82609 14.474C4.89104 14.3197 4.95733 14.1633 5.02068 14.0076C5.99829 13.777 6.72686 12.8912 6.72686 11.8327C6.72686 10.5989 5.73731 9.59882 4.51665 9.59882C3.29599 9.59882 2.30653 10.5989 2.30653 11.8327C2.30653 12.5893 2.67889 13.2576 3.24821 13.6617C2.70119 14.9205 1.89706 16.2381 1.64652 17.7651C1.34625 19.595 1.64551 21.5376 3.21144 22.6346C6.85836 25.1895 10.8171 21.0509 14.991 20.0104C16.5037 19.6335 18.1642 19.6942 19.4969 18.9141C20.4977 18.3282 21.1576 17.3572 21.3447 16.2671C21.5298 15.1902 21.2601 14.118 20.6399 13.2486C20.9726 12.8473 21.1547 12.3402 21.1539 11.8166" fill="#99425B"/>
<path d="M20.8129 16.1736C20.6504 17.1201 20.0721 17.9467 19.2264 18.4419C18.438 18.9034 17.4933 19.0411 16.4929 19.1869C15.9571 19.2649 15.403 19.3458 14.8617 19.4807C13.4305 19.8374 12.0442 20.5334 10.7036 21.2065C8.02069 22.5535 5.70371 23.7166 3.51899 22.1861C1.91865 21.0651 1.99252 18.9909 2.17895 17.8543C2.35176 16.8012 2.81894 15.8314 3.27064 14.8935C3.34759 14.7341 3.42393 14.5744 3.49964 14.4144C3.72734 14.5064 3.96626 14.567 4.20996 14.5945C3.7501 16.1285 4.47329 17.7964 5.99111 18.5845L6.19891 18.6924L6.41883 18.6132C7.61879 18.1813 8.72453 17.4882 9.70525 16.5529C10.3392 15.9484 10.8843 15.2796 11.3323 14.5649C11.4685 14.5857 11.606 14.5961 11.7437 14.5961C13.1369 14.5961 14.2905 13.5435 14.469 12.1839C15.0392 12.1628 15.6449 12.1627 16.2184 12.1838C16.3968 13.5435 17.5506 14.5962 18.9437 14.5962C19.5262 14.5962 20.0665 14.4117 20.5116 14.0983C20.8207 14.7376 20.936 15.457 20.8129 16.1736V16.1736ZM4.51671 10.1443C5.43777 10.1443 6.18705 10.9018 6.18705 11.8327C6.18705 12.1671 6.08996 12.4789 5.9233 12.7415C5.64566 13.1792 5.17369 13.4792 4.63146 13.5166C4.59352 13.5192 4.55524 13.521 4.51671 13.521C4.31143 13.521 4.11481 13.4832 3.933 13.4145C3.56685 13.2753 3.26023 13.0114 3.06603 12.6681C2.92183 12.4139 2.84606 12.1258 2.84628 11.8327C2.84628 10.9018 3.59564 10.1443 4.51671 10.1443V10.1443ZM10.0735 11.8167C10.0735 10.9708 10.6921 10.2685 11.4959 10.1471C11.5768 10.1347 11.6596 10.1284 11.7438 10.1284C12.2793 10.1284 12.7561 10.3847 13.0618 10.782C13.1384 10.8811 13.2038 10.9885 13.2568 11.1022C13.3607 11.3257 13.4144 11.5697 13.4142 11.8167C13.4142 11.9516 13.398 12.0828 13.3683 12.2087C13.2055 12.8975 12.6244 13.424 11.9123 13.4965C11.857 13.5021 11.8008 13.505 11.7438 13.505C11.4225 13.5052 11.1081 13.4113 10.8386 13.2345C10.3787 12.9334 10.0735 12.4105 10.0735 11.8167V11.8167ZM17.045 9.80897C16.6815 10.1597 16.4199 10.6042 16.2886 11.0945C15.659 11.071 15.0288 11.071 14.3992 11.0945C14.2578 10.5645 13.9649 10.097 13.5707 9.74187L15.2992 6.20932L17.045 9.80897ZM9.59958 1.09135H20.9941L18.3028 9.11405C18.187 9.14208 18.0731 9.17773 17.962 9.22077L15.3034 3.73911L12.6373 9.18804C12.5211 9.14771 12.4023 9.11535 12.2818 9.09118L9.59958 1.09135ZM20.614 11.8167C20.614 11.986 20.589 12.1494 20.543 12.3037C20.4338 12.6671 20.2071 12.9829 19.8992 13.2005C19.6193 13.399 19.2856 13.5054 18.9437 13.505C18.1725 13.505 17.5219 12.9738 17.3306 12.2544C17.2926 12.1117 17.2733 11.9645 17.2734 11.8167C17.2734 11.586 17.3195 11.3659 17.4027 11.1654C17.4457 11.0628 17.4986 10.9647 17.5607 10.8727C17.8613 10.4242 18.3686 10.1284 18.9437 10.1284C18.9964 10.1284 19.0484 10.1312 19.1 10.1361C19.948 10.2159 20.6141 10.939 20.6141 11.8167H20.614ZM21.6937 11.8167C21.6937 10.4597 20.7263 9.32749 19.4523 9.08565L22.5 0H8.0938L11.1462 9.10402C9.91641 9.38064 8.99392 10.4915 8.99392 11.8167C8.99392 12.8118 9.51418 13.6857 10.2939 14.1769C9.91885 14.7417 9.47414 15.2732 8.96447 15.7593C8.15614 16.5299 7.25568 17.1145 6.28489 17.4991C5.30703 16.8782 4.8937 15.7074 5.32294 14.6875L5.35659 14.6075L5.41969 14.4575C6.4937 14.0789 7.26662 13.0457 7.26662 11.8327C7.26662 10.3 6.033 9.05317 4.51671 9.05317C3.00041 9.05317 1.76663 10.3 1.76663 11.8327C1.76663 12.6063 2.08128 13.3068 2.58758 13.8113C2.49315 14.0135 2.39729 14.215 2.30002 14.4159C1.83704 15.3769 1.3124 16.4661 1.11394 17.6757C0.719865 20.078 1.35556 21.9983 2.904 23.083C3.84357 23.7412 4.79779 24 5.75798 24C7.56596 24 9.39497 23.0819 11.1839 22.1837C12.4722 21.537 13.8044 20.8682 15.1203 20.5401C15.6099 20.4181 16.1137 20.3447 16.6471 20.2669C17.7049 20.1127 18.7986 19.9532 19.7674 19.3861C20.8905 18.7286 21.6592 17.6257 21.8766 16.3604C22.0632 15.274 21.8386 14.186 21.291 13.2632C21.5549 12.8279 21.6943 12.3272 21.6937 11.8167V11.8167Z" fill="white"/>
</svg>
