<svg id="Layer_5" data-name="Layer 5" xmlns="http://www.w3.org/2000/svg" xmlns:xlink="http://www.w3.org/1999/xlink" viewBox="0 0 50 50">
  <defs>
    <clipPath id="clippath">
      <path d="M21.11,23.32h7.99c.66,0,1.16,.62,1,1.26-.56,2.23-2.58,3.89-4.99,3.89s-4.43-1.65-4.99-3.89c-.16-.64,.34-1.26,1-1.26Z" style="fill: none;"/>
    </clipPath>
  </defs>
  <rect width="50" height="50" style="fill: #6a4c99;"/>
  <path d="M24.94,29.87h0c6.46,0,11.7,5.24,11.7,11.7v8.43H13.23v-8.43c0-6.46,5.24-11.7,11.7-11.7Z" style="fill: #d62156;"/>
  <path d="M36.8,16.77c0-2.4-1.81-4.38-4.13-4.65-.58-1.13-1.76-1.91-3.12-1.91-.35,0-.69,.05-1.01,.15-.82-2.53-3.2-4.36-6.01-4.36-3.49,0-6.32,2.83-6.32,6.32,0,.11,.01,.23,.02,.34-1.88,.42-3.29,2.1-3.29,4.11,0,1.36,.65,2.56,1.65,3.33l.69,5.56,17.62,.47,2.96-6.54c.59-.78,.95-1.76,.95-2.82Z" style="fill: #3a2114;"/>
  <circle cx="33.13" cy="22.62" r="3.51" style="fill: #ce6f41;"/>
  <circle cx="16.74" cy="22.62" r="3.51" style="fill: #ce6f41;"/>
  <path d="M24.01,25.66h2.32c2.45,0,4.45,1.99,4.45,4.45v3.52c0,3.09-2.51,5.61-5.61,5.61h0c-3.09,0-5.61-2.51-5.61-5.61v-3.52c0-2.45,1.99-4.45,4.45-4.45Z" style="fill: #ff6e00;"/>
  <rect x="20.72" y="27.06" width="8.89" height="10.77" rx="4.45" ry="4.45" style="fill: #ce6f41;"/>
  <path d="M25.54,32.91h-1.34c-4.93,0-8.92-4-8.92-8.92l-.11-4.42,1.72-1.87v-2.38c0-.75,.61-1.36,1.36-1.36h13.15c.75,0,1.36,.61,1.36,1.36v2.38l1.59,1.87,.13,4.42c0,4.93-4,8.92-8.92,8.92Z" style="fill: #dd8657;"/>
  <g>
    <g>
      <path d="M31.43,20.98h-3.28c0-.9,.73-1.64,1.64-1.64s1.64,.73,1.64,1.64Z" style="fill: #3a3a3a;"/>
      <path d="M26.28,22.15h-2.34c0-.65,.52-1.17,1.17-1.17s1.17,.52,1.17,1.17Z" style="fill: #ce6f41;"/>
      <path d="M22.07,20.98h-3.28c0-.9,.73-1.64,1.64-1.64s1.64,.73,1.64,1.64Z" style="fill: #3a3a3a;"/>
    </g>
    <g>
      <path d="M21.11,23.32h7.99c.66,0,1.16,.62,1,1.26-.56,2.23-2.58,3.89-4.99,3.89s-4.43-1.65-4.99-3.89c-.16-.64,.34-1.26,1-1.26Z" style="fill: #a80433;"/>
      <g style="clip-path: url(#clippath);">
        <path d="M18.56,25.66h8.89v2.11c0,.9-.73,1.64-1.64,1.64h-3.51c-2.07,0-3.74-1.68-3.74-3.74h0Z" transform="translate(46.01 55.06) rotate(-180)" style="fill: #d62156;"/>
        <path d="M21.84,22.38h7.02v.7c0,.9-.73,1.64-1.64,1.64h-3.75c-.9,0-1.64-.73-1.64-1.64v-.7h0Z" style="fill: #fff;"/>
      </g>
    </g>
  </g>
  <circle cx="15.57" cy="12.09" r="2.34" style="fill: #3a2114;"/>
  <circle cx="33.36" cy="11.62" r="2.34" style="fill: #3a2114;"/>
  <circle cx="29.15" cy="9.74" r="3.74" style="fill: #3a2114;"/>
  <path d="M26.01,34.79h-1.34c-1.84,0-4.02-2.43-5.44-3.39-2.38-1.6-3.95-4.32-3.95-7.41,0,0,1.24,6.82,9.66,6.82s9.53-6.82,9.53-6.82c0,2.93-1.41,5.53-3.6,7.16-1.49,1.11-2.86,3.64-4.86,3.64Z" style="fill: #3a2114;"/>
  <path d="M28.73,23.32c.72,0,1.3,.58,1.3,1.3l-.94,4.12c0,.62-.51,1.13-1.13,1.13h-5.7c-.62,0-1.13-.51-1.13-1.13l-.94-4.12c0-.72,.58-1.3,1.3-1.3h7.23m0-.94h-7.23c-1.24,0-2.24,1-2.24,2.24v4.59c0,1.14,.92,1.6,2.06,1.6h7.57c1.14,0,2.06-.46,2.06-1.6v-4.59c0-1.24-1-2.24-2.24-2.24h0Z" style="fill: #3a2114;"/>
</svg>