<?xml version="1.0" encoding="utf-8"?>
<!-- Generator: Adobe Illustrator 27.0.0, SVG Export Plug-In . SVG Version: 6.00 Build 0)  -->
<svg version="1.0" xmlns="http://www.w3.org/2000/svg" xmlns:xlink="http://www.w3.org/1999/xlink" x="0px" y="0px"
	 viewBox="0 0 50 50" enable-background="new 0 0 50 50" xml:space="preserve">
<g id="Layer_3">
</g>
<g id="Layer_2">
</g>
<g id="Layer_1">
</g>
<g id="Layer_5">
	<g>
		<rect fill="#BF6500" width="50" height="50"/>
		<path fill="#A4A4A4" d="M24.9,29.9L24.9,29.9c-6.5,0-11.7,5.2-11.7,11.7V50h23.4v-8.4C36.6,35.1,31.4,29.9,24.9,29.9z"/>
		<path fill="#4E5E89" d="M43.1,50c0,0-6.2-25.3-18.6-17.8C31.3,35,35.3,41.7,35.6,50C39.9,50,43.1,50,43.1,50z"/>
		<path fill="#4E5E89" d="M6.5,50c0,0,6.2-25.3,18.6-17.8C18.3,35,14.2,41.7,13.9,50C9.6,50,6.5,50,6.5,50z"/>
		<path fill="#D88157" d="M25.5,32.9h-1.3c-4.9,0-8.9-4-8.9-8.9l-0.1-4.4l1.7-1.9v-2.4c0-0.8,0.6-1.4,1.4-1.4h13.2
			c0.8,0,1.4,0.6,1.4,1.4v2.4l1.6,1.9l0.1,4.4C34.5,28.9,30.5,32.9,25.5,32.9z"/>
		<g>
			<g>
				<path fill="#C96F41" d="M26.3,22.1c-0.9,0-1.1,0-2.3,0c0-0.6,0.5-1.2,1.2-1.2S26.3,21.5,26.3,22.1z"/>
			</g>
			<g>
				<path fill="#A30433" d="M21.1,23.3h8c0.7,0,1.2,0.6,1,1.3c-0.6,2.2-2.6,3.9-5,3.9s-4.4-1.7-5-3.9C20,23.9,20.5,23.3,21.1,23.3z"
					/>
				<g>
					<defs>
						<path id="SVGID_00000059286348010961387360000010884632298350736034_" d="M21.1,23.3h8c0.7,0,1.2,0.6,1,1.3
							c-0.6,2.2-2.6,3.9-5,3.9s-4.4-1.7-5-3.9C20,23.9,20.5,23.3,21.1,23.3z"/>
					</defs>
					<clipPath id="SVGID_00000158736843458298781590000003066538706039667367_">
						<use xlink:href="#SVGID_00000059286348010961387360000010884632298350736034_"  overflow="visible"/>
					</clipPath>
					<path clip-path="url(#SVGID_00000158736843458298781590000003066538706039667367_)" fill="#D12156" d="M20.2,25.7h3.5
						c2.1,0,3.7,1.7,3.7,3.7v0h-8.9v-2.1C18.6,26.4,19.3,25.7,20.2,25.7z"/>
					<path clip-path="url(#SVGID_00000158736843458298781590000003066538706039667367_)" fill="#FFFFFF" d="M27.2,24.7h-3.7
						c-0.9,0-1.6-0.7-1.6-1.6v-0.7h7v0.7C28.9,24,28.1,24.7,27.2,24.7z"/>
				</g>
			</g>
		</g>
		<path fill="#3A2114" d="M26,34.8h-1.3c-1.8,0-4-2.4-5.4-3.4c-2.4-1.6-3.9-4.3-3.9-7.4c0,0,1.2,6.8,9.7,6.8s9.5-6.8,9.5-6.8
			c0,2.9-1.4,5.5-3.6,7.2C29.4,32.3,28,34.8,26,34.8z"/>
		<path fill="#3A2114" d="M28.7,23.3c0.7,0,1.3,0.6,1.3,1.3l-0.9,4.1c0,0.6-0.5,1.1-1.1,1.1h-5.7c-0.6,0-1.1-0.5-1.1-1.1l-0.9-4.1
			c0-0.7,0.6-1.3,1.3-1.3H28.7 M28.7,22.4h-7.2c-1.2,0-2.2,1-2.2,2.2v4.6c0,1.1,0.9,1.6,2.1,1.6h7.6c1.1,0,2.1-0.5,2.1-1.6v-4.6
			C31,23.4,30,22.4,28.7,22.4L28.7,22.4z"/>
		<g>
			<path fill="#4E5E89" d="M24.8,8.5c0,0,2.9,0,5.2,1c1.4-2.3,2.3-8,2.3-8s7.4,22.5-0.6,28.9c0-4.7,2.2-9.7-7-8.3
				C24.8,16.2,24.8,8.5,24.8,8.5z"/>
			<path fill="#4E5E89" d="M24.9,8.5c0,0-2.9,0-5.2,1c-1.4-2.3-2.3-8-2.3-8S10,24,17.9,30.4c0-4.7-2.2-9.7,7-8.3
				C24.9,16.2,24.9,8.5,24.9,8.5z"/>
		</g>
		<path fill="#FFFFFF" d="M31.4,21c-1.3,0-1.6,0-3.3,0c0-0.9,0.7-1.6,1.6-1.6C30.7,19.3,31.4,20.1,31.4,21z"/>
		<path fill="#FFFFFF" d="M22.1,21c-1.3,0-1.6,0-3.3,0c0-0.9,0.7-1.6,1.6-1.6C21.3,19.3,22.1,20.1,22.1,21z"/>
	</g>
</g>
<g id="icons">
</g>
<g id="sport">
</g>
<g id="batman">
</g>
</svg>
